SplineFontDB: 3.2
FontName: UbuntuIconMonoRegular
FullName: UbuntuIconMono Regular
FamilyName: UbuntuIconMono
Weight: Medium
Copyright: Copyright 2011 Canonical Ltd.  Licensed under the Ubuntu Font Licence 1.0
Version: ""
ItalicAngle: 0
UnderlinePosition: -150
UnderlineWidth: 50
Ascent: 830
Descent: 170
InvalidEm: 0
sfntRevision: 0x00010000
LayerCount: 2
Layer: 0 1 "Back" 1
Layer: 1 1 "Fore" 0
XUID: [1021 930 2018224624 3844121]
StyleMap: 0x0040
FSType: 0
OS2Version: 3
OS2_WeightWidthSlopeOnly: 0
OS2_UseTypoMetrics: 0
CreationTime: 1587320259
ModificationTime: 1588777874
PfmFamily: 81
TTFWeight: 500
TTFWidth: 5
LineGap: 0
VLineGap: 0
Panose: 0 0 0 0 0 0 0 0 0 0
OS2TypoAscent: 830
OS2TypoAOffset: 0
OS2TypoDescent: -170
OS2TypoDOffset: 0
OS2TypoLinegap: 0
OS2WinAscent: 830
OS2WinAOffset: 0
OS2WinDescent: 170
OS2WinDOffset: 0
HheadAscent: 830
HheadAOffset: 0
HheadDescent: -170
HheadDOffset: 0
OS2SubXSize: 650
OS2SubYSize: 699
OS2SubXOff: 0
OS2SubYOff: 140
OS2SupXSize: 650
OS2SupYSize: 699
OS2SupXOff: 0
OS2SupYOff: 479
OS2StrikeYSize: 49
OS2StrikeYPos: 258
OS2CapHeight: 619
OS2XHeight: 464
OS2Vendor: 'XXXX'
OS2CodePages: 00000001.00000000
OS2UnicodeRanges: e00002ff.5000385b.00000020.00000000
Lookup: 4 0 1 "'liga' Standard Ligatures lookup 0" { "'liga' Standard Ligatures lookup 0 subtable"  } ['liga' ('DFLT' <'dflt' > ) ]
MarkAttachClasses: 1
DEI: 91125
ShortTable: maxp 16
  1
  0
  1447
  349
  85
  0
  0
  2
  0
  1
  1
  0
  64
  0
  0
  0
EndShort
LangName: 1033 "" "" "" "Dalton Maag Ltd:UbuntuIconMono Regular" "" "+ACIAIgAA" "" "Ubuntu and Canonical are registered trademarks of Canonical Ltd." "Dalton Maag Ltd" "Dalton Maag Ltd" "+ACIAIgAA" "http://www.daltonmaag.com/" "http://www.daltonmaag.com/" "+ACIAIgAA" "+ACIAIgAA" "" "UbuntuIconMono" "Regular"
GaspTable: 1 65535 2 0
Encoding: UnicodeBmp
UnicodeInterp: none
NameList: AGL For New Fonts
DisplaySize: -36
AntiAlias: 1
FitToEm: 0
WinInfo: 57069 51 17
BeginPrivate: 0
EndPrivate
BeginChars: 65538 1350

StartChar: .notdef
Encoding: 0 -1 0
AltUni2: 000000.ffffffff.0
Width: 457
Flags: W
LayerCount: 2
Fore
SplineSet
20 675 m 1,0,-1
 437 675 l 1,1,-1
 437 0 l 1,2,-1
 20 0 l 1,3,-1
 20 675 l 1,0,-1
68 48 m 1,4,-1
 388 48 l 1,5,-1
 388 627 l 1,6,-1
 68 627 l 1,7,-1
 68 48 l 1,4,-1
EndSplineSet
EndChar

StartChar: exclam
Encoding: 33 33 4
Width: 500
GlyphClass: 2
Flags: W
LayerCount: 2
Fore
SplineSet
293 619 m 1,0,-1
 293 451 l 2,1,2
 293 404 293 404 292 383 c 128,-1,3
 291 362 291 362 289 324 c 0,4,5
 287 305 287 305 283 269 c 0,6,7
 279 231 279 231 277 211 c 1,8,-1
 220 211 l 1,9,10
 218 231 218 231 214 269 c 0,11,12
 210 305 210 305 209 324 c 0,13,14
 207 345 207 345 205 383 c 0,15,16
 204 404 204 404 204 451 c 2,17,-1
 204 619 l 1,18,-1
 293 619 l 1,0,-1
248 -12 m 0,19,20
 220 -12 220 -12 201 7 c 0,21,22
 181 25 181 25 181 56 c 0,23,24
 181 86 181 86 201 106 c 0,25,26
 220 124 220 124 248 124 c 256,27,28
 276 124 276 124 296 106 c 0,29,30
 315 87 315 87 315 56 c 128,-1,31
 315 25 315 25 296 7 c 0,32,33
 277 -12 277 -12 248 -12 c 0,19,20
EndSplineSet
EndChar

StartChar: quotedbl
Encoding: 34 34 5
Width: 500
GlyphClass: 2
Flags: W
LayerCount: 2
Fore
SplineSet
129 679 m 1,0,-1
 206 679 l 1,1,-1
 206 634 l 2,2,3
 206 596 206 596 201 534 c 0,4,5
 197 488 197 488 188 430 c 1,6,-1
 146 430 l 1,7,8
 139 476 139 476 134 534 c 0,9,10
 129 596 129 596 129 635 c 2,11,-1
 129 679 l 1,0,-1
294 679 m 1,12,-1
 371 679 l 1,13,-1
 371 634 l 2,14,15
 371 596 371 596 366 534 c 0,16,17
 361 476 361 476 354 430 c 1,18,-1
 312 430 l 1,19,20
 303 488 303 488 299 534 c 0,21,22
 294 596 294 596 294 635 c 2,23,-1
 294 679 l 1,12,-1
EndSplineSet
EndChar

StartChar: numbersign
Encoding: 35 35 6
Width: 500
GlyphClass: 2
Flags: W
LayerCount: 2
Fore
SplineSet
352 163 m 1,0,-1
 321 0 l 1,1,-1
 246 0 l 1,2,-1
 277 163 l 1,3,-1
 166 163 l 1,4,-1
 135 0 l 1,5,-1
 60 0 l 1,6,-1
 91 163 l 1,7,-1
 27 163 l 1,8,-1
 27 230 l 1,9,-1
 104 230 l 1,10,-1
 134 389 l 1,11,-1
 27 389 l 1,12,-1
 27 455 l 1,13,-1
 148 455 l 1,14,-1
 179 619 l 1,15,-1
 254 619 l 1,16,-1
 223 455 l 1,17,-1
 334 455 l 1,18,-1
 364 619 l 1,19,-1
 439 619 l 1,20,-1
 409 455 l 1,21,-1
 473 455 l 1,22,-1
 473 389 l 1,23,-1
 396 389 l 1,24,-1
 365 230 l 1,25,-1
 473 230 l 1,26,-1
 473 163 l 1,27,-1
 352 163 l 1,0,-1
289 230 m 1,28,-1
 320 389 l 1,29,-1
 210 389 l 1,30,-1
 179 230 l 1,31,-1
 289 230 l 1,28,-1
EndSplineSet
EndChar

StartChar: dollar
Encoding: 36 36 7
Width: 500
GlyphClass: 2
Flags: W
LayerCount: 2
Fore
SplineSet
233 85 m 0,0,1
 268 85 268 85 294 91 c 0,2,3
 317 95 317 95 332 107 c 0,4,5
 347 118 347 118 352 132 c 0,6,7
 358 146 358 146 358 163 c 0,8,9
 358 188 358 188 346 206 c 0,10,11
 333 224 333 224 314 237 c 0,12,13
 294 250 294 250 267 261 c 0,14,15
 265 262 265 262 213 281 c 0,16,17
 177 295 177 295 160 303 c 0,18,19
 132 315 132 315 113 333 c 0,20,21
 93 349 93 349 79 375 c 0,22,23
 66 398 66 398 66 435 c 0,24,25
 66 498 66 498 104 539 c 0,26,27
 141 579 141 579 214 590 c 1,28,-1
 214 693 l 1,29,-1
 288 693 l 1,30,-1
 288 593 l 1,31,32
 327 592 327 592 362 584 c 0,33,34
 390 578 390 578 415 568 c 1,35,-1
 398 498 l 1,36,37
 372 507 372 507 345 515 c 0,38,39
 311 523 311 523 264 523 c 0,40,41
 211 523 211 523 182 503 c 128,-1,42
 153 483 153 483 153 445 c 0,43,44
 153 424 153 424 162 410 c 0,45,46
 170 395 170 395 186 385 c 0,47,48
 206 372 206 372 224 365 c 0,49,50
 232 361 232 361 272 346 c 0,51,52
 306 332 306 332 338 319 c 0,53,54
 369 304 369 304 394 284 c 0,55,56
 418 264 418 264 433 236 c 0,57,58
 447 206 447 206 447 169 c 0,59,60
 447 110 447 110 408 69 c 256,61,62
 369 28 369 28 288 18 c 1,63,-1
 288 -97 l 1,64,-1
 214 -97 l 1,65,-1
 214 15 l 1,66,67
 153 16 153 16 112 29 c 0,68,69
 76 40 76 40 54 52 c 1,70,-1
 76 121 l 1,71,72
 104 107 104 107 140 97 c 0,73,74
 178 85 178 85 233 85 c 0,0,1
EndSplineSet
EndChar

StartChar: percent
Encoding: 37 37 8
Width: 500
GlyphClass: 2
Flags: W
LayerCount: 2
Fore
SplineSet
474 619 m 1,0,-1
 95 0 l 1,1,-1
 25 0 l 1,2,-1
 404 619 l 1,3,-1
 474 619 l 1,0,-1
18 477 m 128,-1,5
 18 552 18 552 47 593 c 0,6,7
 75 632 75 632 127 632 c 0,8,9
 178 632 178 632 207 593 c 0,10,11
 236 552 236 552 236 477 c 128,-1,12
 236 402 236 402 207 361 c 0,13,14
 179 321 179 321 127 321 c 128,-1,15
 75 321 75 321 47 361 c 0,16,4
 18 402 18 402 18 477 c 128,-1,5
174 477 m 128,-1,18
 174 522 174 522 162 551 c 128,-1,19
 150 580 150 580 127 580 c 128,-1,20
 104 580 104 580 92 551 c 0,21,22
 79 524 79 524 79 477 c 128,-1,23
 79 430 79 430 92 403 c 0,24,25
 104 374 104 374 127 374 c 128,-1,26
 150 374 150 374 162 403 c 128,-1,17
 174 432 174 432 174 477 c 128,-1,18
265 142 m 128,-1,28
 265 217 265 217 294 258 c 0,29,30
 322 297 322 297 373 297 c 0,31,32
 425 297 425 297 453 258 c 0,33,34
 482 217 482 217 482 142 c 128,-1,35
 482 67 482 67 453 27 c 0,36,37
 425 -13 425 -13 373 -13 c 0,38,39
 322 -13 322 -13 294 27 c 0,40,27
 265 67 265 67 265 142 c 128,-1,28
421 142 m 0,41,42
 421 188 421 188 409 216 c 0,43,44
 395 245 395 245 373 245 c 0,45,46
 350 245 350 245 338 216 c 0,47,48
 326 188 326 188 326 142 c 128,-1,49
 326 96 326 96 338 68 c 0,50,51
 350 39 350 39 373 39 c 0,52,53
 395 39 395 39 409 68 c 0,54,55
 421 97 421 97 421 142 c 0,41,42
EndSplineSet
EndChar

StartChar: ampersand
Encoding: 38 38 9
Width: 500
GlyphClass: 2
Flags: W
LayerCount: 2
Fore
SplineSet
238 321 m 1,0,-1
 272 283 l 2,1,2
 294 257 294 257 308 243 c 0,3,4
 313 237 313 237 325.5 222 c 128,-1,5
 338 207 338 207 345 199 c 1,6,7
 354 235 354 235 359 260 c 0,8,9
 365 293 365 293 368 333 c 1,10,-1
 437 324 l 1,11,12
 431 270 431 270 420 221 c 0,13,14
 409 180 409 180 391 138 c 1,15,16
 417 102 417 102 435 72 c 0,17,18
 458 35 458 35 473 0 c 1,19,-1
 386 0 l 1,20,21
 369 35 369 35 348 67 c 1,22,23
 317 27 317 27 277 10 c 0,24,25
 236 -8 236 -8 194 -8 c 0,26,27
 155 -8 155 -8 126 5 c 0,28,29
 95 17 95 17 75 39 c 0,30,31
 53 62 53 62 43 90 c 0,32,33
 31 118 31 118 31 151 c 0,34,35
 31 199 31 199 56 246 c 0,36,37
 80 294 80 294 133 335 c 1,38,39
 108 369 108 369 91 406 c 0,40,41
 75 441 75 441 75 480 c 0,42,43
 75 521 75 521 88 548 c 0,44,45
 100 576 100 576 121 596 c 0,46,47
 141 613 141 613 170 624 c 0,48,49
 197 633 197 633 226 633 c 0,50,51
 250 633 250 633 277 625 c 0,52,53
 301 618 301 618 321 601 c 0,54,55
 339 586 339 586 352 560 c 0,56,57
 363 535 363 535 363 505 c 0,58,59
 363 459 363 459 333 411 c 0,60,61
 303 362 303 362 238 321 c 1,0,-1
172 285 m 1,62,63
 142 258 142 258 129 225 c 0,64,65
 114 190 114 190 114 159 c 0,66,67
 114 121 114 121 134 95 c 128,-1,68
 154 69 154 69 183 63 c 0,69,70
 211 56 211 56 246 71 c 0,71,72
 279 84 279 84 308 125 c 1,73,74
 277 167 277 167 240 209 c 0,75,76
 207 244 207 244 172 285 c 1,62,63
288 496 m 0,77,78
 288 532 288 532 269 550 c 256,79,80
 250 568 250 568 224 568 c 0,81,82
 199 568 199 568 176 548 c 0,83,84
 153 527 153 527 153 486 c 0,85,86
 153 458 153 458 162 432 c 0,87,88
 171 408 171 408 200 369 c 1,89,90
 249 400 249 400 268 433 c 0,91,92
 288 468 288 468 288 496 c 0,77,78
EndSplineSet
EndChar

StartChar: quotesingle
Encoding: 39 39 10
Width: 500
GlyphClass: 2
Flags: W
LayerCount: 2
Fore
SplineSet
206 679 m 1,0,-1
 293 679 l 1,1,-1
 293 634 l 2,2,3
 293 603 293 603 292 584 c 0,4,5
 292 575 292 575 290.5 555 c 128,-1,6
 289 535 289 535 288 525 c 0,7,8
 285 494 285 494 282 465 c 0,9,10
 278 429 278 429 275 412 c 1,11,-1
 224 412 l 1,12,13
 221 429 221 429 217 465 c 0,14,15
 213 502 213 502 212 525 c 0,16,17
 210 544 210 544 208 584 c 0,18,19
 206 622 206 622 206 635 c 2,20,-1
 206 679 l 1,0,-1
EndSplineSet
EndChar

StartChar: parenleft
Encoding: 40 40 11
Width: 500
GlyphClass: 2
Flags: W
LayerCount: 2
Fore
SplineSet
385 641 m 1,0,-1
 384 641 l 1,1,2
 291 569 291 569 242 475 c 128,-1,3
 193 381 193 381 193 270 c 0,4,5
 193 214 193 214 205 164 c 0,6,7
 215 116 215 116 240 68 c 0,8,9
 261 24 261 24 300 -21 c 0,10,11
 332 -59 332 -59 386 -107 c 1,12,-1
 341 -167 l 1,13,14
 226 -82 226 -82 170 31 c 0,15,16
 113 144 113 144 113 268 c 128,-1,17
 113 392 113 392 170 505 c 0,18,19
 228 619 228 619 341 701 c 1,20,-1
 385 641 l 1,0,-1
EndSplineSet
EndChar

StartChar: parenright
Encoding: 41 41 12
Width: 500
GlyphClass: 2
Flags: W
LayerCount: 2
Fore
SplineSet
114 -107 m 1,0,-1
 115 -107 l 1,1,2
 209 -34 209 -34 258 59 c 0,3,4
 307 153 307 153 307 264 c 0,5,6
 307 318 307 318 296 370 c 0,7,8
 284 420 284 420 260 466 c 0,9,10
 237 510 237 510 200 555 c 0,11,12
 166 594 166 594 113 641 c 1,13,-1
 158 701 l 1,14,15
 274 615 274 615 330 504 c 0,16,17
 386 390 386 390 386 266 c 0,18,19
 386 206 386 206 372 144 c 0,20,21
 357 83 357 83 329 29 c 128,-1,22
 301 -25 301 -25 258 -76 c 0,23,24
 211 -129 211 -129 158 -167 c 1,25,-1
 114 -107 l 1,0,-1
EndSplineSet
EndChar

StartChar: asterisk
Encoding: 42 42 13
Width: 500
GlyphClass: 2
Flags: W
LayerCount: 2
Fore
SplineSet
287 417 m 1,0,1
 296 409 296 409 314.5 391.5 c 128,-1,2
 333 374 333 374 343 365 c 0,3,4
 376 332 376 332 392 306 c 2,5,-1
 396 301 l 1,6,-1
 326 250 l 1,7,-1
 321 256 l 2,8,9
 299 288 299 288 283 322 c 0,10,11
 261 368 261 368 251 390 c 1,12,13
 240 368 240 368 218 322 c 0,14,15
 203 289 203 289 178 256 c 1,16,-1
 173 251 l 1,17,-1
 104 301 l 1,18,-1
 109 307 l 2,19,20
 132 340 132 340 159 365 c 0,21,22
 178 383 178 383 214 417 c 1,23,24
 194 419 194 419 138 428 c 0,25,26
 100 432 100 432 64 445 c 2,27,-1
 57 447 l 1,28,-1
 84 529 l 1,29,-1
 91 526 l 2,30,31
 114 517 114 517 162 495 c 0,32,33
 197 478 197 478 229 460 c 1,34,35
 220 505 220 505 215 535 c 0,36,37
 208 571 208 571 208 612 c 2,38,-1
 208 619 l 1,39,-1
 294 619 l 1,40,-1
 294 612 l 2,41,42
 294 574 294 574 288 535 c 0,43,44
 280 496 280 496 273 460 c 1,45,46
 301 477 301 477 340 496 c 0,47,48
 358 505 358 505 410 525 c 2,49,-1
 417 528 l 1,50,-1
 443 446 l 1,51,-1
 437 444 l 2,52,53
 398 433 398 433 363 427 c 0,54,55
 337 423 337 423 287 417 c 1,0,1
EndSplineSet
EndChar

StartChar: plus
Encoding: 43 43 14
Width: 500
GlyphClass: 2
Flags: W
LayerCount: 2
Fore
SplineSet
46 228 m 1,0,-1
 46 298 l 1,1,-1
 214 298 l 1,2,-1
 214 482 l 1,3,-1
 286 482 l 1,4,-1
 286 298 l 1,5,-1
 455 298 l 1,6,-1
 455 228 l 1,7,-1
 286 228 l 1,8,-1
 286 43 l 1,9,-1
 214 43 l 1,10,-1
 214 228 l 1,11,-1
 46 228 l 1,0,-1
EndSplineSet
EndChar

StartChar: comma
Encoding: 44 44 15
Width: 500
GlyphClass: 2
Flags: W
LayerCount: 2
Fore
SplineSet
163 -144 m 1,0,-1
 149 -79 l 1,1,2
 155 -78 155 -78 167 -75.5 c 128,-1,3
 179 -73 179 -73 185 -71 c 0,4,5
 203 -66 203 -66 217 -59 c 0,6,7
 233 -51 233 -51 244 -40 c 0,8,9
 255 -31 255 -31 263 -9 c 1,10,11
 230 -6 230 -6 217 16 c 0,12,13
 202 37 202 37 202 58 c 0,14,15
 202 98 202 98 225 119 c 0,16,17
 248 139 248 139 276 139 c 0,18,19
 312 139 312 139 332 113 c 0,20,21
 351 87 351 87 351 48 c 0,22,23
 351 21 351 21 340 -12 c 0,24,25
 328 -43 328 -43 305 -71 c 0,26,27
 283 -97 283 -97 246 -118 c 0,28,29
 211 -138 211 -138 163 -144 c 1,0,-1
EndSplineSet
EndChar

StartChar: hyphen
Encoding: 45 45 16
Width: 500
GlyphClass: 2
Flags: W
LayerCount: 2
Fore
SplineSet
140 215 m 1,0,-1
 140 293 l 1,1,-1
 360 293 l 1,2,-1
 360 215 l 1,3,-1
 140 215 l 1,0,-1
EndSplineSet
EndChar

StartChar: period
Encoding: 46 46 17
Width: 500
GlyphClass: 2
Flags: W
LayerCount: 2
Fore
SplineSet
324 64 m 0,0,1
 324 34 324 34 304 11 c 128,-1,2
 284 -12 284 -12 251 -12 c 0,3,4
 217 -12 217 -12 197 11 c 128,-1,5
 177 34 177 34 177 64 c 0,6,7
 177 95 177 95 197 118 c 128,-1,8
 217 141 217 141 251 141 c 0,9,10
 284 141 284 141 304 118 c 128,-1,11
 324 95 324 95 324 64 c 0,0,1
EndSplineSet
EndChar

StartChar: slash
Encoding: 47 47 18
Width: 500
GlyphClass: 2
Flags: W
LayerCount: 2
Fore
SplineSet
431 699 m 1,0,-1
 154 -165 l 1,1,-1
 69 -165 l 1,2,-1
 348 699 l 1,3,-1
 431 699 l 1,0,-1
EndSplineSet
EndChar

StartChar: zero
Encoding: 48 48 19
Width: 500
GlyphClass: 2
Flags: W
LayerCount: 2
Fore
SplineSet
308 321 m 0,0,1
 308 296 308 296 293 276 c 0,2,3
 277 257 277 257 252 257 c 0,4,5
 226 257 226 257 210 276 c 128,-1,6
 194 295 194 295 194 321 c 0,7,8
 194 348 194 348 210 367 c 0,9,10
 227 387 227 387 252 387 c 0,11,12
 276 387 276 387 293 367 c 0,13,14
 308 348 308 348 308 321 c 0,0,1
46 310 m 128,-1,16
 46 466 46 466 100 550 c 0,17,18
 153 633 153 633 250 633 c 0,19,20
 348 633 348 633 401 550 c 0,21,22
 454 465 454 465 454 310 c 0,23,24
 454 154 454 154 401 71 c 0,25,26
 348 -13 348 -13 250 -13 c 256,27,28
 152 -13 152 -13 100 71 c 0,29,15
 46 154 46 154 46 310 c 128,-1,16
370 310 m 0,30,31
 370 360 370 360 364 407 c 0,32,33
 358 449 358 449 344 486 c 0,34,35
 331 519 331 519 307 540 c 0,36,37
 284 560 284 560 250 560 c 128,-1,38
 216 560 216 560 193 540 c 0,39,40
 169 519 169 519 156 486 c 0,41,42
 142 449 142 449 136 407 c 0,43,44
 130 360 130 360 130 310 c 0,45,46
 130 259 130 259 136 214 c 0,47,48
 142 171 142 171 156 134 c 0,49,50
 169 101 169 101 193 80 c 0,51,52
 216 60 216 60 250 60 c 128,-1,53
 284 60 284 60 307 80 c 0,54,55
 331 101 331 101 344 134 c 0,56,57
 358 171 358 171 364 214 c 0,58,59
 370 259 370 259 370 310 c 0,30,31
EndSplineSet
EndChar

StartChar: one
Encoding: 49 49 20
Width: 500
GlyphClass: 2
Flags: W
LayerCount: 2
Fore
SplineSet
101 429 m 1,0,-1
 75 491 l 1,1,2
 126 510 126 510 174 542 c 0,3,4
 222 572 222 572 263 619 c 1,5,-1
 321 619 l 1,6,-1
 321 70 l 1,7,-1
 438 70 l 1,8,-1
 438 0 l 1,9,-1
 105 0 l 1,10,-1
 105 70 l 1,11,-1
 239 70 l 1,12,-1
 239 504 l 1,13,14
 233 498 233 498 213 484 c 0,15,16
 191 470 191 470 179 463 c 0,17,18
 166 456 166 456 140 444 c 0,19,20
 120 435 120 435 101 429 c 1,0,-1
EndSplineSet
EndChar

StartChar: two
Encoding: 50 50 21
Width: 500
GlyphClass: 2
Flags: W
LayerCount: 2
Fore
SplineSet
420 461 m 0,0,1
 420 429 420 429 408 399 c 0,2,3
 394 368 394 368 375 340 c 0,4,5
 356 315 356 315 328 283 c 0,6,7
 311 264 311 264 275 228 c 0,8,9
 253 206 253 206 240 192 c 0,10,11
 214 164 214 164 202 149 c 0,12,13
 183 125 183 125 172 106 c 0,14,15
 160 85 160 85 160 70 c 1,16,-1
 445 70 l 1,17,-1
 445 0 l 1,18,-1
 70 0 l 2,19,20
 69 3 69 3 69 11 c 2,21,-1
 69 21 l 2,22,23
 69 62 69 62 83 99 c 128,-1,24
 97 136 97 136 119 167 c 0,25,26
 147 206 147 206 169 228 c 0,27,28
 187 247 187 247 223 283 c 2,29,-1
 266 326 l 2,30,31
 286 347 286 347 302 368 c 0,32,33
 315 386 315 386 327 412 c 0,34,35
 336 434 336 434 336 458 c 0,36,37
 336 483 336 483 328 504 c 0,38,39
 320 521 320 521 305 536 c 0,40,41
 290 548 290 548 271 554 c 0,42,43
 251 560 251 560 230 560 c 0,44,45
 203 560 203 560 183 553 c 0,46,47
 159 545 159 545 145 536 c 0,48,49
 121 521 121 521 116 517 c 0,50,51
 100 503 100 503 98 501 c 1,52,-1
 57 559 l 1,53,54
 63 566 63 566 81 581 c 0,55,56
 96 593 96 593 120 606 c 0,57,58
 149 619 149 619 170 625 c 0,59,60
 200 633 200 633 230 633 c 0,61,62
 327 633 327 633 374 589 c 0,63,64
 420 544 420 544 420 461 c 0,0,1
EndSplineSet
EndChar

StartChar: three
Encoding: 51 51 22
Width: 500
GlyphClass: 2
Flags: W
LayerCount: 2
Fore
SplineSet
212 60 m 0,0,1
 290 60 290 60 325 92 c 0,2,3
 358 124 358 124 358 176 c 0,4,5
 358 210 358 210 344 233 c 128,-1,6
 330 256 330 256 307 270 c 0,7,8
 283 284 283 284 254 290 c 0,9,10
 224 296 224 296 191 296 c 2,11,-1
 170 296 l 1,12,-1
 170 363 l 1,13,-1
 199 363 l 2,14,15
 218 363 218 363 245 368 c 0,16,17
 270 373 270 373 288 384 c 0,18,19
 306 394 306 394 319 415 c 0,20,21
 331 434 331 434 331 466 c 0,22,23
 331 517 331 517 300 539 c 0,24,25
 268 560 268 560 226 560 c 0,26,27
 183 560 183 560 153 548 c 0,28,29
 117 532 117 532 103 522 c 1,30,-1
 71 585 l 1,31,32
 94 601 94 601 135 617 c 128,-1,33
 176 633 176 633 229 633 c 0,34,35
 278 633 278 633 313 621 c 0,36,37
 350 608 350 608 371 587 c 0,38,39
 394 564 394 564 404 536 c 0,40,41
 415 505 415 505 415 471 c 0,42,43
 415 422 415 422 390 388 c 128,-1,44
 365 354 365 354 324 336 c 1,45,46
 373 322 373 322 407 282 c 0,47,48
 442 241 442 241 442 174 c 0,49,50
 442 133 442 133 429 100 c 0,51,52
 416 66 416 66 388 40 c 0,53,54
 359 14 359 14 317 1 c 0,55,56
 272 -13 272 -13 213 -13 c 0,57,58
 187 -13 187 -13 166 -9 c 0,59,60
 141 -6 141 -6 120 0 c 0,61,62
 104 4 104 4 83 11 c 0,63,64
 70 14 70 14 59 19 c 1,65,-1
 75 90 l 1,66,67
 98 79 98 79 126 71 c 0,68,69
 162 60 162 60 212 60 c 0,0,1
EndSplineSet
EndChar

StartChar: four
Encoding: 52 52 23
Width: 500
GlyphClass: 2
Flags: W
LayerCount: 2
Fore
SplineSet
36 158 m 1,0,-1
 36 214 l 1,1,2
 50 248 50 248 83 306 c 0,3,4
 112 358 112 358 149 414 c 0,5,6
 187 471 187 471 228 523 c 0,7,8
 272 578 272 578 313 619 c 1,9,-1
 393 619 l 1,10,-1
 393 226 l 1,11,-1
 466 226 l 1,12,-1
 466 158 l 1,13,-1
 393 158 l 1,14,-1
 393 0 l 1,15,-1
 313 0 l 1,16,-1
 313 158 l 1,17,-1
 36 158 l 1,0,-1
313 226 m 1,18,-1
 313 521 l 1,19,20
 290 497 290 497 259 457 c 0,21,22
 234 427 234 427 205 384 c 0,23,24
 178 342 178 342 157 305 c 0,25,26
 130 257 130 257 116 226 c 1,27,-1
 313 226 l 1,18,-1
EndSplineSet
EndChar

StartChar: five
Encoding: 53 53 24
Width: 500
GlyphClass: 2
Flags: W
LayerCount: 2
Fore
SplineSet
186 380 m 1,0,1
 319 376 319 376 381 321 c 0,2,3
 442 267 442 267 442 176 c 0,4,5
 442 133 442 133 429 100 c 0,6,7
 415 65 415 65 389 40 c 0,8,9
 360 14 360 14 319 1 c 0,10,11
 274 -13 274 -13 218 -13 c 0,12,13
 191 -13 191 -13 171 -9 c 0,14,15
 153 -7 153 -7 126 -1 c 0,16,17
 110 3 110 3 89 10 c 0,18,19
 74 14 74 14 66 19 c 1,20,-1
 82 90 l 1,21,22
 107 79 107 79 132 71 c 0,23,24
 167 60 167 60 216 60 c 0,25,26
 256 60 256 60 283 69 c 0,27,28
 312 78 312 78 327 94 c 0,29,30
 343 109 343 109 351 129 c 0,31,32
 358 147 358 147 358 171 c 0,33,34
 358 204 358 204 347 232 c 0,35,36
 334 259 334 259 307 276 c 128,-1,37
 280 293 280 293 229 304 c 0,38,39
 179 313 179 313 104 313 c 1,40,41
 107 332 107 332 114 396 c 2,42,-1
 120 471 l 2,43,44
 120 483 120 483 122 507 c 128,-1,45
 124 531 124 531 124 543 c 0,46,47
 126 583 126 583 127 619 c 1,48,-1
 425 619 l 1,49,-1
 425 549 l 1,50,-1
 199 549 l 1,51,52
 198 544 198 544 197.5 531.5 c 128,-1,53
 197 519 197 519 197 513 c 0,54,55
 197 506 197 506 195.5 490 c 128,-1,56
 194 474 194 474 193 465 c 128,-1,57
 192 456 192 456 190.5 440 c 128,-1,58
 189 424 189 424 189 417 c 0,59,60
 187 392 187 392 186 380 c 1,0,1
EndSplineSet
EndChar

StartChar: six
Encoding: 54 54 25
Width: 500
GlyphClass: 2
Flags: W
LayerCount: 2
Fore
SplineSet
54 248 m 0,0,1
 54 339 54 339 79 408 c 0,2,3
 104 479 104 479 149 524 c 0,4,5
 194 570 194 570 259 596 c 0,6,7
 321 620 321 620 406 622 c 1,8,-1
 413 552 l 1,9,10
 356 550 356 550 317 541 c 0,11,12
 276 531 276 531 239 507 c 0,13,14
 204 483 204 483 182 446 c 0,15,16
 159 407 159 407 147 355 c 1,17,18
 170 365 170 365 200 373 c 0,19,20
 227 380 227 380 260 380 c 0,21,22
 313 380 313 380 349 364 c 0,23,24
 384 348 384 348 407 322 c 0,25,26
 428 297 428 297 439 260 c 0,27,28
 449 227 449 227 449 188 c 0,29,30
 449 155 449 155 438 119 c 0,31,32
 428 84 428 84 404 54 c 0,33,34
 382 24 382 24 345 6 c 0,35,36
 310 -13 310 -13 259 -13 c 0,37,38
 156 -13 156 -13 105 56 c 128,-1,39
 54 125 54 125 54 248 c 0,0,1
251 312 m 0,40,41
 218 312 218 312 193 306 c 0,42,43
 166 300 166 300 139 288 c 1,44,45
 138 281 138 281 138 269 c 2,46,-1
 138 248 l 2,47,48
 138 210 138 210 144 175 c 0,49,50
 148 142 148 142 163 114 c 0,51,52
 176 87 176 87 199 72 c 0,53,54
 221 56 221 56 258 56 c 0,55,56
 289 56 289 56 308 69 c 0,57,58
 328 81 328 81 341 100 c 128,-1,59
 354 119 354 119 360 143 c 0,60,61
 365 168 365 168 365 187 c 0,62,63
 365 248 365 248 338 280 c 0,64,65
 309 312 309 312 251 312 c 0,40,41
EndSplineSet
EndChar

StartChar: seven
Encoding: 55 55 26
Width: 500
GlyphClass: 2
Flags: W
LayerCount: 2
Fore
SplineSet
240 0 m 1,0,-1
 155 0 l 1,1,2
 159 69 159 69 181 151 c 0,3,4
 198 222 198 222 230 305 c 0,5,6
 256 372 256 372 294 443 c 0,7,8
 329 507 329 507 363 547 c 1,9,-1
 63 547 l 1,10,-1
 63 619 l 1,11,-1
 455 619 l 1,12,-1
 455 550 l 1,13,14
 425 516 425 516 390 456 c 0,15,16
 356 398 356 398 324 324 c 0,17,18
 290 246 290 246 269 167 c 0,19,20
 246 81 246 81 240 0 c 1,0,-1
EndSplineSet
EndChar

StartChar: eight
Encoding: 56 56 27
Width: 500
GlyphClass: 2
Flags: W
LayerCount: 2
Fore
SplineSet
449 161 m 0,0,1
 449 83 449 83 400 35 c 0,2,3
 350 -13 350 -13 249 -13 c 0,4,5
 189 -13 189 -13 153 3 c 0,6,7
 115 18 115 18 93 43 c 0,8,9
 70 68 70 68 61 97 c 0,10,11
 51 126 51 126 51 156 c 0,12,13
 51 209 51 209 80 250 c 0,14,15
 108 290 108 290 149 316 c 1,16,17
 64 364 64 364 64 463 c 0,18,19
 64 498 64 498 77 528 c 0,20,21
 91 560 91 560 114 582 c 0,22,23
 139 606 139 606 173 619 c 0,24,25
 209 633 209 633 250 633 c 0,26,27
 300 633 300 633 336 618 c 0,28,29
 370 603 370 603 393 580 c 0,30,31
 414 557 414 557 425 528 c 0,32,33
 435 501 435 501 435 472 c 0,34,35
 435 418 435 418 408 381 c 0,36,37
 381 342 381 342 346 319 c 1,38,39
 449 270 449 270 449 161 c 0,0,1
131 155 m 0,40,41
 131 138 131 138 137 122 c 0,42,43
 143 105 143 105 157 89 c 0,44,45
 170 75 170 75 194 65 c 0,46,47
 215 55 215 55 250 55 c 0,48,49
 282 55 282 55 304 64 c 0,50,51
 325 71 325 71 341 87 c 0,52,53
 354 100 354 100 362 119 c 0,54,55
 369 136 369 136 369 155 c 0,56,57
 369 211 369 211 328 243 c 0,58,59
 289 272 289 272 215 289 c 1,60,61
 176 267 176 267 153 234 c 0,62,63
 131 202 131 202 131 155 c 0,40,41
355 472 m 0,64,65
 355 486 355 486 349 502 c 128,-1,66
 343 518 343 518 331 532 c 0,67,68
 320 543 320 543 298 555 c 0,69,70
 278 564 278 564 250 564 c 128,-1,71
 222 564 222 564 202 555 c 256,72,73
 182 546 182 546 169 533 c 256,74,75
 156 520 156 520 151 503 c 0,76,77
 145 486 145 486 145 470 c 0,78,79
 145 428 145 428 175 394 c 0,80,81
 203 359 203 359 272 342 c 1,82,83
 312 366 312 366 333 394 c 0,84,85
 355 423 355 423 355 472 c 0,64,65
EndSplineSet
EndChar

StartChar: nine
Encoding: 57 57 28
Width: 500
GlyphClass: 2
Flags: W
LayerCount: 2
Fore
SplineSet
447 371 m 0,0,1
 447 186 447 186 357 93 c 0,2,3
 268 0 268 0 86 -2 c 1,4,-1
 83 68 l 1,5,6
 195 68 195 68 264 113 c 0,7,8
 332 156 332 156 354 266 c 1,9,10
 328 255 328 255 301 249 c 0,11,12
 274 242 274 242 240 242 c 0,13,14
 186 242 186 242 151 258 c 0,15,16
 116 273 116 273 93 300 c 0,17,18
 72 324 72 324 61 360 c 0,19,20
 51 393 51 393 51 432 c 0,21,22
 51 464 51 464 62 502 c 0,23,24
 72 536 72 536 96 566 c 0,25,26
 118 594 118 594 155 614 c 0,27,28
 190 633 190 633 241 633 c 0,29,30
 343 633 343 633 395 563 c 128,-1,31
 447 493 447 493 447 371 c 0,0,1
249 310 m 0,32,33
 280 310 280 310 309 316 c 0,34,35
 334 322 334 322 362 333 c 1,36,37
 363 340 363 340 363 352 c 2,38,-1
 363 371 l 2,39,40
 363 407 363 407 358 445 c 0,41,42
 351 482 351 482 339 506 c 0,43,44
 326 530 326 530 302 548 c 0,45,46
 278 563 278 563 242 563 c 0,47,48
 212 563 212 563 192 551 c 0,49,50
 172 537 172 537 159 520 c 0,51,52
 146 500 146 500 141 478 c 0,53,54
 135 456 135 456 135 434 c 0,55,56
 135 373 135 373 163 342 c 0,57,58
 190 310 190 310 249 310 c 0,32,33
EndSplineSet
EndChar

StartChar: colon
Encoding: 58 58 29
Width: 500
GlyphClass: 2
Flags: W
LayerCount: 2
Fore
SplineSet
324 64 m 0,0,1
 324 34 324 34 304 11 c 128,-1,2
 284 -12 284 -12 251 -12 c 0,3,4
 217 -12 217 -12 197 11 c 128,-1,5
 177 34 177 34 177 64 c 0,6,7
 177 95 177 95 197 118 c 128,-1,8
 217 141 217 141 251 141 c 0,9,10
 284 141 284 141 304 118 c 128,-1,11
 324 95 324 95 324 64 c 0,0,1
324 387 m 0,12,13
 324 357 324 357 304 334 c 128,-1,14
 284 311 284 311 251 311 c 0,15,16
 217 311 217 311 197 334 c 128,-1,17
 177 357 177 357 177 387 c 0,18,19
 177 418 177 418 197 441 c 128,-1,20
 217 464 217 464 251 464 c 0,21,22
 284 464 284 464 304 441 c 128,-1,23
 324 418 324 418 324 387 c 0,12,13
EndSplineSet
EndChar

StartChar: semicolon
Encoding: 59 59 30
Width: 500
GlyphClass: 2
Flags: W
LayerCount: 2
Fore
SplineSet
139 -144 m 1,0,-1
 125 -79 l 1,1,2
 131 -78 131 -78 143 -75.5 c 128,-1,3
 155 -73 155 -73 161 -71 c 0,4,5
 179 -66 179 -66 193 -59 c 0,6,7
 209 -51 209 -51 220 -40 c 0,8,9
 231 -31 231 -31 239 -9 c 1,10,11
 206 -6 206 -6 193 16 c 0,12,13
 178 37 178 37 178 58 c 0,14,15
 178 98 178 98 201 119 c 0,16,17
 224 139 224 139 252 139 c 0,18,19
 288 139 288 139 308 113 c 0,20,21
 327 87 327 87 327 48 c 0,22,23
 327 21 327 21 316 -12 c 0,24,25
 304 -43 304 -43 281 -71 c 0,26,27
 259 -97 259 -97 222 -118 c 0,28,29
 187 -138 187 -138 139 -144 c 1,0,-1
324 387 m 0,30,31
 324 357 324 357 304 334 c 128,-1,32
 284 311 284 311 251 311 c 0,33,34
 217 311 217 311 197 334 c 128,-1,35
 177 357 177 357 177 387 c 0,36,37
 177 418 177 418 197 441 c 128,-1,38
 217 464 217 464 251 464 c 0,39,40
 284 464 284 464 304 441 c 128,-1,41
 324 418 324 418 324 387 c 0,30,31
EndSplineSet
EndChar

StartChar: less
Encoding: 60 60 31
Width: 500
GlyphClass: 2
Flags: W
LayerCount: 2
Fore
SplineSet
458 385 m 1,0,-1
 141 255 l 1,1,-1
 458 124 l 1,2,-1
 435 55 l 1,3,-1
 49 219 l 1,4,-1
 49 290 l 1,5,-1
 435 454 l 1,6,-1
 458 385 l 1,0,-1
EndSplineSet
EndChar

StartChar: equal
Encoding: 61 61 32
Width: 500
GlyphClass: 2
Flags: W
LayerCount: 2
Fore
SplineSet
46 132 m 1,0,-1
 46 203 l 1,1,-1
 455 203 l 1,2,-1
 455 132 l 1,3,-1
 46 132 l 1,0,-1
46 322 m 1,4,-1
 46 393 l 1,5,-1
 455 393 l 1,6,-1
 455 322 l 1,7,-1
 46 322 l 1,4,-1
EndSplineSet
EndChar

StartChar: greater
Encoding: 62 62 33
Width: 500
GlyphClass: 2
Flags: W
LayerCount: 2
Fore
SplineSet
366 255 m 1,0,-1
 49 385 l 1,1,-1
 72 454 l 1,2,-1
 458 290 l 1,3,-1
 458 219 l 1,4,-1
 72 55 l 1,5,-1
 49 124 l 1,6,-1
 366 255 l 1,0,-1
EndSplineSet
EndChar

StartChar: question
Encoding: 63 63 34
Width: 500
GlyphClass: 2
Flags: W
LayerCount: 2
Fore
SplineSet
256 211 m 1,0,-1
 185 211 l 1,1,-1
 184 230 l 2,2,3
 184 274 184 274 206 305 c 128,-1,4
 228 336 228 336 255 363 c 0,5,6
 280 390 280 390 303 417 c 0,7,8
 325 443 325 443 325 479 c 0,9,10
 325 518 325 518 301 540 c 0,11,12
 276 563 276 563 230 563 c 0,13,14
 200 563 200 563 173 556 c 0,15,16
 139 547 139 547 115 533 c 1,17,-1
 92 597 l 1,18,19
 121 613 121 613 160 624 c 0,20,21
 198 633 198 633 241 633 c 0,22,23
 291 633 291 633 325 619 c 0,24,25
 356 606 356 606 376 584 c 256,26,27
 396 562 396 562 403 536 c 0,28,29
 410 512 410 512 410 486 c 0,30,31
 410 457 410 457 399 433 c 0,32,33
 388 411 388 411 370 388 c 0,34,35
 359 374 359 374 333 348 c 128,-1,36
 307 322 307 322 296 309 c 0,37,38
 277 285 277 285 268 264 c 0,39,40
 256 240 256 240 256 211 c 1,0,-1
228 -12 m 128,-1,42
 200 -12 200 -12 181 7 c 0,43,44
 161 25 161 25 161 56 c 0,45,46
 161 86 161 86 181 106 c 0,47,48
 200 124 200 124 228 124 c 128,-1,49
 256 124 256 124 275 106 c 0,50,51
 295 86 295 86 295 56 c 0,52,53
 295 25 295 25 275 7 c 0,54,41
 256 -12 256 -12 228 -12 c 128,-1,42
EndSplineSet
EndChar

StartChar: at
Encoding: 64 64 35
Width: 500
GlyphClass: 2
Flags: W
LayerCount: 2
Fore
SplineSet
468 408 m 2,0,-1
 468 63 l 1,1,2
 440 52 440 52 407 47 c 0,3,4
 372 42 372 42 350 42 c 0,5,6
 315 42 315 42 285 54 c 0,7,8
 256 64 256 64 233 89 c 128,-1,9
 210 114 210 114 198 151 c 0,10,11
 185 187 185 187 185 240 c 0,12,13
 185 332 185 332 233 382 c 0,14,15
 281 430 281 430 358 430 c 2,16,-1
 374 430 l 2,17,18
 377 430 377 430 382 429 c 128,-1,19
 387 428 387 428 389 428 c 1,20,21
 389 490 389 490 363 528 c 0,22,23
 338 565 338 565 280 565 c 0,24,25
 245 565 245 565 216 548 c 128,-1,26
 187 531 187 531 166 494 c 128,-1,27
 145 457 145 457 133 397 c 0,28,29
 121 338 121 338 121 254 c 0,30,31
 121 192 121 192 133 133 c 128,-1,32
 145 74 145 74 171 30 c 0,33,34
 198 -16 198 -16 236 -40 c 0,35,36
 275 -67 275 -67 330 -67 c 0,37,38
 371 -67 371 -67 413 -54 c 1,39,-1
 421 -121 l 1,40,41
 367 -135 367 -135 323 -135 c 0,42,43
 250 -135 250 -135 197 -102 c 0,44,45
 145 -72 145 -72 109 -17 c 0,46,47
 73 37 73 37 57 104 c 0,48,49
 40 174 40 174 40 243 c 0,50,51
 40 348 40 348 59 420 c 0,52,53
 77 495 77 495 110 541 c 0,54,55
 143 589 143 589 185 611 c 0,56,57
 228 633 228 633 278 633 c 0,58,59
 366 633 366 633 417 574 c 0,60,61
 468 514 468 514 468 408 c 2,0,-1
265 240 m 0,62,63
 265 220 265 220 268 197 c 0,64,65
 269 176 269 176 279 155 c 0,66,67
 288 136 288 136 305 122 c 128,-1,68
 322 108 322 108 350 108 c 0,69,70
 361 108 361 108 368 109 c 0,71,72
 382 111 382 111 389 113 c 1,73,-1
 389 358 l 1,74,75
 384 360 384 360 372 362 c 0,76,77
 366 363 366 363 355 363 c 0,78,79
 312 363 312 363 289 330 c 0,80,81
 265 296 265 296 265 240 c 0,62,63
EndSplineSet
EndChar

StartChar: A
Encoding: 65 65 36
Width: 500
GlyphClass: 2
Flags: W
LayerCount: 2
Fore
SplineSet
491 0 m 1,0,-1
 404 0 l 1,1,-1
 367 162 l 1,2,-1
 129 162 l 1,3,-1
 93 0 l 1,4,-1
 9 0 l 1,5,6
 22 51 22 51 47 143 c 0,7,8
 72 236 72 236 93 301 c 0,9,10
 115 377 115 377 144 464 c 0,11,12
 172 548 172 548 201 619 c 1,13,-1
 303 619 l 1,14,15
 334 539 334 539 359 464 c 0,16,17
 400 331 400 331 409 301 c 0,18,19
 413 285 413 285 429 228.5 c 128,-1,20
 445 172 445 172 453 143 c 0,21,22
 478 51 478 51 491 0 c 1,0,-1
249 547 m 1,23,24
 222 473 222 473 199 401 c 0,25,26
 172 318 172 318 148 230 c 1,27,-1
 348 230 l 1,28,29
 330 301 330 301 299 404 c 0,30,31
 274 480 274 480 249 547 c 1,23,24
EndSplineSet
EndChar

StartChar: B
Encoding: 66 66 37
Width: 500
GlyphClass: 2
Flags: W
LayerCount: 2
Fore
SplineSet
204 -5 m 0,0,1
 182 -5 182 -5 169 -4 c 0,2,3
 162 -4 162 -4 148.5 -3 c 128,-1,4
 135 -2 135 -2 129 -1 c 0,5,6
 101 1 101 1 89 3 c 0,7,8
 65 7 65 7 54 10 c 1,9,-1
 54 610 l 1,10,11
 65 613 65 613 89 617 c 0,12,13
 115 621 115 621 129 622 c 0,14,15
 135 622 135 622 148.5 623 c 128,-1,16
 162 624 162 624 169 624 c 0,17,18
 182 625 182 625 204 625 c 0,19,20
 247 625 247 625 290 617 c 0,21,22
 330 610 330 610 360 590 c 0,23,24
 391 569 391 569 406 540 c 0,25,26
 422 509 422 509 422 463 c 0,27,28
 422 439 422 439 415 421 c 0,29,30
 407 398 407 398 396 382 c 0,31,32
 382 363 382 363 367 351 c 0,33,34
 350 338 350 338 331 330 c 1,35,36
 383 316 383 316 417 279 c 128,-1,37
 451 242 451 242 451 181 c 0,38,39
 451 89 451 89 392 42 c 128,-1,40
 333 -5 333 -5 204 -5 c 0,0,1
220 289 m 2,41,-1
 136 289 l 1,42,-1
 136 68 l 1,43,-1
 159 66 l 2,44,45
 185 64 185 64 210 64 c 0,46,47
 238 64 238 64 270 69 c 0,48,49
 295 73 295 73 320 88 c 0,50,51
 343 102 343 102 356 123 c 0,52,53
 369 145 369 145 369 180 c 0,54,55
 369 211 369 211 357 232 c 0,56,57
 344 252 344 252 324 266 c 0,58,59
 303 278 303 278 276 284 c 0,60,61
 246 289 246 289 220 289 c 2,41,-1
136 552 m 1,62,-1
 136 357 l 1,63,-1
 201 357 l 2,64,65
 223 357 223 357 251 362 c 0,66,67
 274 366 274 366 296 378 c 0,68,69
 316 389 316 389 328 408 c 0,70,71
 340 428 340 428 340 456 c 0,72,73
 340 482 340 482 329 502 c 0,74,75
 319 520 319 520 300 533 c 128,-1,76
 281 546 281 546 259 550 c 0,77,78
 232 555 232 555 209 555 c 2,79,-1
 164 555 l 2,80,81
 143 553 143 553 136 552 c 1,62,-1
EndSplineSet
EndChar

StartChar: C
Encoding: 67 67 38
Width: 500
GlyphClass: 2
Flags: W
LayerCount: 2
Fore
SplineSet
438 94 m 1,0,-1
 460 26 l 1,1,2
 424 6 424 6 386 -3 c 0,3,4
 347 -13 347 -13 301 -13 c 0,5,6
 248 -13 248 -13 200 7 c 128,-1,7
 152 27 152 27 119 66 c 0,8,9
 86 104 86 104 66 166 c 0,10,11
 46 229 46 229 46 310 c 0,12,13
 46 389 46 389 67 449 c 0,14,15
 86 508 86 508 122 550 c 0,16,17
 157 591 157 591 204 612 c 0,18,19
 250 633 250 633 304 633 c 0,20,21
 343 633 343 633 380 623 c 0,22,23
 418 612 418 612 455 590 c 1,24,-1
 431 522 l 1,25,26
 364 560 364 560 307 560 c 0,27,28
 266 560 266 560 234 543 c 0,29,30
 200 525 200 525 178 492 c 0,31,32
 154 458 154 458 143 413 c 0,33,34
 130 368 130 368 130 310 c 0,35,36
 130 247 130 247 144 199 c 128,-1,37
 158 151 158 151 181 121 c 0,38,39
 205 90 205 90 239 75 c 0,40,41
 272 60 272 60 311 60 c 0,42,43
 338 60 338 60 372 68 c 0,44,45
 407 76 407 76 438 94 c 1,0,-1
EndSplineSet
EndChar

StartChar: D
Encoding: 68 68 39
Width: 500
GlyphClass: 2
Flags: W
LayerCount: 2
Fore
SplineSet
460 310 m 0,0,1
 460 224 460 224 439 164 c 0,2,3
 416 103 416 103 380 67 c 0,4,5
 341 28 341 28 291 12 c 0,6,7
 237 -5 237 -5 179 -5 c 0,8,9
 117 -5 117 -5 54 10 c 1,10,-1
 54 610 l 1,11,12
 117 625 117 625 179 625 c 0,13,14
 237 625 237 625 291 608 c 0,15,16
 341 592 341 592 380 553 c 0,17,18
 416 517 416 517 439 455 c 0,19,20
 460 395 460 395 460 310 c 0,0,1
136 551 m 1,21,-1
 136 69 l 1,22,23
 162 66 162 66 187 66 c 0,24,25
 231 66 231 66 267 80 c 128,-1,26
 303 94 303 94 326 123 c 0,27,28
 349 150 349 150 363 199 c 0,29,30
 376 244 376 244 376 310 c 0,31,32
 376 436 376 436 328 495 c 0,33,34
 278 554 278 554 184 554 c 2,35,-1
 159 554 l 2,36,37
 150 553 150 553 136 551 c 1,21,-1
EndSplineSet
EndChar

StartChar: E
Encoding: 69 69 40
Width: 500
GlyphClass: 2
Flags: W
LayerCount: 2
Fore
SplineSet
460 0 m 1,0,-1
 91 0 l 1,1,-1
 91 619 l 1,2,-1
 438 619 l 1,3,-1
 438 549 l 1,4,-1
 173 549 l 1,5,-1
 173 359 l 1,6,-1
 405 359 l 1,7,-1
 405 289 l 1,8,-1
 173 289 l 1,9,-1
 173 70 l 1,10,-1
 460 70 l 1,11,-1
 460 0 l 1,0,-1
EndSplineSet
EndChar

StartChar: F
Encoding: 70 70 41
Width: 500
GlyphClass: 2
Flags: W
LayerCount: 2
Fore
SplineSet
173 0 m 1,0,-1
 91 0 l 1,1,-1
 91 619 l 5,2,-1
 442 619 l 1,3,-1
 442 549 l 1,4,-1
 173 549 l 1,5,-1
 173 356 l 1,6,-1
 410 356 l 1,7,-1
 410 287 l 1,8,-1
 173 287 l 1,9,-1
 173 0 l 1,0,-1
EndSplineSet
EndChar

StartChar: G
Encoding: 71 71 42
Width: 500
GlyphClass: 2
Flags: W
LayerCount: 2
Fore
SplineSet
373 71 m 1,0,-1
 373 305 l 1,1,-1
 455 305 l 1,2,-1
 455 15 l 1,3,4
 442 10 442 10 394 -2 c 0,5,6
 350 -13 350 -13 295 -13 c 0,7,8
 238 -13 238 -13 193 9 c 0,9,10
 147 30 147 30 115 71 c 0,11,12
 82 112 82 112 64 173 c 0,13,14
 46 233 46 233 46 310 c 0,15,16
 46 386 46 386 66 448 c 0,17,18
 85 507 85 507 121 549 c 0,19,20
 156 590 156 590 201 612 c 0,21,22
 248 633 248 633 300 633 c 0,23,24
 332 633 332 633 360 628 c 0,25,26
 386 624 386 624 405 616 c 0,27,28
 428 606 428 606 435 602 c 0,29,30
 447 594 447 594 453 590 c 1,31,-1
 426 521 l 1,32,33
 404 539 404 539 372 551 c 0,34,35
 339 562 339 562 305 562 c 0,36,37
 266 562 266 562 235 544 c 0,38,39
 201 526 201 526 179 493 c 0,40,41
 156 460 156 460 143 414 c 0,42,43
 130 369 130 369 130 310 c 0,44,45
 130 254 130 254 142 208 c 0,46,47
 152 162 152 162 175 129 c 128,-1,48
 198 96 198 96 230 78 c 0,49,50
 261 59 261 59 304 59 c 0,51,52
 334 59 334 59 349 63 c 0,53,54
 369 68 369 68 373 71 c 1,0,-1
EndSplineSet
EndChar

StartChar: H
Encoding: 72 72 43
Width: 500
GlyphClass: 2
Flags: W
LayerCount: 2
Fore
SplineSet
373 358 m 1,0,-1
 373 619 l 1,1,-1
 455 619 l 1,2,-1
 455 0 l 1,3,-1
 373 0 l 1,4,-1
 373 288 l 1,5,-1
 127 288 l 1,6,-1
 127 0 l 1,7,-1
 45 0 l 1,8,-1
 45 619 l 1,9,-1
 127 619 l 1,10,-1
 127 358 l 1,11,-1
 373 358 l 1,0,-1
EndSplineSet
EndChar

StartChar: I
Encoding: 73 73 44
Width: 500
GlyphClass: 2
Flags: W
LayerCount: 2
Fore
SplineSet
411 549 m 1,0,-1
 291 549 l 1,1,-1
 291 70 l 1,2,-1
 411 70 l 1,3,-1
 411 0 l 1,4,-1
 89 0 l 1,5,-1
 89 70 l 1,6,-1
 209 70 l 1,7,-1
 209 549 l 1,8,-1
 89 549 l 1,9,-1
 89 619 l 1,10,-1
 411 619 l 1,11,-1
 411 549 l 1,0,-1
EndSplineSet
EndChar

StartChar: J
Encoding: 74 74 45
Width: 500
GlyphClass: 2
Flags: W
LayerCount: 2
Fore
SplineSet
338 549 m 1,0,-1
 127 549 l 1,1,-1
 127 619 l 1,2,-1
 420 619 l 1,3,-1
 420 199 l 2,4,5
 420 155 420 155 411 116 c 0,6,7
 401 78 401 78 378 49 c 0,8,9
 354 20 354 20 315 4 c 0,10,11
 273 -13 273 -13 215 -13 c 0,12,13
 156 -13 156 -13 114 4 c 0,14,15
 74 20 74 20 54 37 c 1,16,-1
 87 104 l 1,17,18
 106 90 106 90 138 74 c 0,19,20
 169 58 169 58 211 58 c 0,21,22
 276 58 276 58 307 92 c 128,-1,23
 338 126 338 126 338 207 c 2,24,-1
 338 549 l 1,0,-1
EndSplineSet
EndChar

StartChar: K
Encoding: 75 75 46
Width: 500
GlyphClass: 2
Flags: W
LayerCount: 2
Fore
SplineSet
375 619 m 1,0,-1
 470 619 l 1,1,2
 418 541 418 541 363 474 c 0,3,4
 311 410 311 410 236 330 c 1,5,6
 271 300 271 300 304 267 c 0,7,8
 343 228 343 228 375 189 c 0,9,10
 406 150 406 150 440 98 c 0,11,12
 469 51 469 51 491 0 c 1,13,-1
 398 0 l 1,14,15
 372 46 372 46 344 90 c 0,16,17
 316 133 316 133 283 172 c 0,18,19
 243 217 243 217 216 242 c 0,20,21
 184 271 184 271 146 296 c 1,22,-1
 146 0 l 1,23,-1
 64 0 l 1,24,-1
 64 619 l 1,25,-1
 146 619 l 1,26,-1
 146 343 l 1,27,28
 220 420 220 420 271 483 c 0,29,30
 338 567 338 567 375 619 c 1,0,-1
EndSplineSet
EndChar

StartChar: L
Encoding: 76 76 47
Width: 500
GlyphClass: 2
Flags: W
LayerCount: 2
Fore
SplineSet
173 70 m 1,0,-1
 460 70 l 1,1,-1
 460 0 l 1,2,-1
 91 0 l 1,3,-1
 91 619 l 1,4,-1
 173 619 l 1,5,-1
 173 70 l 1,0,-1
EndSplineSet
EndChar

StartChar: M
Encoding: 77 77 48
Width: 500
GlyphClass: 2
Flags: W
LayerCount: 2
Fore
SplineSet
154 619 m 1,0,-1
 251 311 l 1,1,-1
 347 619 l 1,2,-1
 424 619 l 1,3,4
 444 467 444 467 453 320 c 0,5,6
 460 173 460 173 468 0 c 1,7,-1
 388 0 l 1,8,9
 387 19 387 19 386.5 58 c 128,-1,10
 386 97 386 97 386 117 c 0,11,12
 385 138 385 138 384.5 181.5 c 128,-1,13
 384 225 384 225 384 247 c 0,14,15
 382 337 382 337 381 383 c 0,16,17
 380 407 380 407 378.5 452 c 128,-1,18
 377 497 377 497 377 517 c 1,19,-1
 287 235 l 1,20,-1
 215 235 l 1,21,-1
 123 517 l 1,22,23
 122 495 122 495 121.5 450.5 c 128,-1,24
 121 406 121 406 121 384 c 0,25,26
 120 338 120 338 118 248 c 0,27,28
 116 173 116 173 115 117 c 0,29,30
 114 54 114 54 112 0 c 1,31,-1
 32 0 l 1,32,33
 36 105 36 105 39 156 c 0,34,35
 45 262 45 262 49 315 c 0,36,37
 52 370 52 370 62 471 c 0,38,39
 72 569 72 569 78 619 c 1,40,-1
 154 619 l 1,0,-1
EndSplineSet
EndChar

StartChar: N
Encoding: 78 78 49
Width: 500
GlyphClass: 2
Flags: W
LayerCount: 2
Fore
SplineSet
445 0 m 1,0,-1
 361 0 l 1,1,2
 311 118 311 118 297 151 c 0,3,4
 267 218 267 218 240 277 c 0,5,6
 193 373 193 373 185 389 c 0,7,8
 149 459 149 459 130 494 c 1,9,-1
 130 0 l 1,10,-1
 55 0 l 1,11,-1
 55 619 l 1,12,-1
 139 619 l 1,13,14
 185 534 185 534 211 488 c 0,15,16
 246 423 246 423 267 380 c 128,-1,17
 288 337 288 337 316 272 c 0,18,19
 340 216 340 216 370 143 c 1,20,-1
 370 619 l 1,21,-1
 445 619 l 1,22,-1
 445 0 l 1,0,-1
EndSplineSet
EndChar

StartChar: O
Encoding: 79 79 50
Width: 500
GlyphClass: 2
Flags: W
LayerCount: 2
Fore
SplineSet
29 310 m 128,-1,1
 29 394 29 394 45 454 c 128,-1,2
 61 514 61 514 90 555 c 0,3,4
 119 594 119 594 160 614 c 0,5,6
 199 633 199 633 250 633 c 128,-1,7
 301 633 301 633 340 614 c 0,8,9
 381 594 381 594 410 555 c 0,10,11
 441 512 441 512 456 454 c 0,12,13
 472 394 472 394 472 310 c 128,-1,14
 472 226 472 226 456 166 c 0,15,16
 441 108 441 108 410 65 c 0,17,18
 383 27 383 27 340 6 c 0,19,20
 301 -13 301 -13 250 -13 c 128,-1,21
 199 -13 199 -13 160 6 c 0,22,23
 117 27 117 27 90 65 c 0,24,25
 61 106 61 106 45 166 c 128,-1,0
 29 226 29 226 29 310 c 128,-1,1
113 310 m 128,-1,27
 113 188 113 188 146 123 c 128,-1,28
 179 58 179 58 248 58 c 0,29,30
 318 58 318 58 353 123 c 128,-1,31
 388 188 388 188 388 310 c 128,-1,32
 388 432 388 432 353 497 c 128,-1,33
 318 562 318 562 248 562 c 0,34,35
 179 562 179 562 146 497 c 128,-1,26
 113 432 113 432 113 310 c 128,-1,27
EndSplineSet
EndChar

StartChar: P
Encoding: 80 80 51
Width: 500
GlyphClass: 2
Flags: W
LayerCount: 2
Fore
SplineSet
235 625 m 2,0,1
 288 625 288 625 332 611 c 0,2,3
 372 598 372 598 401 572 c 0,4,5
 428 546 428 546 442 511 c 0,6,7
 455 478 455 478 455 433 c 0,8,9
 455 336 455 336 398 284 c 0,10,11
 340 231 340 231 227 231 c 2,12,-1
 155 231 l 1,13,-1
 155 0 l 1,14,-1
 73 0 l 1,15,-1
 73 610 l 1,16,17
 87 614 87 614 113 617 c 0,18,19
 141 621 141 621 156 622 c 2,20,-1
 198 625 l 1,21,-1
 235 625 l 2,0,1
241 554 m 2,22,-1
 191 554 l 2,23,24
 167 552 167 552 155 551 c 1,25,-1
 155 301 l 1,26,-1
 223 301 l 2,27,28
 298 301 298 301 335 331 c 0,29,30
 371 361 371 361 371 430 c 0,31,32
 371 554 371 554 241 554 c 2,22,-1
EndSplineSet
EndChar

StartChar: Q
Encoding: 81 81 52
Width: 500
GlyphClass: 2
Flags: W
LayerCount: 2
Fore
SplineSet
29 309 m 0,0,1
 29 393 29 393 45 453 c 128,-1,2
 61 513 61 513 90 554 c 0,3,4
 119 593 119 593 160 613 c 0,5,6
 199 632 199 632 250 632 c 128,-1,7
 301 632 301 632 340 613 c 0,8,9
 381 593 381 593 410 554 c 0,10,11
 441 511 441 511 456 453 c 0,12,13
 472 393 472 393 472 309 c 0,14,15
 472 232 472 232 459 179 c 0,16,17
 445 121 445 121 422 82 c 0,18,19
 398 41 398 41 364 19 c 0,20,21
 330 -4 330 -4 289 -11 c 1,22,23
 292 -31 292 -31 306 -45 c 0,24,25
 319 -59 319 -59 342 -70 c 0,26,27
 364 -81 364 -81 391 -88 c 0,28,29
 410 -93 410 -93 448 -99 c 1,30,-1
 429 -165 l 1,31,32
 388 -158 388 -158 351 -147 c 0,33,34
 314 -137 314 -137 283 -118 c 0,35,36
 254 -100 254 -100 232 -74 c 0,37,38
 212 -50 212 -50 204 -10 c 1,39,40
 123 7 123 7 76 85 c 0,41,42
 29 162 29 162 29 309 c 0,0,1
113 309 m 128,-1,44
 113 186 113 186 146 122 c 0,45,46
 179 57 179 57 248 57 c 0,47,48
 318 57 318 57 353 122 c 128,-1,49
 388 187 388 187 388 309 c 128,-1,50
 388 431 388 431 353 496 c 128,-1,51
 318 561 318 561 248 561 c 0,52,53
 179 561 179 561 146 496 c 0,54,43
 113 432 113 432 113 309 c 128,-1,44
EndSplineSet
EndChar

StartChar: R
Encoding: 82 82 53
Width: 500
GlyphClass: 2
Flags: W
LayerCount: 2
Fore
SplineSet
431 430 m 0,0,1
 431 374 431 374 401 330 c 0,2,3
 370 286 370 286 320 262 c 1,4,5
 347 218 347 218 354 208 c 0,6,7
 378 166 378 166 391 143 c 0,8,9
 398 130 398 130 411.5 105 c 128,-1,10
 425 80 425 80 429 72 c 0,11,12
 435 59 435 59 446.5 35 c 128,-1,13
 458 11 458 11 463 0 c 1,14,-1
 375 0 l 1,15,16
 347 67 347 67 310 138 c 0,17,18
 273 206 273 206 241 245 c 0,19,20
 237 244 237 244 224 244 c 2,21,-1
 208 244 l 1,22,-1
 138 244 l 1,23,-1
 138 0 l 1,24,-1
 55 0 l 1,25,-1
 55 610 l 1,26,27
 66 613 66 613 90 617 c 0,28,29
 116 621 116 621 130 622 c 0,30,31
 136 622 136 622 150 623 c 128,-1,32
 164 624 164 624 170 624 c 0,33,34
 183 625 183 625 206 625 c 0,35,36
 319 625 319 625 375 576 c 0,37,38
 431 526 431 526 431 430 c 0,0,1
213 554 m 2,39,-1
 169 554 l 2,40,41
 147 553 147 553 138 551 c 1,42,-1
 138 312 l 1,43,-1
 191 312 l 2,44,45
 224 312 224 312 256 317 c 0,46,47
 282 321 282 321 305 336 c 0,48,49
 326 351 326 351 336 373 c 0,50,51
 347 397 347 397 347 434 c 0,52,53
 347 469 347 469 336 493 c 0,54,55
 325 516 325 516 307 530 c 0,56,57
 290 543 290 543 265 549 c 0,58,59
 237 554 237 554 213 554 c 2,39,-1
EndSplineSet
EndChar

StartChar: S
Encoding: 83 83 54
Width: 500
GlyphClass: 2
Flags: W
LayerCount: 2
Fore
SplineSet
234 58 m 0,0,1
 297 58 297 58 330 82 c 128,-1,2
 363 106 363 106 363 154 c 0,3,4
 363 183 363 183 351 204 c 0,5,6
 340 223 340 223 319 240 c 0,7,8
 300 255 300 255 274 267 c 2,9,-1
 223 288 l 2,10,11
 193 300 193 300 166 315 c 0,12,13
 140 329 140 329 117 350 c 0,14,15
 96 368 96 368 83 397 c 0,16,17
 70 423 70 423 70 461 c 0,18,19
 70 542 70 542 121 588 c 0,20,21
 172 633 172 633 263 633 c 0,22,23
 288 633 288 633 313 630 c 0,24,25
 337 626 337 626 358 621 c 0,26,27
 380 616 380 616 396 609 c 0,28,29
 414 601 414 601 422 595 c 1,30,-1
 396 526 l 1,31,32
 378 537 378 537 341 550 c 0,33,34
 306 562 306 562 263 562 c 0,35,36
 217 562 217 562 185 540 c 0,37,38
 152 518 152 518 152 472 c 0,39,40
 152 445 152 445 162 428 c 0,41,42
 170 412 170 412 188 397 c 0,43,44
 209 380 209 380 226 372 c 0,45,46
 267 353 267 353 274 350 c 0,47,48
 330 325 330 325 344 318 c 0,49,50
 378 300 378 300 398 280 c 0,51,52
 419 259 419 259 433 228 c 0,53,54
 445 198 445 198 445 155 c 0,55,56
 445 74 445 74 391 31 c 0,57,58
 335 -13 335 -13 234 -13 c 0,59,60
 204 -13 204 -13 172 -8 c 0,61,62
 138 -3 138 -3 121 3 c 0,63,64
 87 14 87 14 81 17 c 0,65,66
 61 26 61 26 55 30 c 1,67,-1
 80 98 l 1,68,69
 104 85 104 85 139 73 c 0,70,71
 178 58 178 58 234 58 c 0,0,1
EndSplineSet
EndChar

StartChar: T
Encoding: 84 84 55
Width: 500
GlyphClass: 2
Flags: W
LayerCount: 2
Fore
SplineSet
39 619 m 1,0,-1
 461 619 l 1,1,-1
 461 549 l 1,2,-1
 291 549 l 1,3,-1
 291 0 l 1,4,-1
 209 0 l 1,5,-1
 209 549 l 1,6,-1
 39 549 l 1,7,-1
 39 619 l 1,0,-1
EndSplineSet
EndChar

StartChar: U
Encoding: 85 85 56
Width: 500
GlyphClass: 2
Flags: W
LayerCount: 2
Fore
SplineSet
250 -13 m 0,0,1
 193 -13 193 -13 157 3 c 0,2,3
 118 20 118 20 94 48 c 0,4,5
 69 77 69 77 59 119 c 0,6,7
 48 163 48 163 48 213 c 2,8,-1
 48 619 l 1,9,-1
 130 619 l 1,10,-1
 130 222 l 2,11,12
 130 176 130 176 139 144 c 0,13,14
 146 112 146 112 163 93 c 0,15,16
 178 73 178 73 200 66 c 0,17,18
 224 58 224 58 250 58 c 128,-1,19
 276 58 276 58 300 66 c 0,20,21
 321 73 321 73 338 93 c 0,22,23
 353 112 353 112 362 144 c 0,24,25
 370 178 370 178 370 222 c 2,26,-1
 370 619 l 1,27,-1
 452 619 l 1,28,-1
 452 213 l 2,29,30
 452 163 452 163 441 119 c 0,31,32
 431 77 431 77 406 48 c 0,33,34
 382 20 382 20 344 3 c 0,35,36
 306 -13 306 -13 250 -13 c 0,0,1
EndSplineSet
EndChar

StartChar: V
Encoding: 86 86 57
Width: 500
GlyphClass: 2
Flags: W
LayerCount: 2
Fore
SplineSet
13 619 m 1,0,-1
 102 619 l 1,1,2
 116 548 116 548 133 482 c 0,3,4
 152 404 152 404 172 333 c 0,5,6
 190 265 190 265 213 190 c 0,7,8
 235 118 235 118 252 71 c 1,9,10
 257 85 257 85 269.5 125.5 c 128,-1,11
 282 166 282 166 290 191 c 0,12,13
 311 260 311 260 332 335 c 0,14,15
 342 371 342 371 372 483 c 0,16,17
 389 553 389 553 402 619 c 1,18,-1
 488 619 l 1,19,20
 482 588 482 588 462 512 c 0,21,22
 439 425 439 425 419 361 c 0,23,24
 386 251 386 251 364 184 c 0,25,26
 329 80 329 80 300 0 c 1,27,-1
 198 0 l 1,28,29
 166 90 166 90 138 183 c 0,30,31
 116 250 116 250 83 360 c 0,32,33
 63 424 63 424 40 511 c 0,34,35
 22 578 22 578 13 619 c 1,0,-1
EndSplineSet
EndChar

StartChar: W
Encoding: 87 87 58
Width: 500
GlyphClass: 2
Flags: W
LayerCount: 2
Fore
SplineSet
249 308 m 1,0,-1
 153 0 l 1,1,-1
 76 0 l 1,2,3
 67 62 67 62 61 135 c 0,4,5
 54 208 54 208 49 288 c 0,6,7
 45 343 45 343 39 452 c 0,8,9
 36 506 36 506 32 619 c 1,10,-1
 112 619 l 5,11,-1
 123 102 l 1,12,-1
 213 384 l 1,13,-1
 285 384 l 1,14,-1
 377 102 l 1,15,-1
 388 619 l 1,16,-1
 468 619 l 1,17,18
 464 507 464 507 461 451 c 0,19,20
 458 392 458 392 450 288 c 0,21,22
 443 190 443 190 437 135 c 0,23,24
 430 62 430 62 422 0 c 1,25,-1
 346 0 l 1,26,-1
 249 308 l 1,0,-1
EndSplineSet
EndChar

StartChar: X
Encoding: 88 88 59
Width: 500
GlyphClass: 2
Flags: W
LayerCount: 2
Fore
SplineSet
475 0 m 1,0,-1
 384 0 l 1,1,2
 380 11 380 11 358 61 c 0,3,4
 356 65 356 65 326 131 c 0,5,6
 310 167 310 167 290 203 c 0,7,8
 274 232 274 232 249 270 c 1,9,10
 211 209 211 209 179 142 c 0,11,12
 135 48 135 48 114 0 c 1,13,-1
 25 0 l 1,14,15
 56 69 56 69 102 161 c 0,16,17
 144 243 144 243 196 327 c 1,18,-1
 35 619 l 1,19,-1
 126 619 l 1,20,-1
 247 382 l 1,21,-1
 377 619 l 1,22,-1
 466 619 l 1,23,-1
 302 330 l 1,24,25
 350 252 350 252 395 168 c 0,26,27
 442 80 442 80 475 0 c 1,0,-1
EndSplineSet
EndChar

StartChar: Y
Encoding: 89 89 60
Width: 500
GlyphClass: 2
Flags: W
LayerCount: 2
Fore
SplineSet
292 0 m 1,0,-1
 210 0 l 1,1,-1
 210 230 l 1,2,3
 155 319 155 319 100 425 c 0,4,5
 51 518 51 518 13 619 c 1,6,-1
 105 619 l 1,7,8
 131 543 131 543 172 459 c 0,9,10
 223 355 223 355 252 301 c 1,11,12
 295 380 295 380 334 463 c 0,13,14
 373 550 373 550 398 619 c 1,15,-1
 488 619 l 1,16,17
 450 520 450 520 401 428 c 0,18,19
 349 331 349 331 292 232 c 1,20,-1
 292 0 l 1,0,-1
EndSplineSet
EndChar

StartChar: Z
Encoding: 90 90 61
Width: 500
GlyphClass: 2
Flags: W
LayerCount: 2
Fore
SplineSet
447 619 m 1,0,-1
 447 555 l 1,1,2
 414 509 414 509 376 451 c 0,3,4
 331 383 331 383 295 324 c 0,5,6
 241 236 241 236 216 192 c 0,7,8
 168 109 168 109 148 70 c 1,9,-1
 455 70 l 1,10,-1
 455 0 l 1,11,-1
 54 0 l 1,12,-1
 54 54 l 1,13,14
 83 112 83 112 123 184 c 0,15,16
 164 255 164 255 199 314 c 0,17,18
 234 371 234 371 277 438 c 0,19,20
 316 498 316 498 352 549 c 1,21,-1
 69 549 l 1,22,-1
 69 619 l 1,23,-1
 447 619 l 1,0,-1
EndSplineSet
EndChar

StartChar: bracketleft
Encoding: 91 91 62
Width: 500
GlyphClass: 2
Flags: W
LayerCount: 2
Fore
SplineSet
143 -165 m 1,0,-1
 143 699 l 1,1,-1
 382 699 l 1,2,-1
 382 634 l 1,3,-1
 221 634 l 1,4,-1
 221 -100 l 1,5,-1
 382 -100 l 1,6,-1
 382 -165 l 1,7,-1
 143 -165 l 1,0,-1
EndSplineSet
EndChar

StartChar: backslash
Encoding: 92 92 63
Width: 500
GlyphClass: 2
Flags: W
LayerCount: 2
Fore
SplineSet
346 -165 m 1,0,-1
 70 699 l 1,1,-1
 153 699 l 1,2,-1
 430 -165 l 1,3,-1
 346 -165 l 1,0,-1
EndSplineSet
EndChar

StartChar: bracketright
Encoding: 93 93 64
Width: 500
GlyphClass: 2
Flags: W
LayerCount: 2
Fore
SplineSet
357 699 m 1,0,-1
 357 -165 l 1,1,-1
 118 -165 l 1,2,-1
 118 -100 l 1,3,-1
 279 -100 l 1,4,-1
 279 634 l 1,5,-1
 118 634 l 1,6,-1
 118 699 l 1,7,-1
 357 699 l 1,0,-1
EndSplineSet
EndChar

StartChar: asciicircum
Encoding: 94 94 65
Width: 500
GlyphClass: 2
Flags: W
LayerCount: 2
Fore
SplineSet
213 619 m 1,0,-1
 287 619 l 1,1,-1
 460 315 l 1,2,-1
 394 281 l 1,3,-1
 250 533 l 1,4,-1
 106 281 l 1,5,-1
 40 315 l 1,6,-1
 213 619 l 1,0,-1
EndSplineSet
EndChar

StartChar: underscore
Encoding: 95 95 66
Width: 500
GlyphClass: 2
Flags: W
LayerCount: 2
Fore
SplineSet
8 -165 m 1,0,-1
 8 -95 l 1,1,-1
 492 -95 l 1,2,-1
 492 -165 l 1,3,-1
 8 -165 l 1,0,-1
EndSplineSet
EndChar

StartChar: grave
Encoding: 96 96 67
Width: 500
GlyphClass: 2
Flags: W
LayerCount: 2
Fore
SplineSet
163 640 m 1,0,-1
 216 693 l 1,1,-1
 330 555 l 1,2,-1
 288 518 l 1,3,-1
 163 640 l 1,0,-1
EndSplineSet
EndChar

StartChar: a
Encoding: 97 97 68
Width: 500
GlyphClass: 2
Flags: W
LayerCount: 2
Fore
SplineSet
255 59 m 0,0,1
 277 59 277 59 311 61 c 0,2,3
 330 62 330 62 351 66 c 1,4,-1
 351 204 l 1,5,6
 330 210 330 210 313 212 c 0,7,8
 290 215 290 215 265 215 c 0,9,10
 242 215 242 215 220 212 c 0,11,12
 196 207 196 207 181 199 c 0,13,14
 163 189 163 189 153 176 c 0,15,16
 142 160 142 160 142 139 c 0,17,18
 142 93 142 93 173 77 c 0,19,20
 203 59 203 59 255 59 c 0,0,1
247 475 m 0,21,22
 300 475 300 475 335 462 c 0,23,24
 370 448 370 448 392 426 c 256,25,26
 414 404 414 404 423 370 c 0,27,28
 432 337 432 337 432 298 c 2,29,-1
 432 8 l 1,30,31
 426 7 426 7 412 5 c 128,-1,32
 398 3 398 3 384 0.5 c 128,-1,33
 370 -2 370 -2 356 -4 c 0,34,35
 311 -11 311 -11 258 -11 c 0,36,37
 218 -11 218 -11 184 -4 c 0,38,39
 150 2 150 2 120 19 c 0,40,41
 92 36 92 36 75 64 c 0,42,43
 58 93 58 93 58 138 c 0,44,45
 58 178 58 178 76 206 c 0,46,47
 93 234 93 234 121 250 c 0,48,49
 150 268 150 268 184 275 c 0,50,51
 216 282 216 282 255 282 c 0,52,53
 302 282 302 282 351 271 c 1,54,-1
 351 294 l 2,55,56
 351 318 351 318 347 335 c 128,-1,57
 343 352 343 352 330 370 c 0,58,59
 318 385 318 385 296 396 c 0,60,61
 273 405 273 405 240 405 c 0,62,63
 196 405 196 405 165 399 c 0,64,65
 131 393 131 393 116 387 c 1,66,-1
 106 455 l 1,67,68
 124 463 124 463 163 469 c 128,-1,69
 202 475 202 475 247 475 c 0,21,22
EndSplineSet
EndChar

StartChar: b
Encoding: 98 98 69
Width: 500
GlyphClass: 2
Flags: W
LayerCount: 2
Fore
SplineSet
154 693 m 1,0,-1
 154 447 l 1,1,2
 166 454 166 454 198 466 c 0,3,4
 226 475 226 475 261 475 c 0,5,6
 308 475 308 475 345 457 c 256,7,8
 382 439 382 439 408 407 c 0,9,10
 433 376 433 376 447 331 c 0,11,12
 460 288 460 288 460 232 c 0,13,14
 460 175 460 175 444 131 c 128,-1,15
 428 87 428 87 399 55 c 128,-1,16
 370 23 370 23 329 6 c 0,17,18
 287 -11 287 -11 238 -11 c 0,19,20
 186 -11 186 -11 140 -3 c 0,21,22
 105 3 105 3 71 13 c 1,23,-1
 71 679 l 1,24,-1
 154 693 l 1,0,-1
154 366 m 1,25,-1
 154 72 l 1,26,27
 181 66 181 66 192 65 c 0,28,29
 212 62 212 62 228 62 c 0,30,31
 297 62 297 62 336 105 c 0,32,33
 375 147 375 147 375 232 c 0,34,35
 375 271 375 271 368 300 c 0,36,37
 360 333 360 333 346 354 c 0,38,39
 332 374 332 374 308 389 c 0,40,41
 285 402 285 402 251 402 c 0,42,43
 223 402 223 402 195 391 c 0,44,45
 166 378 166 378 154 366 c 1,25,-1
EndSplineSet
EndChar

StartChar: c
Encoding: 99 99 70
Width: 500
GlyphClass: 2
Flags: W
LayerCount: 2
Fore
SplineSet
49 231 m 128,-1,1
 49 292 49 292 69 340 c 0,2,3
 88 384 88 384 124 416 c 0,4,5
 158 445 158 445 206 461 c 0,6,7
 254 475 254 475 305 475 c 0,8,9
 342 475 342 475 373 471 c 128,-1,10
 404 467 404 467 444 454 c 1,11,-1
 425 383 l 1,12,13
 395 394 395 394 365 399 c 0,14,15
 337 402 337 402 309 402 c 0,16,17
 272 402 272 402 241 393 c 0,18,19
 208 382 208 382 186 363 c 0,20,21
 162 342 162 342 148 310 c 0,22,23
 134 276 134 276 134 231 c 128,-1,24
 134 186 134 186 147 156 c 0,25,26
 161 122 161 122 184 104 c 0,27,28
 205 84 205 84 240 73 c 0,29,30
 271 63 271 63 313 63 c 0,31,32
 348 63 348 63 375 67 c 0,33,34
 405 70 405 70 439 82 c 1,35,-1
 451 13 l 1,36,37
 417 0 417 0 380 -5 c 0,38,39
 344 -11 344 -11 302 -11 c 0,40,41
 245 -11 245 -11 200 5 c 0,42,43
 153 20 153 20 120 50 c 0,44,45
 86 80 86 80 68 126 c 0,46,0
 49 170 49 170 49 231 c 128,-1,1
EndSplineSet
EndChar

StartChar: d
Encoding: 100 100 71
Width: 500
GlyphClass: 2
Flags: W
LayerCount: 2
Fore
SplineSet
346 72 m 1,0,-1
 346 366 l 1,1,2
 334 378 334 378 305 391 c 0,3,4
 277 402 277 402 249 402 c 0,5,6
 215 402 215 402 193 389 c 0,7,8
 168 375 168 375 154 354 c 128,-1,9
 140 333 140 333 132 300 c 0,10,11
 125 271 125 271 125 232 c 0,12,13
 125 151 125 151 163 107 c 128,-1,14
 201 63 201 63 262 63 c 0,15,16
 292 63 292 63 315 66 c 0,17,18
 335 69 335 69 346 72 c 1,0,-1
346 447 m 1,19,-1
 346 679 l 1,20,-1
 429 693 l 1,21,-1
 429 13 l 1,22,23
 392 3 392 3 360 -3 c 0,24,25
 315 -11 315 -11 262 -11 c 0,26,27
 213 -11 213 -11 171 6 c 0,28,29
 130 23 130 23 101 55 c 128,-1,30
 72 87 72 87 56 131 c 128,-1,31
 40 175 40 175 40 232 c 0,32,33
 40 284 40 284 54 331 c 0,34,35
 68 376 68 376 93 407 c 0,36,37
 119 439 119 439 156 457 c 0,38,39
 192 475 192 475 239 475 c 0,40,41
 276 475 276 475 304 466 c 0,42,43
 334 457 334 457 346 447 c 1,19,-1
EndSplineSet
EndChar

StartChar: e
Encoding: 101 101 72
Width: 500
GlyphClass: 2
Flags: W
LayerCount: 2
Fore
SplineSet
259 475 m 0,0,1
 353 475 353 475 404 417 c 0,2,3
 455 358 455 358 455 239 c 2,4,-1
 455 210 l 1,5,-1
 123 210 l 1,6,7
 127 139 127 139 171 101 c 0,8,9
 214 63 214 63 290 63 c 0,10,11
 336 63 336 63 365 70 c 128,-1,12
 394 77 394 77 412 85 c 1,13,-1
 423 15 l 1,14,15
 406 7 406 7 369 -2 c 0,16,17
 330 -11 330 -11 281 -11 c 0,18,19
 220 -11 220 -11 176 8 c 0,20,21
 131 25 131 25 100 58 c 0,22,23
 70 89 70 89 55 135 c 0,24,25
 40 178 40 178 40 231 c 0,26,27
 40 294 40 294 59 339 c 0,28,29
 79 386 79 386 109 415 c 0,30,31
 141 445 141 445 179 460 c 0,32,33
 218 475 218 475 259 475 c 0,0,1
125 277 m 1,34,-1
 371 277 l 1,35,36
 371 337 371 337 340 371 c 128,-1,37
 309 405 309 405 258 405 c 0,38,39
 230 405 230 405 206 394 c 128,-1,40
 182 383 182 383 165 365 c 0,41,42
 149 348 149 348 138 324 c 0,43,44
 128 303 128 303 125 277 c 1,34,-1
EndSplineSet
EndChar

StartChar: f
Encoding: 102 102 73
Width: 500
GlyphClass: 2
Flags: W
LayerCount: 2
Fore
SplineSet
243 0 m 1,0,-1
 161 0 l 1,1,-1
 161 395 l 1,2,-1
 63 395 l 1,3,-1
 63 464 l 1,4,-1
 161 464 l 1,5,-1
 161 506 l 2,6,7
 161 560 161 560 176 596 c 0,8,9
 191 631 191 631 216 653 c 0,10,11
 239 675 239 675 273 684 c 0,12,13
 304 693 304 693 341 693 c 0,14,15
 374 693 374 693 414 685 c 0,16,17
 443 679 443 679 482 666 c 1,18,-1
 467 595 l 1,19,20
 440 608 440 608 412 614 c 0,21,22
 377 622 377 622 345 622 c 0,23,24
 326 622 326 622 306 617 c 0,25,26
 286 611 286 611 273 598 c 0,27,28
 258 583 258 583 251 562 c 0,29,30
 243 538 243 538 243 505 c 2,31,-1
 243 464 l 1,32,-1
 430 464 l 1,33,-1
 430 395 l 1,34,-1
 243 395 l 1,35,-1
 243 0 l 1,0,-1
EndSplineSet
EndChar

StartChar: g
Encoding: 103 103 74
Width: 500
GlyphClass: 2
Flags: W
LayerCount: 2
Fore
SplineSet
346 27 m 2,0,-1
 346 43 l 1,1,2
 332 35 332 35 303 26 c 128,-1,3
 274 17 274 17 236 17 c 0,4,5
 196 17 196 17 160 31 c 0,6,7
 122 45 122 45 98 72 c 0,8,9
 71 99 71 99 56 142 c 0,10,11
 40 183 40 183 40 242 c 0,12,13
 40 292 40 292 55 336 c 0,14,15
 68 377 68 377 97 409 c 0,16,17
 124 440 124 440 164 458 c 0,18,19
 206 475 206 475 255 475 c 0,20,21
 312 475 312 475 358 467 c 0,22,23
 392 460 392 460 429 450 c 1,24,-1
 429 36 l 2,25,26
 429 -72 429 -72 375 -120 c 0,27,28
 320 -168 320 -168 210 -168 c 0,29,30
 163 -168 163 -168 129 -161 c 0,31,32
 88 -153 88 -153 64 -144 c 1,33,-1
 79 -71 l 1,34,35
 104 -82 104 -82 139 -89 c 0,36,37
 170 -96 170 -96 212 -96 c 0,38,39
 283 -96 283 -96 315 -67 c 0,40,41
 346 -39 346 -39 346 27 c 2,0,-1
346 120 m 1,42,-1
 346 391 l 1,43,44
 340 393 340 393 313 399 c 0,45,46
 292 402 292 402 256 402 c 0,47,48
 192 402 192 402 159 358 c 0,49,50
 125 315 125 315 125 241 c 0,51,52
 125 200 125 200 135 173 c 0,53,54
 144 145 144 145 161 126 c 0,55,56
 178 106 178 106 198 99 c 0,57,58
 219 90 219 90 243 90 c 0,59,60
 274 90 274 90 302 99 c 128,-1,61
 330 108 330 108 346 120 c 1,42,-1
EndSplineSet
EndChar

StartChar: h
Encoding: 104 104 75
Width: 500
GlyphClass: 2
Flags: W
LayerCount: 2
Fore
SplineSet
154 0 m 1,0,-1
 71 0 l 1,1,-1
 71 679 l 1,2,-1
 154 693 l 1,3,-1
 154 457 l 1,4,5
 178 466 178 466 199 470 c 0,6,7
 222 474 222 474 248 474 c 0,8,9
 301 474 301 474 337 459 c 0,10,11
 373 442 373 442 393 415 c 0,12,13
 414 386 414 386 423 348 c 0,14,15
 432 309 432 309 432 262 c 2,16,-1
 432 0 l 1,17,-1
 350 0 l 1,18,-1
 350 244 l 2,19,20
 350 330 350 330 326 366 c 0,21,22
 302 401 302 401 240 401 c 0,23,24
 217 401 217 401 190 396 c 0,25,26
 167 391 167 391 154 385 c 1,27,-1
 154 0 l 1,0,-1
EndSplineSet
EndChar

StartChar: i
Encoding: 105 105 76
Width: 500
GlyphClass: 2
Flags: W
LayerCount: 2
Fore
SplineSet
209 536 m 0,0,1
 184 536 184 536 164 554 c 0,2,3
 145 572 145 572 145 603 c 128,-1,4
 145 634 145 634 164 652 c 0,5,6
 184 670 184 670 209 670 c 0,7,8
 236 670 236 670 255 652 c 0,9,10
 273 634 273 634 273 603 c 128,-1,11
 273 572 273 572 255 554 c 0,12,13
 235 536 235 536 209 536 c 0,0,1
188 179 m 2,14,-1
 188 395 l 1,15,-1
 54 395 l 1,16,-1
 54 464 l 1,17,-1
 270 464 l 1,18,-1
 270 179 l 2,19,20
 270 109 270 109 289 87 c 0,21,22
 308 63 308 63 346 63 c 0,23,24
 376 63 376 63 400 70 c 0,25,26
 425 78 425 78 438 85 c 1,27,-1
 450 15 l 2,28,29
 448 14 448 14 442 11.5 c 128,-1,30
 436 9 436 9 433 8 c 0,31,32
 426 5 426 5 408 -1 c 0,33,34
 398 -4 398 -4 376 -8 c 0,35,36
 358 -11 358 -11 339 -11 c 0,37,38
 294 -11 294 -11 266 1 c 0,39,40
 236 14 236 14 220 37 c 0,41,42
 203 60 203 60 195 97 c 0,43,44
 188 129 188 129 188 179 c 2,14,-1
EndSplineSet
EndChar

StartChar: j
Encoding: 106 106 77
Width: 500
GlyphClass: 2
Flags: W
LayerCount: 2
Fore
SplineSet
308 536 m 256,0,1
 282 536 282 536 263 554 c 256,2,3
 244 572 244 572 244 603 c 128,-1,4
 244 634 244 634 263 652 c 256,5,6
 282 670 282 670 308 670 c 256,7,8
 334 670 334 670 354 652 c 0,9,10
 372 634 372 634 372 603 c 128,-1,11
 372 572 372 572 354 554 c 0,12,13
 334 536 334 536 308 536 c 256,0,1
302 395 m 1,14,-1
 114 395 l 1,15,-1
 114 464 l 1,16,-1
 384 464 l 1,17,-1
 384 5 l 2,18,19
 384 -44 384 -44 371 -76 c 0,20,21
 358 -110 358 -110 335 -131 c 0,22,23
 313 -152 313 -152 283 -161 c 128,-1,24
 253 -170 253 -170 220 -170 c 0,25,26
 184 -170 184 -170 144 -162 c 0,27,28
 109 -155 109 -155 71 -137 c 1,29,-1
 96 -67 l 1,30,31
 125 -80 125 -80 152 -87 c 0,32,33
 182 -96 182 -96 210 -96 c 0,34,35
 250 -96 250 -96 276 -75 c 0,36,37
 302 -55 302 -55 302 4 c 2,38,-1
 302 395 l 1,14,-1
EndSplineSet
EndChar

StartChar: k
Encoding: 107 107 78
Width: 500
GlyphClass: 2
Flags: W
LayerCount: 2
Fore
SplineSet
238 255 m 1,0,1
 259 240 259 240 299 205 c 0,2,3
 322 184 322 184 367 139 c 0,4,5
 397 108 397 108 430 68 c 0,6,7
 462 28 462 28 478 0 c 1,8,-1
 380 0 l 1,9,10
 359 34 359 34 333 64 c 0,11,12
 295 106 295 106 274 126 c 0,13,14
 246 153 246 153 211 181 c 0,15,16
 180 206 180 206 154 223 c 1,17,-1
 154 0 l 1,18,-1
 71 0 l 1,19,-1
 71 679 l 1,20,-1
 154 693 l 1,21,-1
 154 270 l 1,22,23
 173 286 173 286 209.5 318 c 128,-1,24
 246 350 246 350 264 366 c 0,25,26
 318 411 318 411 363 464 c 1,27,-1
 460 464 l 1,28,29
 415 411 415 411 357 359 c 0,30,31
 253 268 253 268 238 255 c 1,0,1
EndSplineSet
EndChar

StartChar: l
Encoding: 108 108 79
Width: 500
GlyphClass: 2
Flags: W
LayerCount: 2
Fore
SplineSet
338 -11 m 0,0,1
 294 -11 294 -11 265 1 c 0,2,3
 235 14 235 14 219 37 c 0,4,5
 202 61 202 61 195 97 c 0,6,7
 188 129 188 129 188 179 c 2,8,-1
 188 618 l 1,9,-1
 54 618 l 1,10,-1
 54 688 l 1,11,-1
 270 688 l 1,12,-1
 270 179 l 2,13,14
 270 147 270 147 275 122 c 0,15,16
 280 99 280 99 289 87 c 0,17,18
 299 72 299 72 312 68 c 0,19,20
 327 63 327 63 345 63 c 0,21,22
 375 63 375 63 399 70 c 0,23,24
 424 78 424 78 438 85 c 1,25,-1
 450 15 l 2,26,27
 448 14 448 14 442 11.5 c 128,-1,28
 436 9 436 9 433 8 c 0,29,30
 424 4 424 4 407 -1 c 0,31,32
 397 -4 397 -4 375 -8 c 0,33,34
 357 -11 357 -11 338 -11 c 0,0,1
EndSplineSet
EndChar

StartChar: m
Encoding: 109 109 80
Width: 500
GlyphClass: 2
Flags: W
LayerCount: 2
Fore
SplineSet
41 0 m 1,0,-1
 41 451 l 1,1,2
 102 474 102 474 154 474 c 0,3,4
 182 474 182 474 209 466 c 0,5,6
 234 457 234 457 252 439 c 1,7,8
 296 474 296 474 344 474 c 0,9,10
 368 474 368 474 390 465 c 128,-1,11
 412 456 412 456 428 438 c 0,12,13
 443 422 443 422 454 393 c 0,14,15
 464 367 464 367 464 330 c 2,16,-1
 464 0 l 1,17,-1
 389 0 l 1,18,-1
 389 332 l 2,19,20
 389 368 389 368 373 387 c 128,-1,21
 357 406 357 406 333 406 c 0,22,23
 322 406 322 406 308 400 c 128,-1,24
 294 394 294 394 284 381 c 1,25,26
 290 358 290 358 290 330 c 2,27,-1
 290 179 l 1,28,-1
 215 179 l 1,29,-1
 215 331 l 2,30,31
 215 366 215 366 204 386 c 128,-1,32
 193 406 193 406 161 406 c 0,33,34
 142 406 142 406 116 397 c 1,35,-1
 116 0 l 1,36,-1
 41 0 l 1,0,-1
EndSplineSet
EndChar

StartChar: n
Encoding: 110 110 81
Width: 500
GlyphClass: 2
Flags: W
LayerCount: 2
Fore
SplineSet
71 0 m 1,0,-1
 71 451 l 1,1,2
 121 463 121 463 161 468 c 0,3,4
 204 474 204 474 244 474 c 0,5,6
 337 474 337 474 385 426 c 0,7,8
 432 377 432 377 432 272 c 2,9,-1
 432 0 l 1,10,-1
 350 0 l 1,11,-1
 350 257 l 2,12,13
 350 300 350 300 342 330 c 0,14,15
 335 355 335 355 320 374 c 0,16,17
 305 389 305 389 285 395 c 0,18,19
 264 401 264 401 240 401 c 0,20,21
 228 401 228 401 198 399 c 0,22,23
 168 395 168 395 154 392 c 1,24,-1
 154 0 l 1,25,-1
 71 0 l 1,0,-1
EndSplineSet
EndChar

StartChar: o
Encoding: 111 111 82
Width: 500
GlyphClass: 2
Flags: W
LayerCount: 2
Fore
SplineSet
460 232 m 0,0,1
 460 176 460 176 445 133 c 0,2,3
 428 85 428 85 401 56 c 0,4,5
 371 23 371 23 334 7 c 0,6,7
 295 -11 295 -11 249 -11 c 0,8,9
 204 -11 204 -11 166 7 c 0,10,11
 129 23 129 23 99 56 c 0,12,13
 72 86 72 86 56 133 c 0,14,15
 40 175 40 175 40 232 c 0,16,17
 40 288 40 288 56 332 c 0,18,19
 72 379 72 379 99 409 c 0,20,21
 127 440 127 440 166 458 c 0,22,23
 205 475 205 475 249 475 c 0,24,25
 294 475 294 475 334 458 c 0,26,27
 373 440 373 440 401 409 c 0,28,29
 428 380 428 380 445 332 c 0,30,31
 460 287 460 287 460 232 c 0,0,1
375 232 m 128,-1,33
 375 311 375 311 341 357 c 0,34,35
 307 402 307 402 249 402 c 0,36,37
 192 402 192 402 159 357 c 0,38,39
 125 311 125 311 125 232 c 128,-1,40
 125 153 125 153 159 109 c 0,41,42
 192 63 192 63 249 63 c 0,43,44
 307 63 307 63 341 109 c 0,45,32
 375 153 375 153 375 232 c 128,-1,33
EndSplineSet
EndChar

StartChar: p
Encoding: 112 112 83
Width: 500
GlyphClass: 2
Flags: W
LayerCount: 2
Fore
SplineSet
460 231 m 0,0,1
 460 176 460 176 447 134 c 0,2,3
 433 88 433 88 408 57 c 0,4,5
 382 25 382 25 345 7 c 256,6,7
 308 -11 308 -11 261 -11 c 0,8,9
 224 -11 224 -11 196 -2 c 0,10,11
 169 7 169 7 154 18 c 1,12,-1
 154 -165 l 1,13,-1
 71 -165 l 1,14,-1
 71 450 l 1,15,16
 108 460 108 460 141 466 c 0,17,18
 186 474 186 474 238 474 c 0,19,20
 287 474 287 474 329 457 c 128,-1,21
 371 440 371 440 399 409 c 128,-1,22
 427 378 427 378 444 332 c 0,23,24
 460 288 460 288 460 231 c 0,0,1
375 231 m 0,25,26
 375 311 375 311 337 357 c 0,27,28
 299 401 299 401 238 401 c 0,29,30
 204 401 204 401 185 398 c 0,31,32
 162 394 162 394 154 391 c 1,33,-1
 154 98 l 1,34,35
 167 85 167 85 195 74 c 128,-1,36
 223 63 223 63 251 63 c 0,37,38
 285 63 285 63 308 76 c 0,39,40
 331 90 331 90 346 112 c 128,-1,41
 361 134 361 134 368 165 c 0,42,43
 375 193 375 193 375 231 c 0,25,26
EndSplineSet
EndChar

StartChar: q
Encoding: 113 113 84
Width: 500
GlyphClass: 2
Flags: W
LayerCount: 2
Fore
SplineSet
125 231 m 0,0,1
 125 197 125 197 133 165 c 0,2,3
 140 134 140 134 155 112 c 256,4,5
 170 90 170 90 194 76 c 0,6,7
 216 63 216 63 250 63 c 0,8,9
 278 63 278 63 306 74 c 128,-1,10
 334 85 334 85 347 98 c 1,11,-1
 347 391 l 1,12,13
 338 395 338 395 317 398 c 0,14,15
 298 401 298 401 263 401 c 0,16,17
 202 401 202 401 164 357 c 0,18,19
 125 312 125 312 125 231 c 0,0,1
40 231 m 0,20,21
 40 288 40 288 56 332 c 0,22,23
 73 378 73 378 101 409 c 128,-1,24
 129 440 129 440 172 457 c 0,25,26
 214 474 214 474 263 474 c 0,27,28
 314 474 314 474 359 466 c 0,29,30
 394 458 394 458 429 449 c 1,31,-1
 429 -165 l 1,32,-1
 346 -165 l 1,33,-1
 346 18 l 1,34,35
 332 8 332 8 303 -1 c 0,36,37
 276 -11 276 -11 240 -11 c 0,38,39
 194 -11 194 -11 156 7 c 0,40,41
 121 24 121 24 94 57 c 128,-1,42
 67 90 67 90 54 134 c 0,43,44
 40 179 40 179 40 231 c 0,20,21
EndSplineSet
EndChar

StartChar: r
Encoding: 114 114 85
Width: 500
GlyphClass: 2
Flags: W
LayerCount: 2
Fore
SplineSet
189 0 m 1,0,-1
 107 0 l 1,1,-1
 107 439 l 1,2,3
 210 474 210 474 313 474 c 0,4,5
 336 474 336 474 374 472 c 0,6,7
 400 469 400 469 438 461 c 1,8,-1
 423 388 l 1,9,10
 392 397 392 397 367 400 c 0,11,12
 333 402 333 402 313 402 c 0,13,14
 254 402 254 402 189 385 c 1,15,-1
 189 0 l 1,0,-1
EndSplineSet
EndChar

StartChar: s
Encoding: 115 115 86
Width: 500
GlyphClass: 2
Flags: W
LayerCount: 2
Fore
SplineSet
351 116 m 0,0,1
 351 140 351 140 331 157 c 0,2,3
 311 172 311 172 280 185 c 0,4,5
 245 198 245 198 213 209 c 0,6,7
 181 218 181 218 147 237 c 0,8,9
 116 254 116 254 96 279 c 0,10,11
 75 304 75 304 75 344 c 0,12,13
 75 401 75 401 121 438 c 0,14,15
 165 475 165 475 263 475 c 0,16,17
 297 475 297 475 342 470 c 0,18,19
 382 464 382 464 411 455 c 1,20,-1
 396 381 l 1,21,22
 390 385 390 385 374 390 c 2,23,-1
 342 398 l 2,24,25
 319 402 319 402 304 403 c 0,26,27
 276 405 276 405 264 405 c 0,28,29
 156 405 156 405 156 346 c 0,30,31
 156 324 156 324 177 311 c 0,32,33
 196 296 196 296 228 284 c 0,34,35
 263 271 263 271 295 260 c 0,36,37
 332 246 332 246 362 229 c 0,38,39
 393 211 393 211 414 186 c 0,40,41
 434 160 434 160 434 121 c 0,42,43
 434 58 434 58 385 24 c 0,44,45
 335 -11 335 -11 230 -11 c 0,46,47
 185 -11 185 -11 142 -3 c 0,48,49
 102 4 102 4 66 21 c 1,50,-1
 82 96 l 1,51,52
 111 82 111 82 156 70 c 0,53,54
 195 59 195 59 238 59 c 0,55,56
 351 59 351 59 351 116 c 0,0,1
EndSplineSet
EndChar

StartChar: t
Encoding: 116 116 87
Width: 500
GlyphClass: 2
Flags: W
LayerCount: 2
Fore
SplineSet
243 608 m 1,0,-1
 243 464 l 1,1,-1
 439 464 l 1,2,-1
 439 395 l 1,3,-1
 243 395 l 1,4,-1
 243 179 l 2,5,6
 243 147 243 147 248 122 c 0,7,8
 252 102 252 102 265 87 c 0,9,10
 276 72 276 72 294 68 c 0,11,12
 314 63 314 63 338 63 c 0,13,14
 374 63 374 63 396 69 c 0,15,16
 420 75 420 75 438 85 c 1,17,-1
 450 15 l 1,18,19
 444 12 444 12 406 -1 c 0,20,21
 376 -11 376 -11 330 -11 c 0,22,23
 278 -11 278 -11 245 1 c 128,-1,24
 212 13 212 13 194 37 c 0,25,26
 176 59 176 59 168 97 c 0,27,28
 161 129 161 129 161 179 c 2,29,-1
 161 395 l 1,30,-1
 63 395 l 1,31,-1
 63 464 l 1,32,-1
 161 464 l 1,33,-1
 161 594 l 1,34,-1
 243 608 l 1,0,-1
EndSplineSet
EndChar

StartChar: u
Encoding: 117 117 88
Width: 500
GlyphClass: 2
Flags: W
LayerCount: 2
Fore
SplineSet
429 464 m 1,0,-1
 429 13 l 1,1,2
 403 6 403 6 358 -2 c 0,3,4
 310 -10 310 -10 253 -10 c 0,5,6
 198 -10 198 -10 165 6 c 0,7,8
 131 21 131 21 108 50 c 0,9,10
 86 78 86 78 77 117 c 128,-1,11
 68 156 68 156 68 203 c 2,12,-1
 68 464 l 1,13,-1
 150 464 l 1,14,-1
 150 221 l 2,15,16
 150 136 150 136 176 99 c 0,17,18
 202 63 202 63 261 63 c 0,19,20
 279 63 279 63 288 64 c 128,-1,21
 297 65 297 65 313 67 c 0,22,23
 325 68 325 68 334 70 c 0,24,25
 336 70 336 70 339 70.5 c 128,-1,26
 342 71 342 71 343.5 71.5 c 128,-1,27
 345 72 345 72 346 72 c 1,28,-1
 346 464 l 1,29,-1
 429 464 l 1,0,-1
EndSplineSet
EndChar

StartChar: v
Encoding: 118 118 89
Width: 500
GlyphClass: 2
Flags: W
LayerCount: 2
Fore
SplineSet
384 464 m 1,0,-1
 470 464 l 1,1,2
 452 401 452 401 429 337 c 0,3,4
 408 280 408 280 382 215 c 0,5,6
 355 148 355 148 333 101 c 0,7,8
 298 26 298 26 285 0 c 1,9,-1
 210 0 l 1,10,11
 160 102 160 102 115 214 c 0,12,13
 68 331 68 331 30 464 c 1,14,-1
 120 464 l 1,15,16
 134 412 134 412 148 371 c 0,17,18
 155 349 155 349 180 273 c 0,19,20
 193 234 193 234 215 179 c 0,21,22
 227 144 227 144 249 97 c 1,23,24
 268 138 268 138 285 179 c 0,25,26
 305 229 305 229 321 273 c 0,27,28
 349 350 349 350 356 371 c 0,29,30
 370 412 370 412 384 464 c 1,0,-1
EndSplineSet
EndChar

StartChar: w
Encoding: 119 119 90
Width: 500
GlyphClass: 2
Flags: W
LayerCount: 2
Fore
SplineSet
405 0 m 1,0,-1
 343 0 l 1,1,2
 322 48 322 48 317 62 c 0,3,4
 314 71 314 71 307 90 c 128,-1,5
 300 109 300 109 296 118 c 0,6,7
 282 156 282 156 275 177 c 0,8,9
 272 186 272 186 263.5 209 c 128,-1,10
 255 232 255 232 250 246 c 1,11,12
 245 232 245 232 236.5 209 c 128,-1,13
 228 186 228 186 225 177 c 0,14,15
 218 156 218 156 204 118 c 0,16,17
 201 109 201 109 193.5 90.5 c 128,-1,18
 186 72 186 72 182 62 c 0,19,20
 178 54 178 54 174 44 c 128,-1,21
 170 34 170 34 164.5 21 c 128,-1,22
 159 8 159 8 155 0 c 1,23,-1
 93 0 l 1,24,25
 66 118 66 118 47 244 c 0,26,27
 29 358 29 358 19 464 c 1,28,-1
 97 464 l 1,29,30
 101 415 101 415 104 388 c 0,31,32
 106 363 106 363 112 309 c 0,33,34
 117 267 117 267 124 220 c 0,35,36
 126 205 126 205 130.5 169 c 128,-1,37
 135 133 135 133 138 112 c 1,38,39
 156 156 156 156 165 182 c 0,40,41
 167 189 167 189 171.5 200.5 c 128,-1,42
 176 212 176 212 179 221.5 c 128,-1,43
 182 231 182 231 185 239 c 0,44,45
 197 275 197 275 203 294 c 0,46,47
 210 322 210 322 221 357 c 1,48,-1
 283 357 l 1,49,50
 294 322 294 322 301 294 c 0,51,52
 306 275 306 275 318 239 c 0,53,54
 320 233 320 233 323.5 221.5 c 128,-1,55
 327 210 327 210 330.5 200.5 c 128,-1,56
 334 191 334 191 337 182 c 0,57,58
 353 138 353 138 362 113 c 1,59,60
 365 133 365 133 370.5 167 c 128,-1,61
 376 201 376 201 378 215 c 0,62,63
 385 261 385 261 390 304 c 0,64,65
 396 358 396 358 399 384 c 128,-1,66
 402 410 402 410 406 464 c 1,67,-1
 481 464 l 1,68,69
 476 413 476 413 469 357 c 0,70,71
 458 277 458 277 452 240 c 0,72,73
 438 160 438 160 430 119 c 0,74,75
 415 43 415 43 405 0 c 1,0,-1
EndSplineSet
EndChar

StartChar: x
Encoding: 120 120 91
Width: 500
GlyphClass: 2
Flags: W
LayerCount: 2
Fore
SplineSet
472 0 m 1,0,-1
 380 0 l 1,1,2
 363 31 363 31 356 44 c 0,3,4
 346 60 346 60 324 94 c 0,5,6
 321 99 321 99 289 144 c 0,7,8
 276 161 276 161 252 191 c 1,9,10
 223 154 223 154 214 143 c 0,11,12
 179 97 179 97 176 93 c 0,13,14
 170 85 170 85 141 43 c 0,15,16
 123 17 123 17 114 0 c 1,17,-1
 29 0 l 1,18,19
 61 58 61 58 110 124 c 0,20,21
 156 187 156 187 203 244 c 1,22,-1
 36 464 l 1,23,-1
 129 464 l 1,24,-1
 254 302 l 1,25,-1
 369 464 l 1,26,-1
 457 464 l 1,27,-1
 304 249 l 1,28,29
 341 201 341 201 395 126 c 0,30,31
 442 59 442 59 472 0 c 1,0,-1
EndSplineSet
EndChar

StartChar: y
Encoding: 121 121 92
Width: 500
GlyphClass: 2
Flags: W
LayerCount: 2
Fore
SplineSet
36 -154 m 1,0,-1
 51 -87 l 1,1,2
 61 -92 61 -92 77 -95 c 0,3,4
 94 -98 94 -98 107 -98 c 0,5,6
 156 -98 156 -98 184 -76 c 128,-1,7
 212 -54 212 -54 234 -6 c 1,8,9
 178 100 178 100 129 222 c 0,10,11
 79 345 79 345 48 464 c 1,12,-1
 138 464 l 1,13,14
 146 433 146 433 162 378 c 0,15,16
 176 332 176 332 192 282 c 0,17,18
 201 256 201 256 229 184 c 0,19,20
 253 123 253 123 270 89 c 1,21,22
 287 138 287 138 300 180 c 0,23,24
 318 240 318 240 326 271 c 0,25,26
 338 316 338 316 350 364 c 0,27,28
 354 379 354 379 362 412.5 c 128,-1,29
 370 446 370 446 375 464 c 1,30,-1
 461 464 l 1,31,32
 431 340 431 340 390 212 c 0,33,34
 346 81 346 81 305 -14 c 0,35,36
 288 -54 288 -54 269 -83 c 0,37,38
 251 -109 251 -109 226 -131 c 0,39,40
 205 -149 205 -149 174 -159 c 0,41,42
 146 -168 146 -168 108 -168 c 0,43,44
 92 -168 92 -168 67 -163 c 0,45,46
 43 -158 43 -158 36 -154 c 1,0,-1
EndSplineSet
EndChar

StartChar: z
Encoding: 122 122 93
Width: 500
GlyphClass: 2
Flags: W
LayerCount: 2
Fore
SplineSet
420 464 m 1,0,-1
 420 402 l 1,1,2
 406 386 406 386 371 344 c 0,3,4
 344 312 344 312 305 261 c 0,5,6
 264 208 264 208 234 165 c 0,7,8
 198 113 198 113 172 70 c 1,9,-1
 427 70 l 1,10,-1
 427 0 l 1,11,-1
 73 0 l 1,12,-1
 73 55 l 1,13,14
 91 89 91 89 126 143 c 0,15,16
 176 216 176 216 191 237 c 0,17,18
 227 286 227 286 258 325 c 0,19,20
 282 357 282 357 314 395 c 1,21,-1
 86 395 l 1,22,-1
 86 464 l 1,23,-1
 420 464 l 1,0,-1
EndSplineSet
EndChar

StartChar: braceleft
Encoding: 123 123 94
Width: 500
GlyphClass: 2
Flags: W
LayerCount: 2
Fore
SplineSet
79 235 m 1,0,-1
 79 299 l 1,1,-1
 119 299 l 2,2,3
 135 299 135 299 149 307 c 128,-1,4
 163 315 163 315 171 327 c 0,5,6
 181 342 181 342 184 355 c 0,7,8
 188 368 188 368 188 386 c 2,9,-1
 188 547 l 2,10,11
 188 582 188 582 196 612 c 0,12,13
 204 641 204 641 221 660 c 0,14,15
 238 678 238 678 270 689 c 0,16,17
 299 699 299 699 346 699 c 2,18,-1
 427 699 l 1,19,-1
 427 634 l 1,20,-1
 342 634 l 2,21,22
 299 634 299 634 283 615 c 0,23,24
 265 596 265 596 265 546 c 2,25,-1
 265 408 l 2,26,27
 265 342 265 342 245 310 c 128,-1,28
 225 278 225 278 199 267 c 1,29,30
 226 254 226 254 245 222 c 0,31,32
 265 188 265 188 265 126 c 2,33,-1
 265 -12 l 2,34,35
 265 -62 265 -62 283 -81 c 256,36,37
 301 -100 301 -100 343 -100 c 2,38,-1
 427 -100 l 1,39,-1
 427 -165 l 1,40,-1
 346 -165 l 2,41,42
 299 -165 299 -165 270 -155 c 0,43,44
 239 -145 239 -145 221 -125 c 0,45,46
 203 -106 203 -106 196 -78 c 0,47,48
 188 -48 188 -48 188 -13 c 2,49,-1
 188 148 l 2,50,51
 188 164 188 164 184 179 c 0,52,53
 181 189 181 189 171 207 c 0,54,55
 161 220 161 220 150 227 c 0,56,57
 136 235 136 235 120 235 c 2,58,-1
 79 235 l 1,0,-1
EndSplineSet
EndChar

StartChar: bar
Encoding: 124 124 95
Width: 500
GlyphClass: 2
Flags: W
LayerCount: 2
Fore
SplineSet
212 -165 m 1,0,-1
 212 699 l 1,1,-1
 289 699 l 1,2,-1
 289 -165 l 1,3,-1
 212 -165 l 1,0,-1
EndSplineSet
EndChar

StartChar: braceright
Encoding: 125 125 96
Width: 500
GlyphClass: 2
Flags: W
LayerCount: 2
Fore
SplineSet
421 299 m 1,0,-1
 421 235 l 1,1,-1
 381 235 l 2,2,3
 363 235 363 235 352 228 c 0,4,5
 339 221 339 221 331 208 c 128,-1,6
 323 195 323 195 318 180 c 0,7,8
 313 162 313 162 313 148 c 2,9,-1
 313 -13 l 2,10,11
 313 -51 313 -51 306 -78 c 0,12,13
 299 -104 299 -104 280 -125 c 0,14,15
 260 -145 260 -145 231 -155 c 0,16,17
 201 -165 201 -165 154 -165 c 2,18,-1
 73 -165 l 1,19,-1
 73 -100 l 1,20,-1
 158 -100 l 2,21,22
 200 -100 200 -100 218 -81 c 0,23,24
 235 -61 235 -61 235 -12 c 2,25,-1
 235 126 l 2,26,27
 235 193 235 193 255 225 c 0,28,29
 274 256 274 256 301 267 c 1,30,31
 274 280 274 280 255 312 c 0,32,33
 235 346 235 346 235 408 c 2,34,-1
 235 546 l 2,35,36
 235 596 235 596 217 615 c 256,37,38
 199 634 199 634 157 634 c 2,39,-1
 73 634 l 1,40,-1
 73 699 l 1,41,-1
 154 699 l 2,42,43
 201 699 201 699 231 689 c 0,44,45
 262 678 262 678 280 660 c 0,46,47
 299 640 299 640 306 612 c 0,48,49
 313 585 313 585 313 547 c 2,50,-1
 313 386 l 2,51,52
 313 369 313 369 317 356 c 0,53,54
 322 339 322 339 330 328 c 0,55,56
 338 314 338 314 351 307 c 0,57,58
 364 299 364 299 380 299 c 2,59,-1
 421 299 l 1,0,-1
EndSplineSet
EndChar

StartChar: asciitilde
Encoding: 126 126 97
Width: 500
GlyphClass: 2
Flags: W
LayerCount: 2
Fore
SplineSet
406 330 m 1,0,-1
 463 314 l 1,1,2
 459 294 459 294 453 275 c 0,3,4
 447 257 447 257 431 234 c 0,5,6
 417 216 417 216 394 202 c 0,7,8
 372 189 372 189 341 189 c 0,9,10
 316 189 316 189 292 200 c 0,11,12
 262 214 262 214 248 223 c 0,13,14
 239 228 239 228 222.5 238.5 c 128,-1,15
 206 249 206 249 202 251 c 0,16,17
 179 265 179 265 154 265 c 0,18,19
 140 265 140 265 130 259 c 0,20,21
 119 251 119 251 114 242 c 0,22,23
 106 231 106 231 102 220 c 0,24,25
 101 217 101 217 99 212 c 128,-1,26
 97 207 97 207 96 203 c 128,-1,27
 95 199 95 199 94 196 c 2,28,-1
 37 212 l 1,29,30
 39 225 39 225 48 251 c 0,31,32
 54 269 54 269 70 292 c 0,33,34
 82 310 82 310 106 324 c 0,35,36
 126 337 126 337 159 337 c 0,37,38
 188 337 188 337 209 327 c 128,-1,39
 230 317 230 317 252 303 c 0,40,41
 257 300 257 300 299 275 c 0,42,43
 322 261 322 261 346 261 c 0,44,45
 360 261 360 261 370 268 c 0,46,47
 379 273 379 273 387 284 c 0,48,49
 395 298 395 298 398 307 c 0,50,51
 404 323 404 323 406 330 c 1,0,-1
EndSplineSet
EndChar

StartChar: exclamdown
Encoding: 161 161 99
Width: 500
GlyphClass: 2
Flags: W
LayerCount: 2
Fore
SplineSet
204 -165 m 1,0,-1
 204 3 l 2,1,2
 204 29 204 29 206 71 c 0,3,4
 207 92 207 92 209 130 c 0,5,6
 210 157 210 157 215 186 c 0,7,8
 218 213 218 213 221 243 c 1,9,-1
 278 243 l 1,10,11
 281 213 281 213 284 186 c 0,12,13
 285 177 285 177 287 158.5 c 128,-1,14
 289 140 289 140 290 130 c 0,15,16
 292 92 292 92 293 71 c 128,-1,17
 294 50 294 50 294 3 c 2,18,-1
 294 -165 l 1,19,-1
 204 -165 l 1,0,-1
249 465 m 0,20,21
 278 465 278 465 297 447 c 0,22,23
 316 428 316 428 316 397 c 128,-1,24
 316 366 316 366 297 348 c 256,25,26
 278 330 278 330 249 330 c 0,27,28
 222 330 222 330 202 348 c 128,-1,29
 182 366 182 366 182 397 c 0,30,31
 182 427 182 427 202 447 c 0,32,33
 221 465 221 465 249 465 c 0,20,21
EndSplineSet
EndChar

StartChar: cent
Encoding: 162 162 100
Width: 500
GlyphClass: 2
Flags: W
LayerCount: 2
Fore
SplineSet
49 260 m 0,0,1
 49 314 49 314 64 354 c 256,2,3
 79 394 79 394 106 423 c 0,4,5
 134 453 134 453 171 469 c 0,6,7
 210 486 210 486 252 492 c 1,8,-1
 252 619 l 1,9,-1
 326 619 l 1,10,-1
 326 495 l 1,11,12
 353 494 353 494 380 489 c 0,13,14
 406 485 406 485 438 474 c 1,15,-1
 420 405 l 1,16,17
 390 416 390 416 360 421 c 0,18,19
 333 424 333 424 305 424 c 0,20,21
 270 424 270 424 238 415 c 0,22,23
 203 403 203 403 183 386 c 0,24,25
 160 366 160 366 147 335 c 0,26,27
 134 305 134 305 134 260 c 0,28,29
 134 177 134 177 184 138 c 0,30,31
 233 98 233 98 313 98 c 0,32,33
 349 98 349 98 374 102 c 0,34,35
 407 107 407 107 438 118 c 1,36,-1
 450 50 l 1,37,38
 415 38 415 38 390 34 c 0,39,40
 350 28 350 28 326 27 c 1,41,-1
 326 -97 l 1,42,-1
 252 -97 l 1,43,-1
 252 29 l 1,44,45
 159 43 159 43 105 100 c 0,46,47
 49 159 49 159 49 260 c 0,0,1
EndSplineSet
EndChar

StartChar: sterling
Encoding: 163 163 101
Width: 500
GlyphClass: 2
Flags: W
LayerCount: 2
Fore
SplineSet
210 409 m 2,0,-1
 210 333 l 1,1,-1
 380 333 l 1,2,-1
 380 266 l 1,3,-1
 210 266 l 1,4,-1
 210 259 l 2,5,6
 210 214 210 214 207 165 c 0,7,8
 201 103 201 103 196 71 c 1,9,-1
 455 71 l 1,10,-1
 455 0 l 1,11,-1
 103 0 l 1,12,13
 114 66 114 66 121 127 c 0,14,15
 128 184 128 184 128 253 c 2,16,-1
 128 266 l 1,17,-1
 45 266 l 1,18,-1
 45 333 l 1,19,-1
 128 333 l 1,20,-1
 128 407 l 2,21,22
 128 472 128 472 142 517 c 0,23,24
 155 559 155 559 181 585 c 0,25,26
 205 609 205 609 242 620 c 0,27,28
 275 630 275 630 321 630 c 0,29,30
 360 630 360 630 387 624 c 0,31,32
 412 616 412 616 438 606 c 1,33,-1
 418 535 l 1,34,35
 374 557 374 557 317 557 c 0,36,37
 292 557 292 557 274 550 c 0,38,39
 253 542 253 542 240 526 c 0,40,41
 226 510 226 510 218 481 c 0,42,43
 210 451 210 451 210 409 c 2,0,-1
EndSplineSet
EndChar

StartChar: currency
Encoding: 164 164 102
Width: 500
GlyphClass: 2
Flags: W
LayerCount: 2
Fore
SplineSet
78 310 m 0,0,1
 78 365 78 365 103 405 c 1,2,-1
 38 471 l 1,3,-1
 89 522 l 1,4,-1
 155 455 l 1,5,6
 199 481 199 481 250 481 c 0,7,8
 300 481 300 481 344 455 c 1,9,-1
 411 522 l 1,10,-1
 463 471 l 1,11,-1
 396 405 l 1,12,13
 422 364 422 364 422 310 c 0,14,15
 422 280 422 280 416 258 c 0,16,17
 407 231 407 231 396 215 c 1,18,-1
 463 149 l 1,19,-1
 411 97 l 1,20,-1
 344 163 l 1,21,22
 301 138 301 138 250 138 c 0,23,24
 195 138 195 138 155 163 c 1,25,-1
 89 97 l 1,26,-1
 38 149 l 1,27,-1
 103 214 l 1,28,29
 78 254 78 254 78 310 c 0,0,1
355 310 m 128,-1,31
 355 361 355 361 324 391 c 0,32,33
 292 421 292 421 250 421 c 128,-1,34
 208 421 208 421 176 391 c 0,35,36
 145 361 145 361 145 310 c 128,-1,37
 145 259 145 259 176 229 c 128,-1,38
 207 199 207 199 250 199 c 0,39,40
 292 199 292 199 324 229 c 0,41,30
 355 259 355 259 355 310 c 128,-1,31
EndSplineSet
EndChar

StartChar: yen
Encoding: 165 165 103
Width: 500
GlyphClass: 2
Flags: W
LayerCount: 2
Fore
SplineSet
292 0 m 1,0,-1
 210 0 l 1,1,-1
 210 95 l 1,2,-1
 65 95 l 1,3,-1
 65 158 l 1,4,-1
 210 158 l 1,5,-1
 210 249 l 1,6,-1
 65 249 l 1,7,-1
 65 313 l 1,8,-1
 187 313 l 1,9,10
 146 378 146 378 95 469 c 0,11,12
 42 563 42 563 13 619 c 1,13,-1
 104 619 l 1,14,15
 130 562 130 562 174 480 c 0,16,17
 202 426 202 426 253 346 c 1,18,19
 292 411 292 411 329 480 c 0,20,21
 370 559 370 559 397 619 c 1,22,-1
 488 619 l 1,23,24
 434 519 434 519 405 468 c 0,25,26
 350 372 350 372 313 313 c 1,27,-1
 436 313 l 1,28,-1
 436 249 l 1,29,-1
 292 249 l 1,30,-1
 292 158 l 1,31,-1
 436 158 l 1,32,-1
 436 95 l 1,33,-1
 292 95 l 1,34,-1
 292 0 l 1,0,-1
EndSplineSet
EndChar

StartChar: brokenbar
Encoding: 166 166 104
Width: 500
GlyphClass: 2
Flags: W
LayerCount: 2
Fore
SplineSet
212 -165 m 1,0,-1
 212 177 l 1,1,-1
 289 177 l 1,2,-1
 289 -165 l 1,3,-1
 212 -165 l 1,0,-1
212 357 m 1,4,-1
 212 699 l 1,5,-1
 289 699 l 1,6,-1
 289 357 l 1,7,-1
 212 357 l 1,4,-1
EndSplineSet
EndChar

StartChar: section
Encoding: 167 167 105
Width: 500
GlyphClass: 2
Flags: W
LayerCount: 2
Fore
SplineSet
70 -67 m 1,0,-1
 90 -1 l 1,1,2
 123 -14 123 -14 149 -20 c 0,3,4
 180 -29 180 -29 231 -29 c 0,5,6
 332 -29 332 -29 332 33 c 0,7,8
 332 65 332 65 308 83 c 0,9,10
 284 100 284 100 227 119 c 0,11,12
 196 129 196 129 166 143 c 0,13,14
 138 155 138 155 115 173 c 0,15,16
 93 189 93 189 81 215 c 0,17,18
 68 240 68 240 68 276 c 0,19,20
 68 298 68 298 76 319 c 0,21,22
 85 342 85 342 95 356 c 0,23,24
 102 367 102 367 120 385 c 0,25,26
 135 398 135 398 147 405 c 1,27,28
 127 421 127 421 112 446 c 0,29,30
 99 468 99 468 99 499 c 0,31,32
 99 561 99 561 143 597 c 0,33,34
 186 633 186 633 264 633 c 0,35,36
 307 633 307 633 349 625 c 0,37,38
 382 617 382 617 412 608 c 1,39,-1
 393 539 l 1,40,41
 351 553 351 553 341 556 c 0,42,43
 310 565 310 565 263 565 c 0,44,45
 229 565 229 565 203 551 c 0,46,47
 178 536 178 536 178 506 c 0,48,49
 178 474 178 474 200 458 c 256,50,51
 222 442 222 442 272 425 c 0,52,53
 302 415 302 415 334 402 c 0,54,55
 362 389 362 389 384 371 c 0,56,57
 405 354 405 354 419 329 c 0,58,59
 431 303 431 303 431 268 c 0,60,61
 431 245 431 245 424 227 c 0,62,63
 416 208 416 208 406 191 c 128,-1,64
 396 174 396 174 382 161 c 128,-1,65
 368 148 368 148 355 140 c 1,66,67
 382 120 382 120 397 96 c 0,68,69
 413 71 413 71 413 38 c 0,70,71
 413 -28 413 -28 366 -63 c 0,72,73
 319 -97 319 -97 230 -97 c 0,74,75
 168 -97 168 -97 132 -87 c 0,76,77
 94 -78 94 -78 70 -67 c 1,0,-1
226 364 m 2,78,-1
 202 373 l 1,79,80
 176 356 176 356 160 334 c 256,81,82
 144 312 144 312 144 284 c 0,83,84
 144 262 144 262 155 245 c 0,85,86
 165 229 165 229 183 217 c 0,87,88
 202 205 202 205 226 196 c 0,89,90
 228 195 228 195 248.5 188 c 128,-1,91
 269 181 269 181 280 177 c 2,92,-1
 297 171 l 1,93,94
 322 188 322 188 339 210 c 0,95,96
 355 232 355 232 355 260 c 0,97,98
 355 283 355 283 345 299 c 0,99,100
 335 314 335 314 317 325 c 0,101,102
 297 336 297 336 276 345 c 0,103,104
 233 361 233 361 226 364 c 2,78,-1
EndSplineSet
EndChar

StartChar: dieresis
Encoding: 168 168 106
Width: 500
GlyphClass: 2
Flags: W
LayerCount: 2
Fore
SplineSet
165 550 m 0,0,1
 146 550 146 550 129 565 c 0,2,3
 113 580 113 580 113 603 c 128,-1,4
 113 626 113 626 129 641 c 0,5,6
 146 655 146 655 165 655 c 0,7,8
 185 655 185 655 202 641 c 0,9,10
 217 626 217 626 217 603 c 128,-1,11
 217 580 217 580 202 565 c 0,12,13
 186 550 186 550 165 550 c 0,0,1
335 550 m 128,-1,15
 314 550 314 550 299 565 c 0,16,17
 283 580 283 580 283 603 c 128,-1,18
 283 626 283 626 299 641 c 0,19,20
 315 655 315 655 335 655 c 128,-1,21
 355 655 355 655 372 641 c 0,22,23
 387 626 387 626 387 603 c 128,-1,24
 387 580 387 580 372 565 c 0,25,14
 356 550 356 550 335 550 c 128,-1,15
EndSplineSet
EndChar

StartChar: copyright
Encoding: 169 169 107
Width: 500
GlyphClass: 2
Flags: W
LayerCount: 2
Fore
SplineSet
408 231 m 128,-1,1
 408 280 408 280 395 315 c 0,2,3
 381 350 381 350 359 374 c 0,4,5
 336 397 336 397 308 409 c 128,-1,6
 280 421 280 421 250 421 c 128,-1,7
 220 421 220 421 192 409 c 0,8,9
 166 398 166 398 142 374 c 0,10,11
 120 350 120 350 106 315 c 0,12,13
 92 278 92 278 92 233 c 0,14,15
 92 186 92 186 106 150 c 0,16,17
 120 113 120 113 142 91 c 0,18,19
 165 66 165 66 192 55 c 0,20,21
 220 43 220 43 250 43 c 128,-1,22
 280 43 280 43 309 55 c 0,23,24
 336 66 336 66 359 91 c 0,25,26
 381 113 381 113 395 149 c 0,27,0
 408 182 408 182 408 231 c 128,-1,1
310 173 m 1,28,-1
 327 120 l 1,29,30
 311 113 311 113 292 108 c 0,31,32
 275 104 275 104 256 104 c 0,33,34
 228 104 228 104 206 115 c 0,35,36
 183 126 183 126 170 143 c 0,37,38
 157 159 157 159 149 183 c 0,39,40
 142 204 142 204 142 229 c 0,41,42
 142 255 142 255 149 276 c 0,43,44
 157 299 157 299 170 317 c 0,45,46
 184 336 184 336 206 346 c 0,47,48
 228 357 228 357 257 357 c 0,49,50
 267 357 267 357 291 355 c 0,51,52
 307 352 307 352 325 344 c 1,53,-1
 305 290 l 1,54,55
 291 296 291 296 283 297 c 0,56,57
 276 298 276 298 263 298 c 0,58,59
 232 298 232 298 218 278 c 128,-1,60
 204 258 204 258 204 233 c 0,61,62
 204 202 204 202 221 183 c 0,63,64
 237 164 237 164 267 164 c 0,65,66
 272 164 272 164 288 166 c 0,67,68
 297 167 297 167 310 173 c 1,28,-1
34 231 m 0,69,70
 34 293 34 293 53 338 c 0,71,72
 72 385 72 385 103 415 c 0,73,74
 133 445 133 445 172 460 c 128,-1,75
 211 475 211 475 251 475 c 128,-1,76
 291 475 291 475 330 460 c 128,-1,77
 369 445 369 445 399 415 c 0,78,79
 428 384 428 384 448 339 c 0,80,81
 466 293 466 293 466 233 c 0,82,83
 466 171 466 171 447 127 c 0,84,85
 428 81 428 81 398 51 c 0,86,87
 367 20 367 20 328 5 c 0,88,89
 290 -11 290 -11 249 -11 c 0,90,91
 206 -11 206 -11 170 5 c 0,92,93
 131 20 131 20 101 50 c 128,-1,94
 71 80 71 80 53 126 c 0,95,96
 34 170 34 170 34 231 c 0,69,70
EndSplineSet
EndChar

StartChar: ordfeminine
Encoding: 170 170 108
Width: 500
GlyphClass: 2
Flags: W
LayerCount: 2
Fore
SplineSet
259 349 m 0,0,1
 285 349 285 349 298 350 c 0,2,3
 318 352 318 352 322 353 c 1,4,-1
 322 442 l 1,5,6
 310 444 310 444 297 445 c 0,7,8
 287 446 287 446 268 446 c 0,9,10
 258 446 258 446 238 444 c 0,11,12
 227 443 227 443 209 437 c 0,13,14
 196 433 196 433 188 423 c 0,15,16
 180 412 180 412 180 398 c 0,17,18
 180 372 180 372 201 361 c 0,19,20
 222 349 222 349 259 349 c 0,0,1
253 630 m 0,21,22
 327 630 327 630 355 596 c 0,23,24
 384 561 384 561 384 506 c 2,25,-1
 384 306 l 1,26,27
 357 301 357 301 326 298 c 0,28,29
 294 294 294 294 253 294 c 0,30,31
 194 294 194 294 156 318 c 128,-1,32
 118 342 118 342 118 398 c 0,33,34
 118 426 118 426 130 446 c 0,35,36
 140 464 140 464 161 477 c 0,37,38
 180 489 180 489 207 495 c 0,39,40
 235 500 235 500 261 500 c 0,41,42
 279 500 279 500 289 499 c 0,43,44
 302 498 302 498 322 496 c 1,45,-1
 322 498 l 2,46,47
 322 507 322 507 320 525 c 0,48,49
 317 537 317 537 309 549 c 0,50,51
 303 557 303 557 287 566 c 0,52,53
 272 572 272 572 249 572 c 0,54,55
 236 572 236 572 204 570 c 0,56,57
 180 567 180 567 162 561 c 1,58,-1
 153 617 l 1,59,60
 169 621 169 621 197 626 c 0,61,62
 221 630 221 630 253 630 c 0,21,22
EndSplineSet
EndChar

StartChar: guillemotleft
Encoding: 171 171 109
Width: 500
GlyphClass: 2
Flags: W
LayerCount: 2
Fore
SplineSet
180 79 m 1,0,-1
 63 254 l 1,1,-1
 182 430 l 1,2,-1
 234 403 l 1,3,-1
 150 254 l 1,4,-1
 230 110 l 1,5,-1
 180 79 l 1,0,-1
360 79 m 1,6,-1
 242 254 l 1,7,-1
 362 430 l 1,8,-1
 413 403 l 1,9,-1
 330 254 l 1,10,-1
 410 110 l 1,11,-1
 360 79 l 1,6,-1
EndSplineSet
EndChar

StartChar: logicalnot
Encoding: 172 172 110
Width: 500
GlyphClass: 2
Flags: W
LayerCount: 2
Fore
SplineSet
41 347 m 1,0,-1
 450 347 l 1,1,-1
 450 43 l 1,2,-1
 379 43 l 1,3,-1
 379 277 l 1,4,-1
 41 277 l 1,5,-1
 41 347 l 1,0,-1
EndSplineSet
EndChar

StartChar: uni00AD
Encoding: 173 173 111
Width: 500
GlyphClass: 2
Flags: W
LayerCount: 2
Fore
SplineSet
140 215 m 1,0,-1
 140 293 l 1,1,-1
 360 293 l 1,2,-1
 360 215 l 1,3,-1
 140 215 l 1,0,-1
EndSplineSet
EndChar

StartChar: registered
Encoding: 174 174 112
Width: 500
GlyphClass: 2
Flags: W
LayerCount: 2
Fore
SplineSet
408 231 m 128,-1,1
 408 280 408 280 395 315 c 0,2,3
 381 350 381 350 359 374 c 0,4,5
 336 397 336 397 308 409 c 128,-1,6
 280 421 280 421 250 421 c 128,-1,7
 220 421 220 421 192 409 c 0,8,9
 166 398 166 398 142 374 c 0,10,11
 120 350 120 350 106 315 c 0,12,13
 92 278 92 278 92 233 c 0,14,15
 92 186 92 186 106 150 c 0,16,17
 120 113 120 113 142 91 c 0,18,19
 165 66 165 66 192 55 c 0,20,21
 220 43 220 43 250 43 c 128,-1,22
 280 43 280 43 309 55 c 0,23,24
 336 66 336 66 359 91 c 0,25,26
 381 113 381 113 395 149 c 0,27,0
 408 182 408 182 408 231 c 128,-1,1
34 231 m 0,28,29
 34 293 34 293 53 338 c 0,30,31
 72 385 72 385 103 415 c 0,32,33
 133 445 133 445 172 460 c 128,-1,34
 211 475 211 475 251 475 c 128,-1,35
 291 475 291 475 330 460 c 128,-1,36
 369 445 369 445 399 415 c 0,37,38
 428 384 428 384 448 339 c 0,39,40
 466 293 466 293 466 233 c 0,41,42
 466 171 466 171 447 127 c 0,43,44
 428 81 428 81 398 51 c 0,45,46
 367 20 367 20 328 5 c 0,47,48
 290 -11 290 -11 249 -11 c 0,49,50
 206 -11 206 -11 170 5 c 0,51,52
 131 20 131 20 101 50 c 128,-1,53
 71 80 71 80 53 126 c 0,54,55
 34 170 34 170 34 231 c 0,28,29
256 187 m 2,56,-1
 220 187 l 1,57,-1
 220 110 l 1,58,-1
 166 110 l 1,59,-1
 166 348 l 1,60,61
 175 351 175 351 197 355 c 0,62,63
 219 357 219 357 233 357 c 0,64,65
 290 357 290 357 318 335 c 0,66,67
 345 312 345 312 345 271 c 0,68,69
 345 222 345 222 305 200 c 1,70,71
 311 192 311 192 330 160 c 0,72,73
 335 151 335 151 344 133.5 c 128,-1,74
 353 116 353 116 356 110 c 1,75,-1
 299 110 l 1,76,77
 294 119 294 119 285.5 135 c 128,-1,78
 277 151 277 151 276 153 c 0,79,80
 258 184 258 184 256 187 c 2,56,-1
220 305 m 2,81,-1
 220 237 l 1,82,-1
 238 237 l 2,83,84
 265 237 265 237 278 244 c 128,-1,85
 291 251 291 251 291 274 c 0,86,87
 291 294 291 294 275 301 c 0,88,89
 258 307 258 307 242 307 c 2,90,-1
 231 307 l 2,91,92
 229 307 229 307 225.5 306.5 c 128,-1,93
 222 306 222 306 220 305 c 2,81,-1
EndSplineSet
EndChar

StartChar: macron
Encoding: 175 175 113
Width: 500
GlyphClass: 2
Flags: W
LayerCount: 2
Fore
SplineSet
123 571 m 1,0,-1
 123 635 l 1,1,-1
 377 635 l 1,2,-1
 377 571 l 1,3,-1
 123 571 l 1,0,-1
EndSplineSet
EndChar

StartChar: degree
Encoding: 176 176 114
Width: 500
GlyphClass: 2
Flags: W
LayerCount: 2
Fore
SplineSet
375 569 m 128,-1,1
 375 538 375 538 365 517 c 0,2,3
 354 494 354 494 338 478 c 0,4,5
 320 461 320 461 298 454 c 0,6,7
 276 445 276 445 250 445 c 0,8,9
 226 445 226 445 203 454 c 0,10,11
 179 462 179 462 163 478 c 0,12,13
 146 494 146 494 135 517 c 0,14,15
 125 538 125 538 125 569 c 128,-1,16
 125 600 125 600 135 621 c 0,17,18
 146 644 146 644 163 660 c 0,19,20
 178 675 178 675 203 685 c 0,21,22
 227 693 227 693 250 693 c 0,23,24
 274 693 274 693 298 685 c 0,25,26
 321 676 321 676 338 660 c 0,27,28
 354 644 354 644 365 621 c 0,29,0
 375 600 375 600 375 569 c 128,-1,1
315 569 m 128,-1,31
 315 601 315 601 296 619 c 128,-1,32
 277 637 277 637 250 637 c 0,33,34
 224 637 224 637 204 619 c 0,35,36
 185 601 185 601 185 569 c 128,-1,37
 185 537 185 537 204 519 c 0,38,39
 224 501 224 501 250 501 c 128,-1,40
 276 501 276 501 296 519 c 0,41,30
 315 537 315 537 315 569 c 128,-1,31
EndSplineSet
EndChar

StartChar: plusminus
Encoding: 177 177 115
Width: 500
GlyphClass: 2
Flags: W
LayerCount: 2
Fore
SplineSet
46 304 m 1,0,-1
 46 374 l 1,1,-1
 214 374 l 1,2,-1
 214 554 l 1,3,-1
 286 554 l 1,4,-1
 286 374 l 1,5,-1
 455 374 l 1,6,-1
 455 304 l 1,7,-1
 286 304 l 1,8,-1
 286 124 l 1,9,-1
 214 124 l 1,10,-1
 214 304 l 1,11,-1
 46 304 l 1,0,-1
46 0 m 1,12,-1
 46 71 l 1,13,-1
 455 71 l 1,14,-1
 455 0 l 1,15,-1
 46 0 l 1,12,-1
EndSplineSet
EndChar

StartChar: uni00B2
Encoding: 178 178 116
Width: 500
GlyphClass: 2
Flags: W
LayerCount: 2
Fore
SplineSet
362 534 m 0,0,1
 362 516 362 516 354 498 c 0,2,3
 345 480 345 480 331 463 c 0,4,5
 314 443 314 443 297 427 c 0,6,7
 271 403 271 403 257 391 c 2,8,-1
 227 364 l 2,9,10
 212 348 212 348 210 338 c 1,11,-1
 376 338 l 1,12,-1
 376 281 l 1,13,-1
 138 281 l 1,14,15
 135 313 135 313 142 334 c 0,16,17
 150 357 150 357 162 375 c 128,-1,18
 174 393 174 393 193 410 c 0,19,20
 198 415 198 415 210 425 c 128,-1,21
 222 435 222 435 228 441 c 0,22,23
 256 465 256 465 277 489 c 0,24,25
 296 511 296 511 296 532 c 0,26,27
 296 577 296 577 241 577 c 0,28,29
 225 577 225 577 213 573 c 0,30,31
 195 567 195 567 188 564 c 0,32,33
 174 556 174 556 169 552 c 0,34,35
 167 551 167 551 162.5 547.5 c 128,-1,36
 158 544 158 544 156 542 c 1,37,-1
 124 586 l 1,38,39
 140 601 140 601 171 618 c 0,40,41
 201 633 201 633 241 633 c 0,42,43
 304 633 304 633 333 608 c 0,44,45
 362 582 362 582 362 534 c 0,0,1
EndSplineSet
EndChar

StartChar: uni00B3
Encoding: 179 179 117
Width: 500
GlyphClass: 2
Flags: W
LayerCount: 2
Fore
SplineSet
226 330 m 0,0,1
 274 330 274 330 292 345 c 0,2,3
 309 359 309 359 309 382 c 0,4,5
 309 397 309 397 301 408 c 0,6,7
 295 417 295 417 280 425 c 0,8,9
 268 432 268 432 248 435 c 0,10,11
 230 438 230 438 211 438 c 2,12,-1
 194 438 l 1,13,-1
 194 489 l 1,14,-1
 216 489 l 2,15,16
 230 489 230 489 243 492 c 0,17,18
 255 493 255 493 267 500 c 0,19,20
 278 505 278 505 286 514 c 0,21,22
 293 522 293 522 293 537 c 0,23,24
 293 559 293 559 277 569 c 0,25,26
 261 578 261 578 234 578 c 0,27,28
 211 578 211 578 190 570 c 0,29,30
 162 558 162 558 154 554 c 1,31,-1
 131 603 l 1,32,33
 142 612 142 612 176 623 c 0,34,35
 205 633 205 633 236 633 c 0,36,37
 300 633 300 633 328 607 c 0,38,39
 355 582 355 582 355 539 c 128,-1,40
 355 496 355 496 306 468 c 1,41,42
 339 457 339 457 356 436 c 0,43,44
 374 413 374 413 374 381 c 0,45,46
 374 336 374 336 340 305 c 128,-1,47
 306 274 306 274 227 274 c 0,48,49
 198 274 198 274 171 281 c 0,50,51
 145 287 145 287 126 295 c 1,52,-1
 139 348 l 1,53,54
 164 338 164 338 181 335 c 0,55,56
 206 330 206 330 226 330 c 0,0,1
EndSplineSet
EndChar

StartChar: acute
Encoding: 180 180 118
Width: 500
GlyphClass: 2
Flags: W
LayerCount: 2
Fore
SplineSet
284 693 m 1,0,-1
 338 640 l 1,1,-1
 212 518 l 1,2,-1
 170 555 l 1,3,-1
 284 693 l 1,0,-1
EndSplineSet
EndChar

StartChar: mu
Encoding: 181 181 119
Width: 500
GlyphClass: 2
Flags: W
LayerCount: 2
Fore
SplineSet
429 464 m 1,0,-1
 429 13 l 1,1,2
 403 6 403 6 358 -2 c 0,3,4
 313 -11 313 -11 253 -11 c 0,5,6
 212 -11 212 -11 190 -2 c 0,7,8
 166 8 166 8 150 22 c 1,9,10
 152 8 152 8 154 -24 c 2,11,-1
 154 -73 l 1,12,-1
 154 -165 l 1,13,-1
 71 -165 l 1,14,-1
 71 464 l 1,15,-1
 154 464 l 1,16,-1
 154 221 l 2,17,18
 154 178 154 178 160 148 c 0,19,20
 164 119 164 119 178 99 c 0,21,22
 190 80 190 80 211 72 c 0,23,24
 230 63 230 63 261 63 c 0,25,26
 279 63 279 63 288 64 c 0,27,28
 292 64 292 64 300.5 64.5 c 128,-1,29
 309 65 309 65 313 66 c 0,30,31
 325 68 325 68 334 69 c 0,32,33
 336 69 336 69 339 69.5 c 128,-1,34
 342 70 342 70 343.5 70.5 c 128,-1,35
 345 71 345 71 346 71 c 1,36,-1
 346 464 l 1,37,-1
 429 464 l 1,0,-1
EndSplineSet
EndChar

StartChar: paragraph
Encoding: 182 182 120
Width: 500
GlyphClass: 2
Flags: W
LayerCount: 2
Fore
SplineSet
377 -165 m 1,0,-1
 377 553 l 1,1,2
 328 559 328 559 290 555 c 1,3,-1
 290 -165 l 1,4,-1
 221 -165 l 1,5,-1
 221 234 l 1,6,7
 126 245 126 245 78 290 c 0,8,9
 28 337 28 337 28 428 c 0,10,11
 28 477 28 477 47 514 c 0,12,13
 64 549 64 549 100 575 c 0,14,15
 132 598 132 598 185 613 c 0,16,17
 234 625 234 625 296 625 c 0,18,19
 330 625 330 625 371 622 c 0,20,21
 413 619 413 619 447 609 c 1,22,-1
 447 -165 l 1,23,-1
 377 -165 l 1,0,-1
EndSplineSet
EndChar

StartChar: periodcentered
Encoding: 183 183 121
Width: 500
GlyphClass: 2
Flags: W
LayerCount: 2
Fore
SplineSet
324 260 m 0,0,1
 324 230 324 230 304 207 c 128,-1,2
 284 184 284 184 251 184 c 0,3,4
 217 184 217 184 197 207 c 128,-1,5
 177 230 177 230 177 260 c 0,6,7
 177 291 177 291 197 314 c 128,-1,8
 217 337 217 337 251 337 c 0,9,10
 284 337 284 337 304 314 c 128,-1,11
 324 291 324 291 324 260 c 0,0,1
EndSplineSet
EndChar

StartChar: cedilla
Encoding: 184 184 122
Width: 500
GlyphClass: 2
Flags: W
LayerCount: 2
Fore
SplineSet
272 -33 m 1,0,1
 298 -45 298 -45 310 -60 c 0,2,3
 321 -76 321 -76 321 -104 c 0,4,5
 321 -116 321 -116 317 -125 c 0,6,7
 312 -137 312 -137 302 -146 c 0,8,9
 293 -155 293 -155 274 -162 c 0,10,11
 257 -169 257 -169 230 -169 c 0,12,13
 204 -169 204 -169 187 -165 c 0,14,15
 168 -162 168 -162 156 -157 c 1,16,-1
 166 -106 l 1,17,18
 176 -110 176 -110 189 -112 c 0,19,20
 201 -115 201 -115 216 -115 c 0,21,22
 248 -115 248 -115 248 -95 c 0,23,24
 248 -74 248 -74 211 -64 c 2,25,-1
 204 -62 l 1,26,27
 207 -53 207 -53 213 -41 c 0,28,29
 216 -33 216 -33 224 -17 c 0,30,31
 226 -12 226 -12 229.5 -4.5 c 128,-1,32
 233 3 233 3 234 5 c 0,33,34
 235 8 235 8 237.5 12 c 128,-1,35
 240 16 240 16 241 18 c 2,36,-1
 298 18 l 1,37,38
 295 11 295 11 285 -7 c 2,39,-1
 272 -33 l 1,0,1
EndSplineSet
EndChar

StartChar: uni00B9
Encoding: 185 185 123
Width: 500
GlyphClass: 2
Flags: W
LayerCount: 2
Fore
SplineSet
133 338 m 1,0,-1
 231 338 l 1,1,-1
 231 544 l 1,2,3
 215 533 215 533 186 521 c 0,4,5
 160 510 160 510 143 506 c 1,6,-1
 126 555 l 1,7,8
 159 565 159 565 193 585 c 0,9,10
 225 602 225 602 250 626 c 1,11,-1
 294 626 l 1,12,-1
 294 338 l 1,13,-1
 383 338 l 1,14,-1
 383 281 l 1,15,-1
 133 281 l 1,16,-1
 133 338 l 1,0,-1
EndSplineSet
EndChar

StartChar: ordmasculine
Encoding: 186 186 124
Width: 500
GlyphClass: 2
Flags: W
LayerCount: 2
Fore
SplineSet
411 463 m 128,-1,1
 411 424 411 424 399 393 c 0,2,3
 388 363 388 363 366 340 c 0,4,5
 343 317 343 317 315 305 c 0,6,7
 285 293 285 293 250 293 c 0,8,9
 214 293 214 293 186 305 c 0,10,11
 157 317 157 317 135 340 c 0,12,13
 113 362 113 362 101 393 c 128,-1,14
 89 424 89 424 89 463 c 128,-1,15
 89 502 89 502 101 533 c 128,-1,16
 113 564 113 564 135 586 c 0,17,18
 155 608 155 608 186 620 c 0,19,20
 214 632 214 632 250 632 c 0,21,22
 285 632 285 632 315 620 c 0,23,24
 344 608 344 608 366 586 c 0,25,26
 388 563 388 563 399 533 c 0,27,0
 411 502 411 502 411 463 c 128,-1,1
345 463 m 0,28,29
 345 514 345 514 321 543 c 0,30,31
 295 572 295 572 250 572 c 0,32,33
 206 572 206 572 180 543 c 0,34,35
 155 515 155 515 155 463 c 0,36,37
 155 412 155 412 180 383 c 0,38,39
 204 353 204 353 250 353 c 128,-1,40
 296 353 296 353 321 383 c 0,41,42
 345 413 345 413 345 463 c 0,28,29
EndSplineSet
EndChar

StartChar: guillemotright
Encoding: 187 187 125
Width: 500
GlyphClass: 2
Flags: W
LayerCount: 2
Fore
SplineSet
319 430 m 1,0,-1
 437 255 l 1,1,-1
 317 79 l 1,2,-1
 265 106 l 1,3,-1
 349 255 l 1,4,-1
 269 399 l 1,5,-1
 319 430 l 1,0,-1
138 430 m 1,6,-1
 256 255 l 1,7,-1
 137 79 l 1,8,-1
 85 106 l 1,9,-1
 169 255 l 1,10,-1
 88 399 l 1,11,-1
 138 430 l 1,6,-1
EndSplineSet
EndChar

StartChar: onequarter
Encoding: 188 188 126
Width: 500
GlyphClass: 2
Flags: W
LayerCount: 2
Fore
SplineSet
35 513 m 1,0,-1
 18 561 l 1,1,2
 45 572 45 572 76 589 c 0,3,4
 97 601 97 601 124 626 c 1,5,-1
 164 626 l 1,6,-1
 164 376 l 1,7,-1
 105 376 l 1,8,-1
 105 544 l 1,9,10
 86 534 86 534 69 526 c 0,11,12
 55 520 55 520 35 513 c 1,0,-1
358 250 m 1,13,-1
 441 250 l 1,14,-1
 441 98 l 1,15,-1
 477 98 l 1,16,-1
 477 48 l 1,17,-1
 441 48 l 1,18,-1
 441 0 l 1,19,-1
 382 0 l 1,20,-1
 382 48 l 1,21,-1
 253 48 l 1,22,-1
 253 89 l 1,23,24
 276 130 276 130 303 173 c 0,25,26
 326 208 326 208 358 250 c 1,13,-1
382 98 m 1,27,-1
 382 207 l 1,28,29
 358 176 358 176 344 152 c 0,30,31
 338 141 338 141 326.5 122.5 c 128,-1,32
 315 104 315 104 312 98 c 1,33,-1
 382 98 l 1,27,-1
474 615 m 1,34,-1
 95 -4 l 1,35,-1
 25 -4 l 1,36,-1
 404 615 l 1,37,-1
 474 615 l 1,34,-1
EndSplineSet
EndChar

StartChar: onehalf
Encoding: 189 189 127
Width: 500
GlyphClass: 2
Flags: W
LayerCount: 2
Fore
SplineSet
356 50 m 1,0,-1
 482 50 l 1,1,-1
 482 0 l 1,2,-1
 285 0 l 2,3,4
 284 2 284 2 284 12 c 2,5,-1
 284 23 l 2,6,7
 284 55 284 55 304 73 c 0,8,9
 320 87 320 87 350 106 c 2,10,-1
 372 121 l 2,11,12
 396 134 396 134 405 148 c 0,13,14
 414 160 414 160 414 174 c 0,15,16
 414 191 414 191 403 199 c 0,17,18
 390 207 390 207 375 207 c 128,-1,19
 360 207 360 207 344 201 c 0,20,21
 327 193 327 193 316 181 c 1,22,-1
 284 221 l 1,23,24
 299 238 299 238 327 250 c 0,25,26
 353 259 353 259 379 259 c 0,27,28
 426 259 426 259 450 234 c 0,29,30
 473 208 473 208 473 177 c 0,31,32
 473 150 473 150 460 133 c 0,33,34
 446 112 446 112 428 100 c 0,35,36
 402 82 402 82 389 74 c 0,37,38
 370 62 370 62 356 50 c 1,0,-1
41 513 m 1,39,-1
 24 561 l 1,40,41
 54 573 54 573 83 589 c 0,42,43
 104 602 104 602 130 626 c 1,44,-1
 171 626 l 1,45,-1
 171 376 l 1,46,-1
 112 376 l 1,47,-1
 112 544 l 1,48,49
 92 534 92 534 76 526 c 0,50,51
 65 521 65 521 41 513 c 1,39,-1
466 619 m 1,52,-1
 87 0 l 1,53,-1
 17 0 l 1,54,-1
 396 619 l 1,55,-1
 466 619 l 1,52,-1
EndSplineSet
EndChar

StartChar: threequarters
Encoding: 190 190 128
Width: 500
GlyphClass: 2
Flags: W
LayerCount: 2
Fore
SplineSet
358 250 m 1,0,-1
 441 250 l 1,1,-1
 441 98 l 1,2,-1
 477 98 l 1,3,-1
 477 48 l 1,4,-1
 441 48 l 1,5,-1
 441 0 l 1,6,-1
 382 0 l 1,7,-1
 382 48 l 1,8,-1
 253 48 l 1,9,-1
 253 89 l 1,10,11
 276 130 276 130 303 173 c 0,12,13
 326 208 326 208 358 250 c 1,0,-1
21 381 m 1,14,-1
 36 430 l 1,15,16
 45 426 45 426 64 421 c 0,17,18
 79 417 79 417 100 417 c 0,19,20
 124 417 124 417 139 424 c 0,21,22
 155 430 155 430 155 447 c 0,23,24
 155 468 155 468 136 474 c 0,25,26
 116 480 116 480 79 480 c 2,27,-1
 67 480 l 1,28,-1
 67 530 l 1,29,-1
 89 530 l 2,30,31
 116 530 116 530 129 536 c 0,32,33
 143 541 143 541 143 559 c 0,34,35
 143 574 143 574 131 579 c 0,36,37
 119 583 119 583 104 583 c 0,38,39
 92 583 92 583 72 578 c 0,40,41
 62 576 62 576 42 568 c 1,42,-1
 23 611 l 1,43,44
 37 619 37 619 63 627 c 0,45,46
 87 633 87 633 113 633 c 0,47,48
 130 633 130 633 146 630 c 0,49,50
 164 625 164 625 175 619 c 0,51,52
 187 611 187 611 195 599 c 0,53,54
 202 586 202 586 202 568 c 0,55,56
 202 552 202 552 195 538 c 0,57,58
 187 522 187 522 171 512 c 1,59,60
 214 493 214 493 214 447 c 0,61,62
 214 432 214 432 208 419 c 0,63,64
 201 403 201 403 189 393 c 0,65,66
 176 382 176 382 155 374 c 0,67,68
 135 367 135 367 104 367 c 0,69,70
 60 367 60 367 21 381 c 1,14,-1
382 98 m 1,71,-1
 382 207 l 1,72,73
 358 176 358 176 344 152 c 0,74,75
 338 141 338 141 326.5 122.5 c 128,-1,76
 315 104 315 104 312 98 c 1,77,-1
 382 98 l 1,71,-1
479 619 m 1,78,-1
 100 0 l 1,79,-1
 30 0 l 1,80,-1
 409 619 l 1,81,-1
 479 619 l 1,78,-1
EndSplineSet
EndChar

StartChar: questiondown
Encoding: 191 191 129
Width: 500
GlyphClass: 2
Flags: W
LayerCount: 2
Fore
SplineSet
246 243 m 1,0,-1
 317 243 l 1,1,-1
 318 223 l 2,2,3
 318 193 318 193 308 172 c 0,4,5
 299 154 299 154 282 131 c 0,6,7
 268 114 268 114 248 96 c 0,8,9
 235 85 235 85 214 62 c 0,10,11
 200 48 200 48 188 26 c 0,12,13
 177 6 177 6 177 -16 c 0,14,15
 177 -54 177 -54 201 -77 c 0,16,17
 226 -100 226 -100 271 -100 c 0,18,19
 330 -100 330 -100 387 -70 c 1,20,-1
 410 -134 l 1,21,22
 384 -148 384 -148 342 -160 c 0,23,24
 306 -170 306 -170 261 -170 c 0,25,26
 211 -170 211 -170 178 -156 c 0,27,28
 146 -143 146 -143 126 -120 c 0,29,30
 108 -101 108 -101 100 -73 c 0,31,32
 92 -46 92 -46 92 -23 c 0,33,34
 92 8 92 8 104 30 c 0,35,36
 114 52 114 52 132 73 c 0,37,38
 143 86 143 86 169 110 c 0,39,40
 191 130 191 130 206 148 c 0,41,42
 222 167 222 167 235 191 c 0,43,44
 246 215 246 215 246 243 c 1,0,-1
274 465 m 256,45,46
 302 465 302 465 322 447 c 0,47,48
 341 428 341 428 341 397 c 128,-1,49
 341 366 341 366 322 348 c 0,50,51
 302 330 302 330 274 330 c 256,52,53
 246 330 246 330 227 348 c 0,54,55
 207 366 207 366 207 397 c 0,56,57
 207 427 207 427 227 447 c 0,58,59
 246 465 246 465 274 465 c 256,45,46
EndSplineSet
EndChar

StartChar: Agrave
Encoding: 192 192 130
Width: 500
GlyphClass: 2
Flags: W
LayerCount: 2
Fore
SplineSet
491 0 m 1,0,-1
 404 0 l 1,1,-1
 367 162 l 1,2,-1
 129 162 l 1,3,-1
 93 0 l 1,4,-1
 9 0 l 1,5,6
 22 51 22 51 47 143 c 0,7,8
 72 236 72 236 93 301 c 0,9,10
 115 377 115 377 144 464 c 0,11,12
 172 548 172 548 201 619 c 1,13,-1
 303 619 l 1,14,15
 334 539 334 539 359 464 c 0,16,17
 400 331 400 331 409 301 c 0,18,19
 413 285 413 285 429 228.5 c 128,-1,20
 445 172 445 172 453 143 c 0,21,22
 478 51 478 51 491 0 c 1,0,-1
249 547 m 1,23,24
 222 473 222 473 199 401 c 0,25,26
 172 318 172 318 148 230 c 1,27,-1
 348 230 l 1,28,29
 330 301 330 301 299 404 c 0,30,31
 274 480 274 480 249 547 c 1,23,24
167 777 m 1,32,-1
 220 830 l 1,33,-1
 334 692 l 1,34,-1
 292 655 l 1,35,-1
 167 777 l 1,32,-1
EndSplineSet
EndChar

StartChar: Aacute
Encoding: 193 193 131
Width: 500
GlyphClass: 2
Flags: W
LayerCount: 2
Fore
SplineSet
491 0 m 1,0,-1
 404 0 l 1,1,-1
 367 162 l 1,2,-1
 129 162 l 1,3,-1
 93 0 l 1,4,-1
 9 0 l 1,5,6
 22 51 22 51 47 143 c 0,7,8
 72 236 72 236 93 301 c 0,9,10
 115 377 115 377 144 464 c 0,11,12
 172 548 172 548 201 619 c 1,13,-1
 303 619 l 1,14,15
 334 539 334 539 359 464 c 0,16,17
 400 331 400 331 409 301 c 0,18,19
 413 285 413 285 429 228.5 c 128,-1,20
 445 172 445 172 453 143 c 0,21,22
 478 51 478 51 491 0 c 1,0,-1
249 547 m 1,23,24
 222 473 222 473 199 401 c 0,25,26
 172 318 172 318 148 230 c 1,27,-1
 348 230 l 1,28,29
 330 301 330 301 299 404 c 0,30,31
 274 480 274 480 249 547 c 1,23,24
281 830 m 1,32,-1
 335 777 l 1,33,-1
 209 655 l 1,34,-1
 167 692 l 1,35,-1
 281 830 l 1,32,-1
EndSplineSet
EndChar

StartChar: Acircumflex
Encoding: 194 194 132
Width: 500
GlyphClass: 2
Flags: W
LayerCount: 2
Fore
SplineSet
491 0 m 1,0,-1
 404 0 l 1,1,-1
 367 162 l 1,2,-1
 129 162 l 1,3,-1
 93 0 l 1,4,-1
 9 0 l 1,5,6
 22 51 22 51 47 143 c 0,7,8
 72 236 72 236 93 301 c 0,9,10
 115 377 115 377 144 464 c 0,11,12
 172 548 172 548 201 619 c 1,13,-1
 303 619 l 1,14,15
 334 539 334 539 359 464 c 0,16,17
 400 331 400 331 409 301 c 0,18,19
 413 285 413 285 429 228.5 c 128,-1,20
 445 172 445 172 453 143 c 0,21,22
 478 51 478 51 491 0 c 1,0,-1
249 547 m 1,23,24
 222 473 222 473 199 401 c 0,25,26
 172 318 172 318 148 230 c 1,27,-1
 348 230 l 1,28,29
 330 301 330 301 299 404 c 0,30,31
 274 480 274 480 249 547 c 1,23,24
129 698 m 1,32,-1
 250 826 l 1,33,-1
 371 698 l 1,34,-1
 337 659 l 1,35,-1
 250 737 l 1,36,-1
 163 659 l 1,37,-1
 129 698 l 1,32,-1
EndSplineSet
EndChar

StartChar: Atilde
Encoding: 195 195 133
Width: 500
GlyphClass: 2
Flags: W
LayerCount: 2
Fore
SplineSet
491 0 m 1,0,-1
 404 0 l 1,1,-1
 367 162 l 1,2,-1
 129 162 l 1,3,-1
 93 0 l 1,4,-1
 9 0 l 1,5,6
 22 51 22 51 47 143 c 0,7,8
 72 236 72 236 93 301 c 0,9,10
 115 377 115 377 144 464 c 0,11,12
 172 548 172 548 201 619 c 1,13,-1
 303 619 l 1,14,15
 334 539 334 539 359 464 c 0,16,17
 400 331 400 331 409 301 c 0,18,19
 413 285 413 285 429 228.5 c 128,-1,20
 445 172 445 172 453 143 c 0,21,22
 478 51 478 51 491 0 c 1,0,-1
249 547 m 1,23,24
 222 473 222 473 199 401 c 0,25,26
 172 318 172 318 148 230 c 1,27,-1
 348 230 l 1,28,29
 330 301 330 301 299 404 c 0,30,31
 274 480 274 480 249 547 c 1,23,24
345 796 m 1,32,-1
 388 774 l 1,33,34
 384 760 384 760 378 749 c 0,35,36
 371 737 371 737 359 723 c 0,37,38
 348 711 348 711 333 703 c 0,39,40
 318 694 318 694 299 694 c 0,41,42
 284 694 284 694 269 701 c 0,43,44
 264 703 264 703 254 707 c 128,-1,45
 244 711 244 711 240 713 c 0,46,47
 214 727 214 727 198 727 c 0,48,49
 185 727 185 727 173 714 c 0,50,51
 161 700 161 700 155 687 c 1,52,-1
 112 710 l 1,53,54
 115 721 115 721 123 735 c 0,55,56
 131 750 131 750 141 761 c 128,-1,57
 151 772 151 772 167 782 c 0,58,59
 183 790 183 790 200 790 c 0,60,61
 214 790 214 790 231 783 c 0,62,63
 236 781 236 781 245.5 776.5 c 128,-1,64
 255 772 255 772 259 770 c 0,65,66
 285 756 285 756 301 756 c 0,67,68
 314 756 314 756 327 769 c 0,69,70
 339 782 339 782 345 796 c 1,32,-1
EndSplineSet
EndChar

StartChar: Adieresis
Encoding: 196 196 134
Width: 500
GlyphClass: 2
Flags: W
LayerCount: 2
Fore
SplineSet
491 0 m 1,0,-1
 404 0 l 1,1,-1
 367 162 l 1,2,-1
 129 162 l 1,3,-1
 93 0 l 1,4,-1
 9 0 l 1,5,6
 22 51 22 51 47 143 c 0,7,8
 72 236 72 236 93 301 c 0,9,10
 115 377 115 377 144 464 c 0,11,12
 172 548 172 548 201 619 c 1,13,-1
 303 619 l 1,14,15
 334 539 334 539 359 464 c 0,16,17
 400 331 400 331 409 301 c 0,18,19
 413 285 413 285 429 228.5 c 128,-1,20
 445 172 445 172 453 143 c 0,21,22
 478 51 478 51 491 0 c 1,0,-1
249 547 m 1,23,24
 222 473 222 473 199 401 c 0,25,26
 172 318 172 318 148 230 c 1,27,-1
 348 230 l 1,28,29
 330 301 330 301 299 404 c 0,30,31
 274 480 274 480 249 547 c 1,23,24
165 689 m 0,32,33
 146 689 146 689 129 704 c 0,34,35
 113 719 113 719 113 742 c 128,-1,36
 113 765 113 765 129 780 c 0,37,38
 146 794 146 794 165 794 c 0,39,40
 185 794 185 794 202 780 c 0,41,42
 217 765 217 765 217 742 c 128,-1,43
 217 719 217 719 202 704 c 0,44,45
 186 689 186 689 165 689 c 0,32,33
335 689 m 128,-1,47
 314 689 314 689 299 704 c 0,48,49
 283 719 283 719 283 742 c 128,-1,50
 283 765 283 765 299 780 c 0,51,52
 315 794 315 794 335 794 c 128,-1,53
 355 794 355 794 372 780 c 0,54,55
 387 765 387 765 387 742 c 128,-1,56
 387 719 387 719 372 704 c 0,57,46
 356 689 356 689 335 689 c 128,-1,47
EndSplineSet
EndChar

StartChar: Aring
Encoding: 197 197 135
Width: 500
GlyphClass: 2
Flags: W
LayerCount: 2
Fore
SplineSet
491 0 m 1,0,-1
 404 0 l 1,1,-1
 367 162 l 1,2,-1
 129 162 l 1,3,-1
 93 0 l 1,4,-1
 9 0 l 1,5,6
 35 101 35 101 47 141 c 0,7,8
 71 229 71 229 92 298 c 0,9,10
 111 360 111 360 142 452 c 0,11,12
 168 529 168 529 193 586 c 1,13,14
 179 598 179 598 169 617 c 0,15,16
 159 634 159 634 159 658 c 0,17,18
 159 700 159 700 187 725 c 0,19,20
 214 749 214 749 251 749 c 128,-1,21
 288 749 288 749 316 725 c 0,22,23
 343 699 343 699 343 658 c 0,24,25
 343 636 343 636 334 617 c 0,26,27
 324 598 324 598 310 587 c 1,28,29
 335 530 335 530 361 453 c 0,30,31
 381 392 381 392 410 297 c 0,32,33
 440 191 440 191 454 140 c 0,34,35
 462 109 462 109 491 0 c 1,0,-1
249 547 m 1,36,37
 222 473 222 473 199 401 c 0,38,39
 172 318 172 318 148 230 c 1,40,-1
 348 230 l 1,41,42
 330 301 330 301 299 404 c 0,43,44
 274 480 274 480 249 547 c 1,36,37
298 658 m 128,-1,46
 298 681 298 681 285 694 c 128,-1,47
 272 707 272 707 251 707 c 0,48,49
 231 707 231 707 218 694 c 0,50,51
 204 680 204 680 204 658 c 128,-1,52
 204 636 204 636 218 622 c 0,53,54
 231 609 231 609 251 609 c 0,55,56
 272 609 272 609 285 622 c 128,-1,45
 298 635 298 635 298 658 c 128,-1,46
EndSplineSet
EndChar

StartChar: AE
Encoding: 198 198 136
Width: 500
GlyphClass: 2
Flags: W
LayerCount: 2
Fore
SplineSet
482 0 m 1,0,-1
 263 0 l 1,1,-1
 263 162 l 1,2,-1
 145 162 l 1,3,-1
 108 0 l 1,4,-1
 27 0 l 1,5,6
 75 185 75 185 118 327 c 0,7,8
 169 494 169 494 219 619 c 1,9,-1
 469 619 l 1,10,-1
 469 549 l 1,11,-1
 341 549 l 1,12,-1
 341 359 l 1,13,-1
 446 359 l 1,14,-1
 446 289 l 1,15,-1
 341 289 l 1,16,-1
 341 70 l 1,17,-1
 482 70 l 1,18,-1
 482 0 l 1,0,-1
263 230 m 1,19,-1
 263 566 l 1,20,21
 244 507 244 507 210 391 c 0,22,23
 170 256 170 256 163 230 c 1,24,-1
 263 230 l 1,19,-1
EndSplineSet
EndChar

StartChar: Ccedilla
Encoding: 199 199 137
Width: 500
GlyphClass: 2
Flags: W
LayerCount: 2
Fore
SplineSet
328 -12 m 1,0,-1
 317 -33 l 1,1,2
 343 -45 343 -45 355 -60 c 0,3,4
 366 -76 366 -76 366 -104 c 0,5,6
 366 -116 366 -116 362 -125 c 0,7,8
 358 -137 358 -137 347 -146 c 0,9,10
 338 -155 338 -155 319 -162 c 0,11,12
 302 -169 302 -169 275 -169 c 0,13,14
 249 -169 249 -169 232 -165 c 0,15,16
 213 -162 213 -162 201 -157 c 1,17,-1
 211 -106 l 1,18,19
 221 -110 221 -110 234 -112 c 0,20,21
 246 -115 246 -115 261 -115 c 0,22,23
 293 -115 293 -115 293 -95 c 0,24,25
 293 -74 293 -74 256 -64 c 2,26,-1
 249 -62 l 1,27,28
 250 -59 250 -59 253.5 -50.5 c 128,-1,29
 257 -42 257 -42 259 -37 c 128,-1,30
 261 -32 261 -32 265 -23.5 c 128,-1,31
 269 -15 269 -15 271 -11 c 1,32,33
 222 -6 222 -6 181 16 c 0,34,35
 138 37 138 37 109 77 c 0,36,37
 79 117 79 117 63 175 c 0,38,39
 46 235 46 235 46 310 c 0,40,41
 46 389 46 389 67 449 c 0,42,43
 86 508 86 508 122 550 c 0,44,45
 157 591 157 591 204 612 c 0,46,47
 250 633 250 633 304 633 c 0,48,49
 343 633 343 633 380 623 c 0,50,51
 418 612 418 612 455 590 c 1,52,-1
 431 522 l 1,53,54
 364 560 364 560 307 560 c 0,55,56
 266 560 266 560 234 543 c 0,57,58
 200 525 200 525 178 492 c 0,59,60
 154 458 154 458 143 413 c 0,61,62
 130 368 130 368 130 310 c 0,63,64
 130 247 130 247 144 199 c 128,-1,65
 158 151 158 151 181 121 c 0,66,67
 205 90 205 90 239 75 c 0,68,69
 272 60 272 60 311 60 c 0,70,71
 338 60 338 60 372 68 c 0,72,73
 407 76 407 76 438 94 c 1,74,-1
 460 26 l 1,75,76
 401 -8 401 -8 328 -12 c 1,0,-1
EndSplineSet
EndChar

StartChar: Egrave
Encoding: 200 200 138
Width: 500
GlyphClass: 2
Flags: W
LayerCount: 2
Fore
SplineSet
460 0 m 1,0,-1
 91 0 l 1,1,-1
 91 619 l 1,2,-1
 438 619 l 1,3,-1
 438 549 l 1,4,-1
 173 549 l 1,5,-1
 173 359 l 1,6,-1
 405 359 l 1,7,-1
 405 289 l 1,8,-1
 173 289 l 1,9,-1
 173 70 l 1,10,-1
 460 70 l 1,11,-1
 460 0 l 1,0,-1
177 777 m 1,12,-1
 230 830 l 1,13,-1
 344 692 l 1,14,-1
 302 655 l 1,15,-1
 177 777 l 1,12,-1
EndSplineSet
EndChar

StartChar: Eacute
Encoding: 201 201 139
Width: 500
GlyphClass: 2
Flags: W
LayerCount: 2
Fore
SplineSet
460 0 m 1,0,-1
 91 0 l 1,1,-1
 91 619 l 1,2,-1
 438 619 l 1,3,-1
 438 549 l 1,4,-1
 173 549 l 1,5,-1
 173 359 l 1,6,-1
 405 359 l 1,7,-1
 405 289 l 1,8,-1
 173 289 l 1,9,-1
 173 70 l 1,10,-1
 460 70 l 1,11,-1
 460 0 l 1,0,-1
310 830 m 1,12,-1
 364 777 l 1,13,-1
 238 655 l 1,14,-1
 196 692 l 1,15,-1
 310 830 l 1,12,-1
EndSplineSet
EndChar

StartChar: Ecircumflex
Encoding: 202 202 140
Width: 500
GlyphClass: 2
Flags: W
LayerCount: 2
Fore
SplineSet
460 0 m 1,0,-1
 91 0 l 1,1,-1
 91 619 l 1,2,-1
 438 619 l 1,3,-1
 438 549 l 1,4,-1
 173 549 l 1,5,-1
 173 359 l 1,6,-1
 405 359 l 1,7,-1
 405 289 l 1,8,-1
 173 289 l 1,9,-1
 173 70 l 1,10,-1
 460 70 l 1,11,-1
 460 0 l 1,0,-1
147 698 m 1,12,-1
 268 826 l 1,13,-1
 389 698 l 1,14,-1
 355 659 l 1,15,-1
 268 737 l 1,16,-1
 181 659 l 1,17,-1
 147 698 l 1,12,-1
EndSplineSet
EndChar

StartChar: Edieresis
Encoding: 203 203 141
Width: 500
GlyphClass: 2
Flags: W
LayerCount: 2
Fore
SplineSet
460 0 m 1,0,-1
 91 0 l 1,1,-1
 91 619 l 1,2,-1
 438 619 l 1,3,-1
 438 549 l 1,4,-1
 173 549 l 1,5,-1
 173 359 l 1,6,-1
 405 359 l 1,7,-1
 405 289 l 1,8,-1
 173 289 l 1,9,-1
 173 70 l 1,10,-1
 460 70 l 1,11,-1
 460 0 l 1,0,-1
183 689 m 0,12,13
 164 689 164 689 147 704 c 0,14,15
 131 719 131 719 131 742 c 128,-1,16
 131 765 131 765 147 780 c 0,17,18
 164 794 164 794 183 794 c 0,19,20
 203 794 203 794 220 780 c 0,21,22
 235 765 235 765 235 742 c 128,-1,23
 235 719 235 719 220 704 c 0,24,25
 204 689 204 689 183 689 c 0,12,13
353 689 m 128,-1,27
 332 689 332 689 317 704 c 0,28,29
 301 719 301 719 301 742 c 128,-1,30
 301 765 301 765 317 780 c 0,31,32
 333 794 333 794 353 794 c 128,-1,33
 373 794 373 794 390 780 c 0,34,35
 405 765 405 765 405 742 c 128,-1,36
 405 719 405 719 390 704 c 0,37,26
 374 689 374 689 353 689 c 128,-1,27
EndSplineSet
EndChar

StartChar: Igrave
Encoding: 204 204 142
Width: 500
GlyphClass: 2
Flags: W
LayerCount: 2
Fore
SplineSet
411 549 m 1,0,-1
 291 549 l 1,1,-1
 291 70 l 1,2,-1
 411 70 l 1,3,-1
 411 0 l 1,4,-1
 89 0 l 1,5,-1
 89 70 l 1,6,-1
 209 70 l 1,7,-1
 209 549 l 1,8,-1
 89 549 l 1,9,-1
 89 619 l 1,10,-1
 411 619 l 1,11,-1
 411 549 l 1,0,-1
168 777 m 1,12,-1
 221 830 l 1,13,-1
 335 692 l 1,14,-1
 293 655 l 1,15,-1
 168 777 l 1,12,-1
EndSplineSet
EndChar

StartChar: Iacute
Encoding: 205 205 143
Width: 500
GlyphClass: 2
Flags: W
LayerCount: 2
Fore
SplineSet
411 549 m 1,0,-1
 291 549 l 1,1,-1
 291 70 l 1,2,-1
 411 70 l 1,3,-1
 411 0 l 1,4,-1
 89 0 l 1,5,-1
 89 70 l 1,6,-1
 209 70 l 1,7,-1
 209 549 l 1,8,-1
 89 549 l 1,9,-1
 89 619 l 1,10,-1
 411 619 l 1,11,-1
 411 549 l 1,0,-1
294 830 m 1,12,-1
 348 777 l 1,13,-1
 222 655 l 1,14,-1
 180 692 l 1,15,-1
 294 830 l 1,12,-1
EndSplineSet
EndChar

StartChar: Icircumflex
Encoding: 206 206 144
Width: 500
GlyphClass: 2
Flags: W
LayerCount: 2
Fore
SplineSet
411 549 m 1,0,-1
 291 549 l 1,1,-1
 291 70 l 1,2,-1
 411 70 l 1,3,-1
 411 0 l 1,4,-1
 89 0 l 1,5,-1
 89 70 l 1,6,-1
 209 70 l 1,7,-1
 209 549 l 1,8,-1
 89 549 l 1,9,-1
 89 619 l 1,10,-1
 411 619 l 1,11,-1
 411 549 l 1,0,-1
129 698 m 1,12,-1
 250 826 l 1,13,-1
 371 698 l 1,14,-1
 337 659 l 1,15,-1
 250 737 l 1,16,-1
 163 659 l 1,17,-1
 129 698 l 1,12,-1
EndSplineSet
EndChar

StartChar: Idieresis
Encoding: 207 207 145
Width: 500
GlyphClass: 2
Flags: W
LayerCount: 2
Fore
SplineSet
411 549 m 1,0,-1
 291 549 l 1,1,-1
 291 70 l 1,2,-1
 411 70 l 1,3,-1
 411 0 l 1,4,-1
 89 0 l 1,5,-1
 89 70 l 1,6,-1
 209 70 l 1,7,-1
 209 549 l 1,8,-1
 89 549 l 1,9,-1
 89 619 l 1,10,-1
 411 619 l 1,11,-1
 411 549 l 1,0,-1
165 689 m 0,12,13
 146 689 146 689 129 704 c 0,14,15
 113 719 113 719 113 742 c 128,-1,16
 113 765 113 765 129 780 c 0,17,18
 146 794 146 794 165 794 c 0,19,20
 185 794 185 794 202 780 c 0,21,22
 217 765 217 765 217 742 c 128,-1,23
 217 719 217 719 202 704 c 0,24,25
 186 689 186 689 165 689 c 0,12,13
335 689 m 128,-1,27
 314 689 314 689 299 704 c 0,28,29
 283 719 283 719 283 742 c 128,-1,30
 283 765 283 765 299 780 c 0,31,32
 315 794 315 794 335 794 c 128,-1,33
 355 794 355 794 372 780 c 0,34,35
 387 765 387 765 387 742 c 128,-1,36
 387 719 387 719 372 704 c 0,37,26
 356 689 356 689 335 689 c 128,-1,27
EndSplineSet
EndChar

StartChar: Eth
Encoding: 208 208 146
Width: 500
GlyphClass: 2
Flags: W
LayerCount: 2
Fore
SplineSet
460 310 m 0,0,1
 460 226 460 226 440 164 c 0,2,3
 420 106 420 106 384 67 c 0,4,5
 346 28 346 28 299 12 c 0,6,7
 248 -5 248 -5 193 -5 c 0,8,9
 132 -5 132 -5 71 10 c 1,10,-1
 71 291 l 1,11,-1
 18 291 l 1,12,-1
 18 355 l 1,13,-1
 71 355 l 1,14,-1
 71 610 l 1,15,16
 133 625 133 625 193 625 c 0,17,18
 248 625 248 625 299 608 c 0,19,20
 346 592 346 592 384 553 c 0,21,22
 419 515 419 515 440 455 c 0,23,24
 460 393 460 393 460 310 c 0,0,1
154 291 m 1,25,-1
 154 69 l 1,26,27
 168 67 168 67 177 67 c 0,28,29
 185 66 185 66 200 66 c 0,30,31
 241 66 241 66 275 80 c 128,-1,32
 309 94 309 94 330 123 c 0,33,34
 351 150 351 150 364 199 c 0,35,36
 376 246 376 246 376 310 c 0,37,38
 376 436 376 436 331 495 c 0,39,40
 284 554 284 554 197 554 c 0,41,42
 172 554 172 554 154 551 c 1,43,-1
 154 355 l 1,44,-1
 252 355 l 1,45,-1
 252 291 l 1,46,-1
 154 291 l 1,25,-1
EndSplineSet
EndChar

StartChar: Ntilde
Encoding: 209 209 147
Width: 500
GlyphClass: 2
Flags: W
LayerCount: 2
Fore
SplineSet
445 0 m 1,0,-1
 361 0 l 1,1,2
 311 118 311 118 297 151 c 0,3,4
 267 218 267 218 240 277 c 0,5,6
 193 373 193 373 185 389 c 0,7,8
 149 459 149 459 130 494 c 1,9,-1
 130 0 l 1,10,-1
 55 0 l 1,11,-1
 55 619 l 1,12,-1
 139 619 l 1,13,14
 185 534 185 534 211 488 c 0,15,16
 246 423 246 423 267 380 c 128,-1,17
 288 337 288 337 316 272 c 0,18,19
 340 216 340 216 370 143 c 1,20,-1
 370 619 l 1,21,-1
 445 619 l 1,22,-1
 445 0 l 1,0,-1
345 796 m 1,23,-1
 388 774 l 1,24,25
 384 760 384 760 378 749 c 0,26,27
 371 737 371 737 359 723 c 0,28,29
 348 711 348 711 333 703 c 0,30,31
 318 694 318 694 299 694 c 0,32,33
 284 694 284 694 269 701 c 0,34,35
 264 703 264 703 254 707 c 128,-1,36
 244 711 244 711 240 713 c 0,37,38
 214 727 214 727 198 727 c 0,39,40
 185 727 185 727 173 714 c 0,41,42
 161 700 161 700 155 687 c 1,43,-1
 112 710 l 1,44,45
 115 721 115 721 123 735 c 0,46,47
 131 750 131 750 141 761 c 128,-1,48
 151 772 151 772 167 782 c 0,49,50
 183 790 183 790 200 790 c 0,51,52
 214 790 214 790 231 783 c 0,53,54
 236 781 236 781 245.5 776.5 c 128,-1,55
 255 772 255 772 259 770 c 0,56,57
 285 756 285 756 301 756 c 0,58,59
 314 756 314 756 327 769 c 0,60,61
 339 782 339 782 345 796 c 1,23,-1
EndSplineSet
EndChar

StartChar: Ograve
Encoding: 210 210 148
Width: 500
GlyphClass: 2
Flags: W
LayerCount: 2
Fore
SplineSet
29 310 m 128,-1,1
 29 394 29 394 45 454 c 128,-1,2
 61 514 61 514 90 555 c 0,3,4
 119 594 119 594 160 614 c 0,5,6
 199 633 199 633 250 633 c 128,-1,7
 301 633 301 633 340 614 c 0,8,9
 381 594 381 594 410 555 c 0,10,11
 441 512 441 512 456 454 c 0,12,13
 472 394 472 394 472 310 c 128,-1,14
 472 226 472 226 456 166 c 0,15,16
 441 108 441 108 410 65 c 0,17,18
 383 27 383 27 340 6 c 0,19,20
 301 -13 301 -13 250 -13 c 128,-1,21
 199 -13 199 -13 160 6 c 0,22,23
 117 27 117 27 90 65 c 0,24,25
 61 106 61 106 45 166 c 128,-1,0
 29 226 29 226 29 310 c 128,-1,1
113 310 m 128,-1,27
 113 188 113 188 146 123 c 128,-1,28
 179 58 179 58 248 58 c 0,29,30
 318 58 318 58 353 123 c 128,-1,31
 388 188 388 188 388 310 c 128,-1,32
 388 432 388 432 353 497 c 128,-1,33
 318 562 318 562 248 562 c 0,34,35
 179 562 179 562 146 497 c 128,-1,26
 113 432 113 432 113 310 c 128,-1,27
168 777 m 1,36,-1
 221 830 l 1,37,-1
 335 692 l 1,38,-1
 293 655 l 1,39,-1
 168 777 l 1,36,-1
EndSplineSet
EndChar

StartChar: Oacute
Encoding: 211 211 149
Width: 500
GlyphClass: 2
Flags: W
LayerCount: 2
Fore
SplineSet
29 310 m 128,-1,1
 29 394 29 394 45 454 c 128,-1,2
 61 514 61 514 90 555 c 0,3,4
 119 594 119 594 160 614 c 0,5,6
 199 633 199 633 250 633 c 128,-1,7
 301 633 301 633 340 614 c 0,8,9
 381 594 381 594 410 555 c 0,10,11
 441 512 441 512 456 454 c 0,12,13
 472 394 472 394 472 310 c 128,-1,14
 472 226 472 226 456 166 c 0,15,16
 441 108 441 108 410 65 c 0,17,18
 383 27 383 27 340 6 c 0,19,20
 301 -13 301 -13 250 -13 c 128,-1,21
 199 -13 199 -13 160 6 c 0,22,23
 117 27 117 27 90 65 c 0,24,25
 61 106 61 106 45 166 c 128,-1,0
 29 226 29 226 29 310 c 128,-1,1
113 310 m 128,-1,27
 113 188 113 188 146 123 c 128,-1,28
 179 58 179 58 248 58 c 0,29,30
 318 58 318 58 353 123 c 128,-1,31
 388 188 388 188 388 310 c 128,-1,32
 388 432 388 432 353 497 c 128,-1,33
 318 562 318 562 248 562 c 0,34,35
 179 562 179 562 146 497 c 128,-1,26
 113 432 113 432 113 310 c 128,-1,27
293 830 m 1,36,-1
 347 777 l 1,37,-1
 221 655 l 1,38,-1
 179 692 l 1,39,-1
 293 830 l 1,36,-1
EndSplineSet
EndChar

StartChar: Ocircumflex
Encoding: 212 212 150
Width: 500
GlyphClass: 2
Flags: W
LayerCount: 2
Fore
SplineSet
29 310 m 128,-1,1
 29 394 29 394 45 454 c 128,-1,2
 61 514 61 514 90 555 c 0,3,4
 119 594 119 594 160 614 c 0,5,6
 199 633 199 633 250 633 c 128,-1,7
 301 633 301 633 340 614 c 0,8,9
 381 594 381 594 410 555 c 0,10,11
 441 512 441 512 456 454 c 0,12,13
 472 394 472 394 472 310 c 128,-1,14
 472 226 472 226 456 166 c 0,15,16
 441 108 441 108 410 65 c 0,17,18
 383 27 383 27 340 6 c 0,19,20
 301 -13 301 -13 250 -13 c 128,-1,21
 199 -13 199 -13 160 6 c 0,22,23
 117 27 117 27 90 65 c 0,24,25
 61 106 61 106 45 166 c 128,-1,0
 29 226 29 226 29 310 c 128,-1,1
113 310 m 128,-1,27
 113 188 113 188 146 123 c 128,-1,28
 179 58 179 58 248 58 c 0,29,30
 318 58 318 58 353 123 c 128,-1,31
 388 188 388 188 388 310 c 128,-1,32
 388 432 388 432 353 497 c 128,-1,33
 318 562 318 562 248 562 c 0,34,35
 179 562 179 562 146 497 c 128,-1,26
 113 432 113 432 113 310 c 128,-1,27
129 698 m 1,36,-1
 250 826 l 1,37,-1
 371 698 l 1,38,-1
 337 659 l 1,39,-1
 250 737 l 1,40,-1
 163 659 l 1,41,-1
 129 698 l 1,36,-1
EndSplineSet
EndChar

StartChar: Otilde
Encoding: 213 213 151
Width: 500
GlyphClass: 2
Flags: W
LayerCount: 2
Fore
SplineSet
29 310 m 128,-1,1
 29 394 29 394 45 454 c 128,-1,2
 61 514 61 514 90 555 c 0,3,4
 119 594 119 594 160 614 c 0,5,6
 199 633 199 633 250 633 c 128,-1,7
 301 633 301 633 340 614 c 0,8,9
 381 594 381 594 410 555 c 0,10,11
 441 512 441 512 456 454 c 0,12,13
 472 394 472 394 472 310 c 128,-1,14
 472 226 472 226 456 166 c 0,15,16
 441 108 441 108 410 65 c 0,17,18
 383 27 383 27 340 6 c 0,19,20
 301 -13 301 -13 250 -13 c 128,-1,21
 199 -13 199 -13 160 6 c 0,22,23
 117 27 117 27 90 65 c 0,24,25
 61 106 61 106 45 166 c 128,-1,0
 29 226 29 226 29 310 c 128,-1,1
113 310 m 128,-1,27
 113 188 113 188 146 123 c 128,-1,28
 179 58 179 58 248 58 c 0,29,30
 318 58 318 58 353 123 c 128,-1,31
 388 188 388 188 388 310 c 128,-1,32
 388 432 388 432 353 497 c 128,-1,33
 318 562 318 562 248 562 c 0,34,35
 179 562 179 562 146 497 c 128,-1,26
 113 432 113 432 113 310 c 128,-1,27
345 796 m 1,36,-1
 388 774 l 1,37,38
 384 760 384 760 378 749 c 0,39,40
 371 737 371 737 359 723 c 0,41,42
 348 711 348 711 333 703 c 0,43,44
 318 694 318 694 299 694 c 0,45,46
 284 694 284 694 269 701 c 0,47,48
 264 703 264 703 254 707 c 128,-1,49
 244 711 244 711 240 713 c 0,50,51
 214 727 214 727 198 727 c 0,52,53
 185 727 185 727 173 714 c 0,54,55
 161 700 161 700 155 687 c 1,56,-1
 112 710 l 1,57,58
 115 721 115 721 123 735 c 0,59,60
 131 750 131 750 141 761 c 128,-1,61
 151 772 151 772 167 782 c 0,62,63
 183 790 183 790 200 790 c 0,64,65
 214 790 214 790 231 783 c 0,66,67
 236 781 236 781 245.5 776.5 c 128,-1,68
 255 772 255 772 259 770 c 0,69,70
 285 756 285 756 301 756 c 0,71,72
 314 756 314 756 327 769 c 0,73,74
 339 782 339 782 345 796 c 1,36,-1
EndSplineSet
EndChar

StartChar: Odieresis
Encoding: 214 214 152
Width: 500
GlyphClass: 2
Flags: W
LayerCount: 2
Fore
SplineSet
29 310 m 128,-1,1
 29 394 29 394 45 454 c 128,-1,2
 61 514 61 514 90 555 c 0,3,4
 119 594 119 594 160 614 c 0,5,6
 199 633 199 633 250 633 c 128,-1,7
 301 633 301 633 340 614 c 0,8,9
 381 594 381 594 410 555 c 0,10,11
 441 512 441 512 456 454 c 0,12,13
 472 394 472 394 472 310 c 128,-1,14
 472 226 472 226 456 166 c 0,15,16
 441 108 441 108 410 65 c 0,17,18
 383 27 383 27 340 6 c 0,19,20
 301 -13 301 -13 250 -13 c 128,-1,21
 199 -13 199 -13 160 6 c 0,22,23
 117 27 117 27 90 65 c 0,24,25
 61 106 61 106 45 166 c 128,-1,0
 29 226 29 226 29 310 c 128,-1,1
113 310 m 128,-1,27
 113 188 113 188 146 123 c 128,-1,28
 179 58 179 58 248 58 c 0,29,30
 318 58 318 58 353 123 c 128,-1,31
 388 188 388 188 388 310 c 128,-1,32
 388 432 388 432 353 497 c 128,-1,33
 318 562 318 562 248 562 c 0,34,35
 179 562 179 562 146 497 c 128,-1,26
 113 432 113 432 113 310 c 128,-1,27
165 689 m 0,36,37
 146 689 146 689 129 704 c 0,38,39
 113 719 113 719 113 742 c 128,-1,40
 113 765 113 765 129 780 c 0,41,42
 146 794 146 794 165 794 c 0,43,44
 185 794 185 794 202 780 c 0,45,46
 217 765 217 765 217 742 c 128,-1,47
 217 719 217 719 202 704 c 0,48,49
 186 689 186 689 165 689 c 0,36,37
335 689 m 128,-1,51
 314 689 314 689 299 704 c 0,52,53
 283 719 283 719 283 742 c 128,-1,54
 283 765 283 765 299 780 c 0,55,56
 315 794 315 794 335 794 c 128,-1,57
 355 794 355 794 372 780 c 0,58,59
 387 765 387 765 387 742 c 128,-1,60
 387 719 387 719 372 704 c 0,61,50
 356 689 356 689 335 689 c 128,-1,51
EndSplineSet
EndChar

StartChar: multiply
Encoding: 215 215 153
Width: 500
GlyphClass: 2
Flags: W
LayerCount: 2
Fore
SplineSet
430 132 m 1,0,-1
 380 82 l 1,1,-1
 250 213 l 1,2,-1
 120 82 l 1,3,-1
 70 132 l 1,4,-1
 200 263 l 1,5,-1
 70 393 l 1,6,-1
 120 443 l 1,7,-1
 250 313 l 1,8,-1
 380 443 l 1,9,-1
 430 393 l 1,10,-1
 300 263 l 1,11,-1
 430 132 l 1,0,-1
EndSplineSet
EndChar

StartChar: Oslash
Encoding: 216 216 154
Width: 500
GlyphClass: 2
Flags: W
LayerCount: 2
Fore
SplineSet
29 310 m 0,0,1
 29 394 29 394 45 454 c 128,-1,2
 61 514 61 514 90 555 c 0,3,4
 119 594 119 594 160 614 c 0,5,6
 199 633 199 633 250 633 c 0,7,8
 306 633 306 633 353 606 c 1,9,-1
 374 651 l 1,10,-1
 436 620 l 1,11,-1
 406 559 l 1,12,13
 437 520 437 520 455 457 c 0,14,15
 472 394 472 394 472 310 c 128,-1,16
 472 226 472 226 456 166 c 0,17,18
 441 108 441 108 410 65 c 0,19,20
 383 27 383 27 340 6 c 0,21,22
 301 -13 301 -13 250 -13 c 0,23,24
 188 -13 188 -13 142 15 c 1,25,-1
 119 -33 l 1,26,-1
 58 -2 l 1,27,-1
 90 64 l 1,28,29
 60 105 60 105 45 165 c 0,30,31
 29 223 29 223 29 310 c 0,0,1
388 310 m 0,32,33
 388 355 388 355 383 402 c 0,34,35
 377 443 377 443 365 475 c 1,36,-1
 174 81 l 1,37,38
 189 68 189 68 209 63 c 0,39,40
 231 58 231 58 248 58 c 0,41,42
 318 58 318 58 353 123 c 128,-1,43
 388 188 388 188 388 310 c 0,32,33
113 310 m 0,44,45
 113 262 113 262 116 221 c 0,46,47
 119 182 119 182 130 148 c 1,48,-1
 320 540 l 1,49,50
 304 553 304 553 287 557 c 0,51,52
 267 562 267 562 248 562 c 0,53,54
 179 562 179 562 146 497 c 128,-1,55
 113 432 113 432 113 310 c 0,44,45
EndSplineSet
EndChar

StartChar: Ugrave
Encoding: 217 217 155
Width: 500
GlyphClass: 2
Flags: W
LayerCount: 2
Fore
SplineSet
250 -13 m 0,0,1
 193 -13 193 -13 157 3 c 0,2,3
 118 20 118 20 94 48 c 0,4,5
 69 77 69 77 59 119 c 0,6,7
 48 163 48 163 48 213 c 2,8,-1
 48 619 l 1,9,-1
 130 619 l 1,10,-1
 130 222 l 2,11,12
 130 176 130 176 139 144 c 0,13,14
 146 112 146 112 163 93 c 0,15,16
 178 73 178 73 200 66 c 0,17,18
 224 58 224 58 250 58 c 128,-1,19
 276 58 276 58 300 66 c 0,20,21
 321 73 321 73 338 93 c 0,22,23
 353 112 353 112 362 144 c 0,24,25
 370 178 370 178 370 222 c 2,26,-1
 370 619 l 1,27,-1
 452 619 l 1,28,-1
 452 213 l 2,29,30
 452 163 452 163 441 119 c 0,31,32
 431 77 431 77 406 48 c 0,33,34
 382 20 382 20 344 3 c 0,35,36
 306 -13 306 -13 250 -13 c 0,0,1
163 777 m 1,37,-1
 216 830 l 1,38,-1
 330 692 l 1,39,-1
 288 655 l 1,40,-1
 163 777 l 1,37,-1
EndSplineSet
EndChar

StartChar: Uacute
Encoding: 218 218 156
Width: 500
GlyphClass: 2
Flags: W
LayerCount: 2
Fore
SplineSet
250 -13 m 0,0,1
 193 -13 193 -13 157 3 c 0,2,3
 118 20 118 20 94 48 c 0,4,5
 69 77 69 77 59 119 c 0,6,7
 48 163 48 163 48 213 c 2,8,-1
 48 619 l 1,9,-1
 130 619 l 1,10,-1
 130 222 l 2,11,12
 130 176 130 176 139 144 c 0,13,14
 146 112 146 112 163 93 c 0,15,16
 178 73 178 73 200 66 c 0,17,18
 224 58 224 58 250 58 c 128,-1,19
 276 58 276 58 300 66 c 0,20,21
 321 73 321 73 338 93 c 0,22,23
 353 112 353 112 362 144 c 0,24,25
 370 178 370 178 370 222 c 2,26,-1
 370 619 l 1,27,-1
 452 619 l 1,28,-1
 452 213 l 2,29,30
 452 163 452 163 441 119 c 0,31,32
 431 77 431 77 406 48 c 0,33,34
 382 20 382 20 344 3 c 0,35,36
 306 -13 306 -13 250 -13 c 0,0,1
293 830 m 1,37,-1
 347 777 l 1,38,-1
 221 655 l 1,39,-1
 179 692 l 1,40,-1
 293 830 l 1,37,-1
EndSplineSet
EndChar

StartChar: Ucircumflex
Encoding: 219 219 157
Width: 500
GlyphClass: 2
Flags: W
LayerCount: 2
Fore
SplineSet
250 -13 m 0,0,1
 193 -13 193 -13 157 3 c 0,2,3
 118 20 118 20 94 48 c 0,4,5
 69 77 69 77 59 119 c 0,6,7
 48 163 48 163 48 213 c 2,8,-1
 48 619 l 1,9,-1
 130 619 l 1,10,-1
 130 222 l 2,11,12
 130 176 130 176 139 144 c 0,13,14
 146 112 146 112 163 93 c 0,15,16
 178 73 178 73 200 66 c 0,17,18
 224 58 224 58 250 58 c 128,-1,19
 276 58 276 58 300 66 c 0,20,21
 321 73 321 73 338 93 c 0,22,23
 353 112 353 112 362 144 c 0,24,25
 370 178 370 178 370 222 c 2,26,-1
 370 619 l 1,27,-1
 452 619 l 1,28,-1
 452 213 l 2,29,30
 452 163 452 163 441 119 c 0,31,32
 431 77 431 77 406 48 c 0,33,34
 382 20 382 20 344 3 c 0,35,36
 306 -13 306 -13 250 -13 c 0,0,1
129 698 m 1,37,-1
 250 826 l 1,38,-1
 371 698 l 1,39,-1
 337 659 l 1,40,-1
 250 737 l 1,41,-1
 163 659 l 1,42,-1
 129 698 l 1,37,-1
EndSplineSet
EndChar

StartChar: Udieresis
Encoding: 220 220 158
Width: 500
GlyphClass: 2
Flags: W
LayerCount: 2
Fore
SplineSet
250 -13 m 0,0,1
 193 -13 193 -13 157 3 c 0,2,3
 118 20 118 20 94 48 c 0,4,5
 69 77 69 77 59 119 c 0,6,7
 48 163 48 163 48 213 c 2,8,-1
 48 619 l 1,9,-1
 130 619 l 1,10,-1
 130 222 l 2,11,12
 130 176 130 176 139 144 c 0,13,14
 146 112 146 112 163 93 c 0,15,16
 178 73 178 73 200 66 c 0,17,18
 224 58 224 58 250 58 c 128,-1,19
 276 58 276 58 300 66 c 0,20,21
 321 73 321 73 338 93 c 0,22,23
 353 112 353 112 362 144 c 0,24,25
 370 178 370 178 370 222 c 2,26,-1
 370 619 l 1,27,-1
 452 619 l 1,28,-1
 452 213 l 2,29,30
 452 163 452 163 441 119 c 0,31,32
 431 77 431 77 406 48 c 0,33,34
 382 20 382 20 344 3 c 0,35,36
 306 -13 306 -13 250 -13 c 0,0,1
165 689 m 0,37,38
 146 689 146 689 129 704 c 0,39,40
 113 719 113 719 113 742 c 128,-1,41
 113 765 113 765 129 780 c 0,42,43
 146 794 146 794 165 794 c 0,44,45
 185 794 185 794 202 780 c 0,46,47
 217 765 217 765 217 742 c 128,-1,48
 217 719 217 719 202 704 c 0,49,50
 186 689 186 689 165 689 c 0,37,38
335 689 m 128,-1,52
 314 689 314 689 299 704 c 0,53,54
 283 719 283 719 283 742 c 128,-1,55
 283 765 283 765 299 780 c 0,56,57
 315 794 315 794 335 794 c 128,-1,58
 355 794 355 794 372 780 c 0,59,60
 387 765 387 765 387 742 c 128,-1,61
 387 719 387 719 372 704 c 0,62,51
 356 689 356 689 335 689 c 128,-1,52
EndSplineSet
EndChar

StartChar: Yacute
Encoding: 221 221 159
Width: 500
GlyphClass: 2
Flags: W
LayerCount: 2
Fore
SplineSet
292 0 m 1,0,-1
 210 0 l 1,1,-1
 210 230 l 1,2,3
 155 319 155 319 100 425 c 0,4,5
 51 518 51 518 13 619 c 1,6,-1
 105 619 l 1,7,8
 131 543 131 543 172 459 c 0,9,10
 223 355 223 355 252 301 c 1,11,12
 295 380 295 380 334 463 c 0,13,14
 373 550 373 550 398 619 c 1,15,-1
 488 619 l 1,16,17
 450 520 450 520 401 428 c 0,18,19
 349 331 349 331 292 232 c 1,20,-1
 292 0 l 1,0,-1
293 830 m 1,21,-1
 347 777 l 1,22,-1
 221 655 l 1,23,-1
 179 692 l 1,24,-1
 293 830 l 1,21,-1
EndSplineSet
EndChar

StartChar: Thorn
Encoding: 222 222 160
Width: 500
GlyphClass: 2
Flags: W
LayerCount: 2
Fore
SplineSet
73 0 m 1,0,-1
 73 619 l 1,1,-1
 155 619 l 1,2,-1
 155 516 l 1,3,4
 186 519 186 519 216 519 c 0,5,6
 332 519 332 519 393 474 c 0,7,8
 455 427 455 427 455 340 c 0,9,10
 455 283 455 283 438 241 c 0,11,12
 421 203 421 203 388 176 c 128,-1,13
 355 149 355 149 311 139 c 0,14,15
 262 128 262 128 210 128 c 2,16,-1
 155 128 l 1,17,-1
 155 0 l 1,18,-1
 73 0 l 1,0,-1
229 447 m 2,19,-1
 187 447 l 2,20,21
 164 447 164 447 155 446 c 1,22,-1
 155 197 l 1,23,-1
 213 197 l 2,24,25
 250 197 250 197 277 204 c 0,26,27
 307 210 307 210 327 226 c 0,28,29
 348 243 348 243 360 269 c 0,30,31
 371 296 371 296 371 336 c 0,32,33
 371 368 371 368 359 391 c 0,34,35
 346 411 346 411 326 425 c 0,36,37
 305 438 305 438 281 442 c 0,38,39
 253 447 253 447 229 447 c 2,19,-1
EndSplineSet
EndChar

StartChar: germandbls
Encoding: 223 223 161
Width: 500
GlyphClass: 2
Flags: W
LayerCount: 2
Fore
SplineSet
400 550 m 0,0,1
 400 524 400 524 393 506 c 0,2,3
 387 490 387 490 374 470 c 0,4,5
 363 454 363 454 349 439 c 0,6,7
 331 421 331 421 323 412 c 0,8,9
 306 391 306 391 303 386 c 0,10,11
 296 376 296 376 296 360 c 0,12,13
 296 341 296 341 310 327 c 0,14,15
 324 314 324 314 343 303 c 0,16,17
 356 295 356 295 386 279 c 0,18,19
 410 266 410 266 429 250 c 0,20,21
 451 230 451 230 463 207 c 0,22,23
 476 182 476 182 476 142 c 0,24,25
 476 66 476 66 435 28 c 0,26,27
 394 -11 394 -11 307 -11 c 0,28,29
 292 -11 292 -11 275 -8 c 0,30,31
 253 -4 253 -4 244 -1 c 0,32,33
 223 5 223 5 219 7 c 0,34,35
 204 14 204 14 203 14 c 1,36,-1
 217 87 l 1,37,38
 219 85 219 85 232 80 c 0,39,40
 246 74 246 74 255 71 c 0,41,42
 273 65 273 65 283 63 c 0,43,44
 298 60 298 60 313 60 c 0,45,46
 353 60 353 60 373 80 c 0,47,48
 392 99 392 99 392 138 c 0,49,50
 392 166 392 166 379 183 c 0,51,52
 365 200 365 200 345 214 c 0,53,54
 329 225 329 225 301 239 c 0,55,56
 277 249 277 249 257 265 c 0,57,58
 239 278 239 278 224 299 c 0,59,60
 210 319 210 319 210 348 c 0,61,62
 210 384 210 384 225 408 c 128,-1,63
 240 432 240 432 263 455 c 0,64,65
 282 473 282 473 301 495 c 0,66,67
 317 514 317 514 317 538 c 0,68,69
 317 576 317 576 299 599 c 0,70,71
 281 621 281 621 241 621 c 0,72,73
 199 621 199 621 177 587 c 0,74,75
 154 552 154 552 154 493 c 2,76,-1
 154 0 l 1,77,-1
 71 0 l 1,78,-1
 71 495 l 2,79,80
 71 538 71 538 83 576 c 0,81,82
 93 612 93 612 115 638 c 0,83,84
 137 665 137 665 167 679 c 0,85,86
 198 693 198 693 235 693 c 0,87,88
 280 693 280 693 313 682 c 0,89,90
 344 670 344 670 364 650 c 0,91,92
 382 632 382 632 392 604 c 0,93,94
 400 577 400 577 400 550 c 0,0,1
EndSplineSet
EndChar

StartChar: agrave
Encoding: 224 224 162
Width: 500
GlyphClass: 2
Flags: W
LayerCount: 2
Fore
SplineSet
255 59 m 0,0,1
 277 59 277 59 311 61 c 0,2,3
 330 62 330 62 351 66 c 1,4,-1
 351 204 l 1,5,6
 330 210 330 210 313 212 c 0,7,8
 290 215 290 215 265 215 c 0,9,10
 242 215 242 215 220 212 c 0,11,12
 196 207 196 207 181 199 c 0,13,14
 163 189 163 189 153 176 c 0,15,16
 142 160 142 160 142 139 c 0,17,18
 142 93 142 93 173 77 c 0,19,20
 203 59 203 59 255 59 c 0,0,1
247 475 m 0,21,22
 300 475 300 475 335 462 c 0,23,24
 370 448 370 448 392 426 c 256,25,26
 414 404 414 404 423 370 c 0,27,28
 432 337 432 337 432 298 c 2,29,-1
 432 8 l 1,30,31
 426 7 426 7 412 5 c 128,-1,32
 398 3 398 3 384 0.5 c 128,-1,33
 370 -2 370 -2 356 -4 c 0,34,35
 311 -11 311 -11 258 -11 c 0,36,37
 218 -11 218 -11 184 -4 c 0,38,39
 150 2 150 2 120 19 c 0,40,41
 92 36 92 36 75 64 c 0,42,43
 58 93 58 93 58 138 c 0,44,45
 58 178 58 178 76 206 c 0,46,47
 93 234 93 234 121 250 c 0,48,49
 150 268 150 268 184 275 c 0,50,51
 216 282 216 282 255 282 c 0,52,53
 302 282 302 282 351 271 c 1,54,-1
 351 294 l 2,55,56
 351 318 351 318 347 335 c 128,-1,57
 343 352 343 352 330 370 c 0,58,59
 318 385 318 385 296 396 c 0,60,61
 273 405 273 405 240 405 c 0,62,63
 196 405 196 405 165 399 c 0,64,65
 131 393 131 393 116 387 c 1,66,-1
 106 455 l 1,67,68
 124 463 124 463 163 469 c 128,-1,69
 202 475 202 475 247 475 c 0,21,22
163 640 m 1,70,-1
 216 693 l 1,71,-1
 330 555 l 1,72,-1
 288 518 l 1,73,-1
 163 640 l 1,70,-1
EndSplineSet
EndChar

StartChar: aacute
Encoding: 225 225 163
Width: 500
GlyphClass: 2
Flags: W
LayerCount: 2
Fore
SplineSet
255 59 m 0,0,1
 277 59 277 59 311 61 c 0,2,3
 330 62 330 62 351 66 c 1,4,-1
 351 204 l 1,5,6
 330 210 330 210 313 212 c 0,7,8
 290 215 290 215 265 215 c 0,9,10
 242 215 242 215 220 212 c 0,11,12
 196 207 196 207 181 199 c 0,13,14
 163 189 163 189 153 176 c 0,15,16
 142 160 142 160 142 139 c 0,17,18
 142 93 142 93 173 77 c 0,19,20
 203 59 203 59 255 59 c 0,0,1
247 475 m 0,21,22
 300 475 300 475 335 462 c 0,23,24
 370 448 370 448 392 426 c 256,25,26
 414 404 414 404 423 370 c 0,27,28
 432 337 432 337 432 298 c 2,29,-1
 432 8 l 1,30,31
 426 7 426 7 412 5 c 128,-1,32
 398 3 398 3 384 0.5 c 128,-1,33
 370 -2 370 -2 356 -4 c 0,34,35
 311 -11 311 -11 258 -11 c 0,36,37
 218 -11 218 -11 184 -4 c 0,38,39
 150 2 150 2 120 19 c 0,40,41
 92 36 92 36 75 64 c 0,42,43
 58 93 58 93 58 138 c 0,44,45
 58 178 58 178 76 206 c 0,46,47
 93 234 93 234 121 250 c 0,48,49
 150 268 150 268 184 275 c 0,50,51
 216 282 216 282 255 282 c 0,52,53
 302 282 302 282 351 271 c 1,54,-1
 351 294 l 2,55,56
 351 318 351 318 347 335 c 128,-1,57
 343 352 343 352 330 370 c 0,58,59
 318 385 318 385 296 396 c 0,60,61
 273 405 273 405 240 405 c 0,62,63
 196 405 196 405 165 399 c 0,64,65
 131 393 131 393 116 387 c 1,66,-1
 106 455 l 1,67,68
 124 463 124 463 163 469 c 128,-1,69
 202 475 202 475 247 475 c 0,21,22
302 693 m 1,70,-1
 356 640 l 1,71,-1
 230 518 l 1,72,-1
 188 555 l 1,73,-1
 302 693 l 1,70,-1
EndSplineSet
EndChar

StartChar: acircumflex
Encoding: 226 226 164
Width: 500
GlyphClass: 2
Flags: W
LayerCount: 2
Fore
SplineSet
255 59 m 0,0,1
 277 59 277 59 311 61 c 0,2,3
 330 62 330 62 351 66 c 1,4,-1
 351 204 l 1,5,6
 330 210 330 210 313 212 c 0,7,8
 290 215 290 215 265 215 c 0,9,10
 242 215 242 215 220 212 c 0,11,12
 196 207 196 207 181 199 c 0,13,14
 163 189 163 189 153 176 c 0,15,16
 142 160 142 160 142 139 c 0,17,18
 142 93 142 93 173 77 c 0,19,20
 203 59 203 59 255 59 c 0,0,1
247 475 m 0,21,22
 300 475 300 475 335 462 c 0,23,24
 370 448 370 448 392 426 c 256,25,26
 414 404 414 404 423 370 c 0,27,28
 432 337 432 337 432 298 c 2,29,-1
 432 8 l 1,30,31
 426 7 426 7 412 5 c 128,-1,32
 398 3 398 3 384 0.5 c 128,-1,33
 370 -2 370 -2 356 -4 c 0,34,35
 311 -11 311 -11 258 -11 c 0,36,37
 218 -11 218 -11 184 -4 c 0,38,39
 150 2 150 2 120 19 c 0,40,41
 92 36 92 36 75 64 c 0,42,43
 58 93 58 93 58 138 c 0,44,45
 58 178 58 178 76 206 c 0,46,47
 93 234 93 234 121 250 c 0,48,49
 150 268 150 268 184 275 c 0,50,51
 216 282 216 282 255 282 c 0,52,53
 302 282 302 282 351 271 c 1,54,-1
 351 294 l 2,55,56
 351 318 351 318 347 335 c 128,-1,57
 343 352 343 352 330 370 c 0,58,59
 318 385 318 385 296 396 c 0,60,61
 273 405 273 405 240 405 c 0,62,63
 196 405 196 405 165 399 c 0,64,65
 131 393 131 393 116 387 c 1,66,-1
 106 455 l 1,67,68
 124 463 124 463 163 469 c 128,-1,69
 202 475 202 475 247 475 c 0,21,22
138 559 m 1,70,-1
 259 687 l 1,71,-1
 380 559 l 1,72,-1
 346 520 l 1,73,-1
 259 598 l 1,74,-1
 172 520 l 1,75,-1
 138 559 l 1,70,-1
EndSplineSet
EndChar

StartChar: atilde
Encoding: 227 227 165
Width: 500
GlyphClass: 2
Flags: W
LayerCount: 2
Fore
SplineSet
255 59 m 0,0,1
 277 59 277 59 311 61 c 0,2,3
 330 62 330 62 351 66 c 1,4,-1
 351 204 l 1,5,6
 330 210 330 210 313 212 c 0,7,8
 290 215 290 215 265 215 c 0,9,10
 242 215 242 215 220 212 c 0,11,12
 196 207 196 207 181 199 c 0,13,14
 163 189 163 189 153 176 c 0,15,16
 142 160 142 160 142 139 c 0,17,18
 142 93 142 93 173 77 c 0,19,20
 203 59 203 59 255 59 c 0,0,1
247 475 m 0,21,22
 300 475 300 475 335 462 c 0,23,24
 370 448 370 448 392 426 c 256,25,26
 414 404 414 404 423 370 c 0,27,28
 432 337 432 337 432 298 c 2,29,-1
 432 8 l 1,30,31
 426 7 426 7 412 5 c 128,-1,32
 398 3 398 3 384 0.5 c 128,-1,33
 370 -2 370 -2 356 -4 c 0,34,35
 311 -11 311 -11 258 -11 c 0,36,37
 218 -11 218 -11 184 -4 c 0,38,39
 150 2 150 2 120 19 c 0,40,41
 92 36 92 36 75 64 c 0,42,43
 58 93 58 93 58 138 c 0,44,45
 58 178 58 178 76 206 c 0,46,47
 93 234 93 234 121 250 c 0,48,49
 150 268 150 268 184 275 c 0,50,51
 216 282 216 282 255 282 c 0,52,53
 302 282 302 282 351 271 c 1,54,-1
 351 294 l 2,55,56
 351 318 351 318 347 335 c 128,-1,57
 343 352 343 352 330 370 c 0,58,59
 318 385 318 385 296 396 c 0,60,61
 273 405 273 405 240 405 c 0,62,63
 196 405 196 405 165 399 c 0,64,65
 131 393 131 393 116 387 c 1,66,-1
 106 455 l 1,67,68
 124 463 124 463 163 469 c 128,-1,69
 202 475 202 475 247 475 c 0,21,22
345 657 m 1,70,-1
 388 635 l 1,71,72
 384 621 384 621 378 610 c 0,73,74
 371 598 371 598 359 584 c 0,75,76
 348 572 348 572 333 564 c 0,77,78
 318 555 318 555 299 555 c 0,79,80
 284 555 284 555 269 562 c 0,81,82
 264 564 264 564 254 568 c 128,-1,83
 244 572 244 572 240 574 c 0,84,85
 214 588 214 588 198 588 c 0,86,87
 185 588 185 588 173 575 c 256,88,89
 161 562 161 562 155 548 c 1,90,-1
 112 571 l 1,91,92
 115 582 115 582 123 596 c 0,93,94
 131 611 131 611 141 622 c 128,-1,95
 151 633 151 633 167 643 c 0,96,97
 183 651 183 651 200 651 c 0,98,99
 214 651 214 651 231 644 c 0,100,101
 236 642 236 642 245.5 637.5 c 128,-1,102
 255 633 255 633 259 631 c 0,103,104
 285 617 285 617 301 617 c 0,105,106
 314 617 314 617 327 630 c 0,107,108
 339 644 339 644 345 657 c 1,70,-1
EndSplineSet
EndChar

StartChar: adieresis
Encoding: 228 228 166
Width: 500
GlyphClass: 2
Flags: W
LayerCount: 2
Fore
SplineSet
255 59 m 0,0,1
 277 59 277 59 311 61 c 0,2,3
 330 62 330 62 351 66 c 1,4,-1
 351 204 l 1,5,6
 330 210 330 210 313 212 c 0,7,8
 290 215 290 215 265 215 c 0,9,10
 242 215 242 215 220 212 c 0,11,12
 196 207 196 207 181 199 c 0,13,14
 163 189 163 189 153 176 c 0,15,16
 142 160 142 160 142 139 c 0,17,18
 142 93 142 93 173 77 c 0,19,20
 203 59 203 59 255 59 c 0,0,1
247 475 m 0,21,22
 300 475 300 475 335 462 c 0,23,24
 370 448 370 448 392 426 c 256,25,26
 414 404 414 404 423 370 c 0,27,28
 432 337 432 337 432 298 c 2,29,-1
 432 8 l 1,30,31
 426 7 426 7 412 5 c 128,-1,32
 398 3 398 3 384 0.5 c 128,-1,33
 370 -2 370 -2 356 -4 c 0,34,35
 311 -11 311 -11 258 -11 c 0,36,37
 218 -11 218 -11 184 -4 c 0,38,39
 150 2 150 2 120 19 c 0,40,41
 92 36 92 36 75 64 c 0,42,43
 58 93 58 93 58 138 c 0,44,45
 58 178 58 178 76 206 c 0,46,47
 93 234 93 234 121 250 c 0,48,49
 150 268 150 268 184 275 c 0,50,51
 216 282 216 282 255 282 c 0,52,53
 302 282 302 282 351 271 c 1,54,-1
 351 294 l 2,55,56
 351 318 351 318 347 335 c 128,-1,57
 343 352 343 352 330 370 c 0,58,59
 318 385 318 385 296 396 c 0,60,61
 273 405 273 405 240 405 c 0,62,63
 196 405 196 405 165 399 c 0,64,65
 131 393 131 393 116 387 c 1,66,-1
 106 455 l 1,67,68
 124 463 124 463 163 469 c 128,-1,69
 202 475 202 475 247 475 c 0,21,22
165 550 m 0,70,71
 146 550 146 550 129 565 c 0,72,73
 113 580 113 580 113 603 c 128,-1,74
 113 626 113 626 129 641 c 0,75,76
 146 655 146 655 165 655 c 0,77,78
 185 655 185 655 202 641 c 0,79,80
 217 626 217 626 217 603 c 128,-1,81
 217 580 217 580 202 565 c 0,82,83
 186 550 186 550 165 550 c 0,70,71
335 550 m 128,-1,85
 314 550 314 550 299 565 c 0,86,87
 283 580 283 580 283 603 c 128,-1,88
 283 626 283 626 299 641 c 0,89,90
 315 655 315 655 335 655 c 128,-1,91
 355 655 355 655 372 641 c 0,92,93
 387 626 387 626 387 603 c 128,-1,94
 387 580 387 580 372 565 c 0,95,84
 356 550 356 550 335 550 c 128,-1,85
EndSplineSet
EndChar

StartChar: aring
Encoding: 229 229 167
Width: 500
GlyphClass: 2
Flags: W
LayerCount: 2
Fore
SplineSet
255 59 m 0,0,1
 277 59 277 59 311 61 c 0,2,3
 330 62 330 62 351 66 c 1,4,-1
 351 204 l 1,5,6
 330 210 330 210 313 212 c 0,7,8
 290 215 290 215 265 215 c 0,9,10
 242 215 242 215 220 212 c 0,11,12
 196 207 196 207 181 199 c 0,13,14
 163 189 163 189 153 176 c 0,15,16
 142 160 142 160 142 139 c 0,17,18
 142 93 142 93 173 77 c 0,19,20
 203 59 203 59 255 59 c 0,0,1
247 475 m 0,21,22
 300 475 300 475 335 462 c 0,23,24
 370 448 370 448 392 426 c 256,25,26
 414 404 414 404 423 370 c 0,27,28
 432 337 432 337 432 298 c 2,29,-1
 432 8 l 1,30,31
 426 7 426 7 412 5 c 128,-1,32
 398 3 398 3 384 0.5 c 128,-1,33
 370 -2 370 -2 356 -4 c 0,34,35
 311 -11 311 -11 258 -11 c 0,36,37
 218 -11 218 -11 184 -4 c 0,38,39
 150 2 150 2 120 19 c 0,40,41
 92 36 92 36 75 64 c 0,42,43
 58 93 58 93 58 138 c 0,44,45
 58 178 58 178 76 206 c 0,46,47
 93 234 93 234 121 250 c 0,48,49
 150 268 150 268 184 275 c 0,50,51
 216 282 216 282 255 282 c 0,52,53
 302 282 302 282 351 271 c 1,54,-1
 351 294 l 2,55,56
 351 318 351 318 347 335 c 128,-1,57
 343 352 343 352 330 370 c 0,58,59
 318 385 318 385 296 396 c 0,60,61
 273 405 273 405 240 405 c 0,62,63
 196 405 196 405 165 399 c 0,64,65
 131 393 131 393 116 387 c 1,66,-1
 106 455 l 1,67,68
 124 463 124 463 163 469 c 128,-1,69
 202 475 202 475 247 475 c 0,21,22
342 605 m 0,70,71
 342 562 342 562 315 538 c 0,72,73
 287 513 287 513 250 513 c 0,74,75
 212 513 212 513 186 538 c 0,76,77
 158 562 158 562 158 605 c 0,78,79
 158 647 158 647 186 672 c 0,80,81
 213 696 213 696 250 696 c 0,82,83
 286 696 286 696 315 672 c 0,84,85
 342 646 342 646 342 605 c 0,70,71
297 605 m 0,86,87
 297 628 297 628 284 641 c 128,-1,88
 271 654 271 654 250 654 c 0,89,90
 230 654 230 654 217 641 c 0,91,92
 203 627 203 627 203 605 c 0,93,94
 203 582 203 582 217 568 c 0,95,96
 230 555 230 555 250 555 c 0,97,98
 271 555 271 555 284 568 c 128,-1,99
 297 581 297 581 297 605 c 0,86,87
EndSplineSet
EndChar

StartChar: ae
Encoding: 230 230 168
Width: 500
GlyphClass: 2
Flags: W
LayerCount: 2
Fore
SplineSet
150 475 m 0,0,1
 193 475 193 475 222 458 c 0,2,3
 249 442 249 442 265 411 c 1,4,5
 282 443 282 443 302 458 c 0,6,7
 324 475 324 475 349 475 c 0,8,9
 478 475 478 475 478 239 c 2,10,-1
 478 226 l 2,11,12
 478 215 478 215 477 210 c 1,13,-1
 292 210 l 1,14,15
 292 139 292 139 318 101 c 128,-1,16
 344 63 344 63 385 63 c 0,17,18
 417 63 417 63 454 85 c 1,19,-1
 465 15 l 2,20,21
 462 12 462 12 452 7 c 0,22,23
 438 1 438 1 430 -2 c 0,24,25
 418 -6 418 -6 404 -8 c 0,26,27
 390 -11 390 -11 377 -11 c 0,28,29
 344 -11 344 -11 319 1 c 0,30,31
 295 11 295 11 274 32 c 1,32,33
 247 9 247 9 219 -1 c 0,34,35
 192 -11 192 -11 162 -11 c 0,36,37
 128 -11 128 -11 105 2 c 0,38,39
 82 13 82 13 64 34 c 128,-1,40
 46 55 46 55 39 80 c 0,41,42
 31 107 31 107 31 132 c 0,43,44
 31 162 31 162 40 191 c 0,45,46
 47 216 47 216 65 239 c 0,47,48
 82 259 82 259 107 271 c 0,49,50
 132 282 132 282 164 282 c 0,51,52
 171 282 171 282 191 280 c 0,53,54
 205 277 205 277 217 271 c 1,55,-1
 217 294 l 2,56,57
 217 342 217 342 199 373 c 0,58,59
 181 405 181 405 143 405 c 0,60,61
 121 405 121 405 100 399 c 0,62,63
 78 393 78 393 71 387 c 1,64,-1
 62 455 l 1,65,66
 72 463 72 463 98 469 c 128,-1,67
 124 475 124 475 150 475 c 0,0,1
172 215 m 0,68,69
 140 215 140 215 123 194 c 0,70,71
 106 172 106 172 106 137 c 0,72,73
 106 106 106 106 122 83 c 0,74,75
 137 59 137 59 169 59 c 0,76,77
 185 59 185 59 206 67 c 0,78,79
 226 74 226 74 239 88 c 1,80,81
 227 116 227 116 222 143 c 0,82,83
 215 174 215 174 214 204 c 1,84,85
 194 215 194 215 172 215 c 0,68,69
294 277 m 1,86,-1
 403 277 l 1,87,88
 403 316 403 316 399 339 c 0,89,90
 394 363 394 363 387 378 c 0,91,92
 380 392 380 392 370 399 c 0,93,94
 361 405 361 405 353 405 c 0,95,96
 330 405 330 405 312 376 c 0,97,98
 294 348 294 348 294 277 c 1,86,-1
EndSplineSet
EndChar

StartChar: ccedilla
Encoding: 231 231 169
Width: 500
GlyphClass: 2
Flags: W
LayerCount: 2
Fore
SplineSet
305 -11 m 1,0,-1
 294 -33 l 1,1,2
 320 -45 320 -45 332 -60 c 0,3,4
 343 -76 343 -76 343 -104 c 0,5,6
 343 -116 343 -116 339 -125 c 0,7,8
 334 -137 334 -137 324 -146 c 0,9,10
 315 -155 315 -155 296 -162 c 0,11,12
 279 -169 279 -169 252 -169 c 0,13,14
 226 -169 226 -169 209 -165 c 0,15,16
 190 -162 190 -162 178 -157 c 1,17,-1
 188 -106 l 1,18,19
 198 -110 198 -110 211 -112 c 0,20,21
 223 -115 223 -115 238 -115 c 0,22,23
 270 -115 270 -115 270 -95 c 0,24,25
 270 -74 270 -74 233 -64 c 2,26,-1
 226 -62 l 1,27,-1
 230 -52 l 2,28,29
 234 -42 234 -42 237 -36 c 0,30,31
 245 -16 245 -16 250 -7 c 1,32,33
 159 6 159 6 104 66 c 0,34,35
 49 124 49 124 49 231 c 0,36,37
 49 292 49 292 69 340 c 0,38,39
 88 384 88 384 124 416 c 0,40,41
 158 445 158 445 206 461 c 0,42,43
 254 475 254 475 305 475 c 0,44,45
 342 475 342 475 373 471 c 128,-1,46
 404 467 404 467 444 454 c 1,47,-1
 425 383 l 1,48,49
 395 394 395 394 365 399 c 0,50,51
 337 402 337 402 309 402 c 0,52,53
 272 402 272 402 241 393 c 0,54,55
 208 382 208 382 186 363 c 0,56,57
 162 342 162 342 148 310 c 0,58,59
 134 276 134 276 134 231 c 128,-1,60
 134 186 134 186 147 156 c 0,61,62
 161 122 161 122 184 104 c 0,63,64
 205 84 205 84 240 73 c 0,65,66
 271 63 271 63 313 63 c 0,67,68
 348 63 348 63 375 67 c 0,69,70
 405 70 405 70 439 82 c 1,71,-1
 451 13 l 1,72,73
 414 0 414 0 382 -4 c 0,74,75
 351 -9 351 -9 305 -11 c 1,0,-1
EndSplineSet
EndChar

StartChar: egrave
Encoding: 232 232 170
Width: 500
GlyphClass: 2
Flags: W
LayerCount: 2
Fore
SplineSet
259 475 m 0,0,1
 353 475 353 475 404 417 c 0,2,3
 455 358 455 358 455 239 c 2,4,-1
 455 210 l 1,5,-1
 123 210 l 1,6,7
 127 139 127 139 171 101 c 0,8,9
 214 63 214 63 290 63 c 0,10,11
 336 63 336 63 365 70 c 128,-1,12
 394 77 394 77 412 85 c 1,13,-1
 423 15 l 1,14,15
 406 7 406 7 369 -2 c 0,16,17
 330 -11 330 -11 281 -11 c 0,18,19
 220 -11 220 -11 176 8 c 0,20,21
 131 25 131 25 100 58 c 0,22,23
 70 89 70 89 55 135 c 0,24,25
 40 178 40 178 40 231 c 0,26,27
 40 294 40 294 59 339 c 0,28,29
 79 386 79 386 109 415 c 0,30,31
 141 445 141 445 179 460 c 0,32,33
 218 475 218 475 259 475 c 0,0,1
125 277 m 1,34,-1
 371 277 l 1,35,36
 371 337 371 337 340 371 c 128,-1,37
 309 405 309 405 258 405 c 0,38,39
 230 405 230 405 206 394 c 128,-1,40
 182 383 182 383 165 365 c 0,41,42
 149 348 149 348 138 324 c 0,43,44
 128 303 128 303 125 277 c 1,34,-1
163 640 m 1,45,-1
 216 693 l 1,46,-1
 330 555 l 1,47,-1
 288 518 l 1,48,-1
 163 640 l 1,45,-1
EndSplineSet
EndChar

StartChar: eacute
Encoding: 233 233 171
Width: 500
GlyphClass: 2
Flags: W
LayerCount: 2
Fore
SplineSet
259 475 m 0,0,1
 353 475 353 475 404 417 c 0,2,3
 455 358 455 358 455 239 c 2,4,-1
 455 210 l 1,5,-1
 123 210 l 1,6,7
 127 139 127 139 171 101 c 0,8,9
 214 63 214 63 290 63 c 0,10,11
 336 63 336 63 365 70 c 128,-1,12
 394 77 394 77 412 85 c 1,13,-1
 423 15 l 1,14,15
 406 7 406 7 369 -2 c 0,16,17
 330 -11 330 -11 281 -11 c 0,18,19
 220 -11 220 -11 176 8 c 0,20,21
 131 25 131 25 100 58 c 0,22,23
 70 89 70 89 55 135 c 0,24,25
 40 178 40 178 40 231 c 0,26,27
 40 294 40 294 59 339 c 0,28,29
 79 386 79 386 109 415 c 0,30,31
 141 445 141 445 179 460 c 0,32,33
 218 475 218 475 259 475 c 0,0,1
125 277 m 1,34,-1
 371 277 l 1,35,36
 371 337 371 337 340 371 c 128,-1,37
 309 405 309 405 258 405 c 0,38,39
 230 405 230 405 206 394 c 128,-1,40
 182 383 182 383 165 365 c 0,41,42
 149 348 149 348 138 324 c 0,43,44
 128 303 128 303 125 277 c 1,34,-1
302 693 m 1,45,-1
 356 640 l 1,46,-1
 230 518 l 1,47,-1
 188 555 l 1,48,-1
 302 693 l 1,45,-1
EndSplineSet
EndChar

StartChar: ecircumflex
Encoding: 234 234 172
Width: 500
GlyphClass: 2
Flags: W
LayerCount: 2
Fore
SplineSet
259 475 m 0,0,1
 353 475 353 475 404 417 c 0,2,3
 455 358 455 358 455 239 c 2,4,-1
 455 210 l 1,5,-1
 123 210 l 1,6,7
 127 139 127 139 171 101 c 0,8,9
 214 63 214 63 290 63 c 0,10,11
 336 63 336 63 365 70 c 128,-1,12
 394 77 394 77 412 85 c 1,13,-1
 423 15 l 1,14,15
 406 7 406 7 369 -2 c 0,16,17
 330 -11 330 -11 281 -11 c 0,18,19
 220 -11 220 -11 176 8 c 0,20,21
 131 25 131 25 100 58 c 0,22,23
 70 89 70 89 55 135 c 0,24,25
 40 178 40 178 40 231 c 0,26,27
 40 294 40 294 59 339 c 0,28,29
 79 386 79 386 109 415 c 0,30,31
 141 445 141 445 179 460 c 0,32,33
 218 475 218 475 259 475 c 0,0,1
125 277 m 1,34,-1
 371 277 l 1,35,36
 371 337 371 337 340 371 c 128,-1,37
 309 405 309 405 258 405 c 0,38,39
 230 405 230 405 206 394 c 128,-1,40
 182 383 182 383 165 365 c 0,41,42
 149 348 149 348 138 324 c 0,43,44
 128 303 128 303 125 277 c 1,34,-1
142 559 m 1,45,-1
 263 687 l 1,46,-1
 384 559 l 1,47,-1
 350 520 l 1,48,-1
 263 598 l 1,49,-1
 176 520 l 1,50,-1
 142 559 l 1,45,-1
EndSplineSet
EndChar

StartChar: edieresis
Encoding: 235 235 173
Width: 500
GlyphClass: 2
Flags: W
LayerCount: 2
Fore
SplineSet
259 475 m 0,0,1
 353 475 353 475 404 417 c 0,2,3
 455 358 455 358 455 239 c 2,4,-1
 455 210 l 1,5,-1
 123 210 l 1,6,7
 127 139 127 139 171 101 c 0,8,9
 214 63 214 63 290 63 c 0,10,11
 336 63 336 63 365 70 c 128,-1,12
 394 77 394 77 412 85 c 1,13,-1
 423 15 l 1,14,15
 406 7 406 7 369 -2 c 0,16,17
 330 -11 330 -11 281 -11 c 0,18,19
 220 -11 220 -11 176 8 c 0,20,21
 131 25 131 25 100 58 c 0,22,23
 70 89 70 89 55 135 c 0,24,25
 40 178 40 178 40 231 c 0,26,27
 40 294 40 294 59 339 c 0,28,29
 79 386 79 386 109 415 c 0,30,31
 141 445 141 445 179 460 c 0,32,33
 218 475 218 475 259 475 c 0,0,1
125 277 m 1,34,-1
 371 277 l 1,35,36
 371 337 371 337 340 371 c 128,-1,37
 309 405 309 405 258 405 c 0,38,39
 230 405 230 405 206 394 c 128,-1,40
 182 383 182 383 165 365 c 0,41,42
 149 348 149 348 138 324 c 0,43,44
 128 303 128 303 125 277 c 1,34,-1
178 550 m 256,45,46
 158 550 158 550 142 565 c 256,47,48
 126 580 126 580 126 603 c 128,-1,49
 126 626 126 626 142 641 c 0,50,51
 159 655 159 655 178 655 c 0,52,53
 198 655 198 655 215 641 c 0,54,55
 230 626 230 626 230 603 c 128,-1,56
 230 580 230 580 215 565 c 0,57,58
 198 550 198 550 178 550 c 256,45,46
348 550 m 0,59,60
 327 550 327 550 312 565 c 0,61,62
 296 580 296 580 296 603 c 128,-1,63
 296 626 296 626 312 641 c 0,64,65
 328 655 328 655 348 655 c 128,-1,66
 368 655 368 655 385 641 c 0,67,68
 400 626 400 626 400 603 c 128,-1,69
 400 580 400 580 385 565 c 0,70,71
 368 550 368 550 348 550 c 0,59,60
EndSplineSet
EndChar

StartChar: igrave
Encoding: 236 236 174
Width: 500
GlyphClass: 2
Flags: W
LayerCount: 2
Fore
SplineSet
188 179 m 2,0,-1
 188 395 l 1,1,-1
 54 395 l 1,2,-1
 54 464 l 1,3,-1
 270 464 l 1,4,-1
 270 179 l 2,5,6
 270 109 270 109 289 87 c 0,7,8
 308 63 308 63 346 63 c 0,9,10
 376 63 376 63 400 70 c 0,11,12
 425 78 425 78 438 85 c 1,13,-1
 450 15 l 2,14,15
 448 14 448 14 442 11.5 c 128,-1,16
 436 9 436 9 433 8 c 0,17,18
 426 5 426 5 408 -1 c 0,19,20
 398 -4 398 -4 376 -8 c 0,21,22
 358 -11 358 -11 339 -11 c 0,23,24
 294 -11 294 -11 266 1 c 0,25,26
 236 14 236 14 220 37 c 0,27,28
 203 60 203 60 195 97 c 0,29,30
 188 129 188 129 188 179 c 2,0,-1
128 640 m 1,31,-1
 181 693 l 1,32,-1
 295 555 l 1,33,-1
 253 518 l 1,34,-1
 128 640 l 1,31,-1
EndSplineSet
EndChar

StartChar: iacute
Encoding: 237 237 175
Width: 500
GlyphClass: 2
Flags: W
LayerCount: 2
Fore
SplineSet
188 179 m 2,0,-1
 188 395 l 1,1,-1
 54 395 l 1,2,-1
 54 464 l 1,3,-1
 270 464 l 1,4,-1
 270 179 l 2,5,6
 270 109 270 109 289 87 c 0,7,8
 308 63 308 63 346 63 c 0,9,10
 376 63 376 63 400 70 c 0,11,12
 425 78 425 78 438 85 c 1,13,-1
 450 15 l 2,14,15
 448 14 448 14 442 11.5 c 128,-1,16
 436 9 436 9 433 8 c 0,17,18
 426 5 426 5 408 -1 c 0,19,20
 398 -4 398 -4 376 -8 c 0,21,22
 358 -11 358 -11 339 -11 c 0,23,24
 294 -11 294 -11 266 1 c 0,25,26
 236 14 236 14 220 37 c 0,27,28
 203 60 203 60 195 97 c 0,29,30
 188 129 188 129 188 179 c 2,0,-1
258 693 m 1,31,-1
 312 640 l 1,32,-1
 186 518 l 1,33,-1
 144 555 l 1,34,-1
 258 693 l 1,31,-1
EndSplineSet
EndChar

StartChar: icircumflex
Encoding: 238 238 176
Width: 500
GlyphClass: 2
Flags: W
LayerCount: 2
Fore
SplineSet
188 179 m 2,0,-1
 188 395 l 1,1,-1
 54 395 l 1,2,-1
 54 464 l 1,3,-1
 270 464 l 1,4,-1
 270 179 l 2,5,6
 270 109 270 109 289 87 c 0,7,8
 308 63 308 63 346 63 c 0,9,10
 376 63 376 63 400 70 c 0,11,12
 425 78 425 78 438 85 c 1,13,-1
 450 15 l 2,14,15
 448 14 448 14 442 11.5 c 128,-1,16
 436 9 436 9 433 8 c 0,17,18
 426 5 426 5 408 -1 c 0,19,20
 398 -4 398 -4 376 -8 c 0,21,22
 358 -11 358 -11 339 -11 c 0,23,24
 294 -11 294 -11 266 1 c 0,25,26
 236 14 236 14 220 37 c 0,27,28
 203 60 203 60 195 97 c 0,29,30
 188 129 188 129 188 179 c 2,0,-1
94 559 m 1,31,-1
 215 687 l 1,32,-1
 336 559 l 1,33,-1
 302 520 l 1,34,-1
 215 598 l 1,35,-1
 128 520 l 1,36,-1
 94 559 l 1,31,-1
EndSplineSet
EndChar

StartChar: idieresis
Encoding: 239 239 177
Width: 500
GlyphClass: 2
Flags: W
LayerCount: 2
Fore
SplineSet
188 179 m 2,0,-1
 188 395 l 1,1,-1
 54 395 l 1,2,-1
 54 464 l 1,3,-1
 270 464 l 1,4,-1
 270 179 l 2,5,6
 270 109 270 109 289 87 c 0,7,8
 308 63 308 63 346 63 c 0,9,10
 376 63 376 63 400 70 c 0,11,12
 425 78 425 78 438 85 c 1,13,-1
 450 15 l 2,14,15
 448 14 448 14 442 11.5 c 128,-1,16
 436 9 436 9 433 8 c 0,17,18
 426 5 426 5 408 -1 c 0,19,20
 398 -4 398 -4 376 -8 c 0,21,22
 358 -11 358 -11 339 -11 c 0,23,24
 294 -11 294 -11 266 1 c 0,25,26
 236 14 236 14 220 37 c 0,27,28
 203 60 203 60 195 97 c 0,29,30
 188 129 188 129 188 179 c 2,0,-1
130 550 m 256,31,32
 110 550 110 550 94 565 c 256,33,34
 78 580 78 580 78 603 c 128,-1,35
 78 626 78 626 94 641 c 0,36,37
 111 655 111 655 130 655 c 0,38,39
 150 655 150 655 167 641 c 0,40,41
 182 626 182 626 182 603 c 128,-1,42
 182 580 182 580 167 565 c 0,43,44
 150 550 150 550 130 550 c 256,31,32
300 550 m 0,45,46
 279 550 279 550 264 565 c 0,47,48
 248 580 248 580 248 603 c 128,-1,49
 248 626 248 626 264 641 c 0,50,51
 280 655 280 655 300 655 c 128,-1,52
 320 655 320 655 337 641 c 0,53,54
 352 626 352 626 352 603 c 128,-1,55
 352 580 352 580 337 565 c 0,56,57
 320 550 320 550 300 550 c 0,45,46
EndSplineSet
EndChar

StartChar: eth
Encoding: 240 240 178
Width: 500
GlyphClass: 2
Flags: W
LayerCount: 2
Fore
SplineSet
439 643 m 1,0,-1
 460 587 l 1,1,-1
 364 554 l 1,2,3
 395 500 395 500 413 435 c 0,4,5
 432 366 432 366 432 274 c 0,6,7
 432 228 432 228 424 175 c 0,8,9
 415 122 415 122 393 83 c 0,10,11
 370 40 370 40 333 15 c 0,12,13
 295 -11 295 -11 236 -11 c 0,14,15
 191 -11 191 -11 157 8 c 128,-1,16
 123 27 123 27 101 58 c 0,17,18
 77 92 77 92 67 127 c 0,19,20
 55 164 55 164 55 204 c 0,21,22
 55 318 55 318 103 378 c 128,-1,23
 151 438 151 438 234 438 c 0,24,25
 271 438 271 438 301 424 c 0,26,27
 333 407 333 407 344 396 c 1,28,29
 340 428 340 428 325 465 c 0,30,31
 314 492 314 492 291 529 c 1,32,-1
 184 492 l 1,33,-1
 163 548 l 1,34,-1
 255 580 l 1,35,-1
 225 613 l 2,36,37
 206 631 206 631 186 645 c 1,38,-1
 232 693 l 1,39,40
 262 673 262 673 278 659 c 0,41,42
 304 636 304 636 329 605 c 1,43,-1
 439 643 l 1,0,-1
351 271 m 2,44,-1
 351 302 l 2,45,46
 350 308 350 308 350 319 c 1,47,48
 323 347 323 347 297 357 c 0,49,50
 267 368 267 368 245 368 c 0,51,52
 188 368 188 368 163 323 c 0,53,54
 137 277 137 277 137 207 c 0,55,56
 137 176 137 176 144 151 c 0,57,58
 150 122 150 122 163 104 c 0,59,60
 175 83 175 83 194 71 c 0,61,62
 212 59 212 59 236 59 c 0,63,64
 271 59 271 59 293 78 c 0,65,66
 314 95 314 95 328 126 c 0,67,68
 341 156 341 156 346 194 c 0,69,70
 351 236 351 236 351 271 c 2,44,-1
EndSplineSet
EndChar

StartChar: ntilde
Encoding: 241 241 179
Width: 500
GlyphClass: 2
Flags: W
LayerCount: 2
Fore
SplineSet
71 0 m 1,0,-1
 71 451 l 1,1,2
 121 463 121 463 161 468 c 0,3,4
 204 474 204 474 244 474 c 0,5,6
 337 474 337 474 385 426 c 0,7,8
 432 377 432 377 432 272 c 2,9,-1
 432 0 l 1,10,-1
 350 0 l 1,11,-1
 350 257 l 2,12,13
 350 300 350 300 342 330 c 0,14,15
 335 355 335 355 320 374 c 0,16,17
 305 389 305 389 285 395 c 0,18,19
 264 401 264 401 240 401 c 0,20,21
 228 401 228 401 198 399 c 0,22,23
 168 395 168 395 154 392 c 1,24,-1
 154 0 l 1,25,-1
 71 0 l 1,0,-1
345 657 m 1,26,-1
 388 635 l 1,27,28
 384 621 384 621 378 610 c 0,29,30
 371 598 371 598 359 584 c 0,31,32
 348 572 348 572 333 564 c 0,33,34
 318 555 318 555 299 555 c 0,35,36
 284 555 284 555 269 562 c 0,37,38
 264 564 264 564 254 568 c 128,-1,39
 244 572 244 572 240 574 c 0,40,41
 214 588 214 588 198 588 c 0,42,43
 185 588 185 588 173 575 c 256,44,45
 161 562 161 562 155 548 c 1,46,-1
 112 571 l 1,47,48
 115 582 115 582 123 596 c 0,49,50
 131 611 131 611 141 622 c 128,-1,51
 151 633 151 633 167 643 c 0,52,53
 183 651 183 651 200 651 c 0,54,55
 214 651 214 651 231 644 c 0,56,57
 236 642 236 642 245.5 637.5 c 128,-1,58
 255 633 255 633 259 631 c 0,59,60
 285 617 285 617 301 617 c 0,61,62
 314 617 314 617 327 630 c 0,63,64
 339 644 339 644 345 657 c 1,26,-1
EndSplineSet
EndChar

StartChar: ograve
Encoding: 242 242 180
Width: 500
GlyphClass: 2
Flags: W
LayerCount: 2
Fore
SplineSet
460 232 m 0,0,1
 460 176 460 176 445 133 c 0,2,3
 428 85 428 85 401 56 c 0,4,5
 371 23 371 23 334 7 c 0,6,7
 295 -11 295 -11 249 -11 c 0,8,9
 204 -11 204 -11 166 7 c 0,10,11
 129 23 129 23 99 56 c 0,12,13
 72 86 72 86 56 133 c 0,14,15
 40 175 40 175 40 232 c 0,16,17
 40 288 40 288 56 332 c 0,18,19
 72 379 72 379 99 409 c 0,20,21
 127 440 127 440 166 458 c 0,22,23
 205 475 205 475 249 475 c 0,24,25
 294 475 294 475 334 458 c 0,26,27
 373 440 373 440 401 409 c 0,28,29
 428 380 428 380 445 332 c 0,30,31
 460 287 460 287 460 232 c 0,0,1
375 232 m 128,-1,33
 375 311 375 311 341 357 c 0,34,35
 307 402 307 402 249 402 c 0,36,37
 192 402 192 402 159 357 c 0,38,39
 125 311 125 311 125 232 c 128,-1,40
 125 153 125 153 159 109 c 0,41,42
 192 63 192 63 249 63 c 0,43,44
 307 63 307 63 341 109 c 0,45,32
 375 153 375 153 375 232 c 128,-1,33
172 640 m 1,46,-1
 225 693 l 1,47,-1
 339 555 l 1,48,-1
 297 518 l 1,49,-1
 172 640 l 1,46,-1
EndSplineSet
EndChar

StartChar: oacute
Encoding: 243 243 181
Width: 500
GlyphClass: 2
Flags: W
LayerCount: 2
Fore
SplineSet
460 232 m 0,0,1
 460 176 460 176 445 133 c 0,2,3
 428 85 428 85 401 56 c 0,4,5
 371 23 371 23 334 7 c 0,6,7
 295 -11 295 -11 249 -11 c 0,8,9
 204 -11 204 -11 166 7 c 0,10,11
 129 23 129 23 99 56 c 0,12,13
 72 86 72 86 56 133 c 0,14,15
 40 175 40 175 40 232 c 0,16,17
 40 288 40 288 56 332 c 0,18,19
 72 379 72 379 99 409 c 0,20,21
 127 440 127 440 166 458 c 0,22,23
 205 475 205 475 249 475 c 0,24,25
 294 475 294 475 334 458 c 0,26,27
 373 440 373 440 401 409 c 0,28,29
 428 380 428 380 445 332 c 0,30,31
 460 287 460 287 460 232 c 0,0,1
375 232 m 128,-1,33
 375 311 375 311 341 357 c 0,34,35
 307 402 307 402 249 402 c 0,36,37
 192 402 192 402 159 357 c 0,38,39
 125 311 125 311 125 232 c 128,-1,40
 125 153 125 153 159 109 c 0,41,42
 192 63 192 63 249 63 c 0,43,44
 307 63 307 63 341 109 c 0,45,32
 375 153 375 153 375 232 c 128,-1,33
293 693 m 1,46,-1
 347 640 l 1,47,-1
 221 518 l 1,48,-1
 179 555 l 1,49,-1
 293 693 l 1,46,-1
EndSplineSet
EndChar

StartChar: ocircumflex
Encoding: 244 244 182
Width: 500
GlyphClass: 2
Flags: W
LayerCount: 2
Fore
SplineSet
460 232 m 0,0,1
 460 176 460 176 445 133 c 0,2,3
 428 85 428 85 401 56 c 0,4,5
 371 23 371 23 334 7 c 0,6,7
 295 -11 295 -11 249 -11 c 0,8,9
 204 -11 204 -11 166 7 c 0,10,11
 129 23 129 23 99 56 c 0,12,13
 72 86 72 86 56 133 c 0,14,15
 40 175 40 175 40 232 c 0,16,17
 40 288 40 288 56 332 c 0,18,19
 72 379 72 379 99 409 c 0,20,21
 127 440 127 440 166 458 c 0,22,23
 205 475 205 475 249 475 c 0,24,25
 294 475 294 475 334 458 c 0,26,27
 373 440 373 440 401 409 c 0,28,29
 428 380 428 380 445 332 c 0,30,31
 460 287 460 287 460 232 c 0,0,1
375 232 m 128,-1,33
 375 311 375 311 341 357 c 0,34,35
 307 402 307 402 249 402 c 0,36,37
 192 402 192 402 159 357 c 0,38,39
 125 311 125 311 125 232 c 128,-1,40
 125 153 125 153 159 109 c 0,41,42
 192 63 192 63 249 63 c 0,43,44
 307 63 307 63 341 109 c 0,45,32
 375 153 375 153 375 232 c 128,-1,33
129 559 m 1,46,-1
 250 687 l 1,47,-1
 371 559 l 1,48,-1
 337 520 l 1,49,-1
 250 598 l 1,50,-1
 163 520 l 1,51,-1
 129 559 l 1,46,-1
EndSplineSet
EndChar

StartChar: otilde
Encoding: 245 245 183
Width: 500
GlyphClass: 2
Flags: W
LayerCount: 2
Fore
SplineSet
460 232 m 0,0,1
 460 176 460 176 445 133 c 0,2,3
 428 85 428 85 401 56 c 0,4,5
 371 23 371 23 334 7 c 0,6,7
 295 -11 295 -11 249 -11 c 0,8,9
 204 -11 204 -11 166 7 c 0,10,11
 129 23 129 23 99 56 c 0,12,13
 72 86 72 86 56 133 c 0,14,15
 40 175 40 175 40 232 c 0,16,17
 40 288 40 288 56 332 c 0,18,19
 72 379 72 379 99 409 c 0,20,21
 127 440 127 440 166 458 c 0,22,23
 205 475 205 475 249 475 c 0,24,25
 294 475 294 475 334 458 c 0,26,27
 373 440 373 440 401 409 c 0,28,29
 428 380 428 380 445 332 c 0,30,31
 460 287 460 287 460 232 c 0,0,1
375 232 m 128,-1,33
 375 311 375 311 341 357 c 0,34,35
 307 402 307 402 249 402 c 0,36,37
 192 402 192 402 159 357 c 0,38,39
 125 311 125 311 125 232 c 128,-1,40
 125 153 125 153 159 109 c 0,41,42
 192 63 192 63 249 63 c 0,43,44
 307 63 307 63 341 109 c 0,45,32
 375 153 375 153 375 232 c 128,-1,33
345 657 m 1,46,-1
 388 635 l 1,47,48
 384 621 384 621 378 610 c 0,49,50
 371 598 371 598 359 584 c 0,51,52
 348 572 348 572 333 564 c 0,53,54
 318 555 318 555 299 555 c 0,55,56
 284 555 284 555 269 562 c 0,57,58
 264 564 264 564 254 568 c 128,-1,59
 244 572 244 572 240 574 c 0,60,61
 214 588 214 588 198 588 c 0,62,63
 185 588 185 588 173 575 c 256,64,65
 161 562 161 562 155 548 c 1,66,-1
 112 571 l 1,67,68
 115 582 115 582 123 596 c 0,69,70
 131 611 131 611 141 622 c 128,-1,71
 151 633 151 633 167 643 c 0,72,73
 183 651 183 651 200 651 c 0,74,75
 214 651 214 651 231 644 c 0,76,77
 236 642 236 642 245.5 637.5 c 128,-1,78
 255 633 255 633 259 631 c 0,79,80
 285 617 285 617 301 617 c 0,81,82
 314 617 314 617 327 630 c 0,83,84
 339 644 339 644 345 657 c 1,46,-1
EndSplineSet
EndChar

StartChar: odieresis
Encoding: 246 246 184
Width: 500
GlyphClass: 2
Flags: W
LayerCount: 2
Fore
SplineSet
460 232 m 0,0,1
 460 176 460 176 445 133 c 0,2,3
 428 85 428 85 401 56 c 0,4,5
 371 23 371 23 334 7 c 0,6,7
 295 -11 295 -11 249 -11 c 0,8,9
 204 -11 204 -11 166 7 c 0,10,11
 129 23 129 23 99 56 c 0,12,13
 72 86 72 86 56 133 c 0,14,15
 40 175 40 175 40 232 c 0,16,17
 40 288 40 288 56 332 c 0,18,19
 72 379 72 379 99 409 c 0,20,21
 127 440 127 440 166 458 c 0,22,23
 205 475 205 475 249 475 c 0,24,25
 294 475 294 475 334 458 c 0,26,27
 373 440 373 440 401 409 c 0,28,29
 428 380 428 380 445 332 c 0,30,31
 460 287 460 287 460 232 c 0,0,1
375 232 m 128,-1,33
 375 311 375 311 341 357 c 0,34,35
 307 402 307 402 249 402 c 0,36,37
 192 402 192 402 159 357 c 0,38,39
 125 311 125 311 125 232 c 128,-1,40
 125 153 125 153 159 109 c 0,41,42
 192 63 192 63 249 63 c 0,43,44
 307 63 307 63 341 109 c 0,45,32
 375 153 375 153 375 232 c 128,-1,33
165 550 m 0,46,47
 146 550 146 550 129 565 c 0,48,49
 113 580 113 580 113 603 c 128,-1,50
 113 626 113 626 129 641 c 0,51,52
 146 655 146 655 165 655 c 0,53,54
 185 655 185 655 202 641 c 0,55,56
 217 626 217 626 217 603 c 128,-1,57
 217 580 217 580 202 565 c 0,58,59
 186 550 186 550 165 550 c 0,46,47
335 550 m 128,-1,61
 314 550 314 550 299 565 c 0,62,63
 283 580 283 580 283 603 c 128,-1,64
 283 626 283 626 299 641 c 0,65,66
 315 655 315 655 335 655 c 128,-1,67
 355 655 355 655 372 641 c 0,68,69
 387 626 387 626 387 603 c 128,-1,70
 387 580 387 580 372 565 c 0,71,60
 356 550 356 550 335 550 c 128,-1,61
EndSplineSet
EndChar

StartChar: divide
Encoding: 247 247 185
Width: 500
GlyphClass: 2
Flags: W
LayerCount: 2
Fore
SplineSet
46 228 m 1,0,-1
 46 298 l 1,1,-1
 455 298 l 1,2,-1
 455 228 l 1,3,-1
 46 228 l 1,0,-1
308 96 m 128,-1,5
 308 71 308 71 292 54 c 0,6,7
 276 36 276 36 250 36 c 256,8,9
 224 36 224 36 207 54 c 0,10,11
 190 73 190 73 190 96 c 0,12,13
 190 120 190 120 207 140 c 0,14,15
 224 158 224 158 250 158 c 256,16,17
 276 158 276 158 292 140 c 0,18,4
 308 121 308 121 308 96 c 128,-1,5
308 428 m 0,19,20
 308 403 308 403 292 386 c 0,21,22
 276 367 276 367 250 367 c 0,23,24
 223 367 223 367 207 386 c 0,25,26
 190 405 190 405 190 428 c 0,27,28
 190 452 190 452 207 471 c 0,29,30
 224 489 224 489 250 489 c 256,31,32
 276 489 276 489 292 471 c 0,33,34
 308 454 308 454 308 428 c 0,19,20
EndSplineSet
EndChar

StartChar: oslash
Encoding: 248 248 186
Width: 500
GlyphClass: 2
Flags: W
LayerCount: 2
Fore
SplineSet
91 -32 m 1,0,-1
 45 4 l 1,1,-1
 90 66 l 1,2,3
 68 97 68 97 54 140 c 0,4,5
 40 182 40 182 40 232 c 0,6,7
 40 288 40 288 56 332 c 0,8,9
 72 379 72 379 99 409 c 0,10,11
 127 440 127 440 166 458 c 0,12,13
 205 475 205 475 249 475 c 0,14,15
 318 475 318 475 366 439 c 1,16,-1
 408 496 l 1,17,-1
 455 460 l 1,18,-1
 409 397 l 1,19,20
 434 364 434 364 447 325 c 0,21,22
 460 285 460 285 460 232 c 0,23,24
 460 176 460 176 445 133 c 0,25,26
 428 85 428 85 401 56 c 0,27,28
 371 23 371 23 334 7 c 0,29,30
 295 -11 295 -11 249 -11 c 0,31,32
 214 -11 214 -11 187 -1 c 0,33,34
 160 8 160 8 133 25 c 1,35,-1
 91 -32 l 1,0,-1
375 232 m 0,36,37
 375 260 375 260 372 285 c 0,38,39
 367 312 367 312 359 330 c 1,40,-1
 178 85 l 1,41,42
 192 72 192 72 210 68 c 0,43,44
 230 63 230 63 249 63 c 0,45,46
 307 63 307 63 341 109 c 0,47,48
 375 153 375 153 375 232 c 0,36,37
125 232 m 0,49,50
 125 198 125 198 129 178 c 0,51,52
 132 154 132 154 141 135 c 1,53,-1
 321 379 l 1,54,55
 308 391 308 391 289 397 c 0,56,57
 267 402 267 402 249 402 c 0,58,59
 192 402 192 402 159 357 c 0,60,61
 125 311 125 311 125 232 c 0,49,50
EndSplineSet
EndChar

StartChar: ugrave
Encoding: 249 249 187
Width: 500
GlyphClass: 2
Flags: W
LayerCount: 2
Fore
SplineSet
429 464 m 1,0,-1
 429 13 l 1,1,2
 403 6 403 6 358 -2 c 0,3,4
 310 -10 310 -10 253 -10 c 0,5,6
 198 -10 198 -10 165 6 c 0,7,8
 131 21 131 21 108 50 c 0,9,10
 86 78 86 78 77 117 c 128,-1,11
 68 156 68 156 68 203 c 2,12,-1
 68 464 l 1,13,-1
 150 464 l 1,14,-1
 150 221 l 2,15,16
 150 136 150 136 176 99 c 0,17,18
 202 63 202 63 261 63 c 0,19,20
 279 63 279 63 288 64 c 128,-1,21
 297 65 297 65 313 67 c 0,22,23
 325 68 325 68 334 70 c 0,24,25
 336 70 336 70 339 70.5 c 128,-1,26
 342 71 342 71 343.5 71.5 c 128,-1,27
 345 72 345 72 346 72 c 1,28,-1
 346 464 l 1,29,-1
 429 464 l 1,0,-1
163 640 m 1,30,-1
 216 693 l 1,31,-1
 330 555 l 1,32,-1
 288 518 l 1,33,-1
 163 640 l 1,30,-1
EndSplineSet
EndChar

StartChar: uacute
Encoding: 250 250 188
Width: 500
GlyphClass: 2
Flags: W
LayerCount: 2
Fore
SplineSet
429 464 m 1,0,-1
 429 13 l 1,1,2
 403 6 403 6 358 -2 c 0,3,4
 310 -10 310 -10 253 -10 c 0,5,6
 198 -10 198 -10 165 6 c 0,7,8
 131 21 131 21 108 50 c 0,9,10
 86 78 86 78 77 117 c 128,-1,11
 68 156 68 156 68 203 c 2,12,-1
 68 464 l 1,13,-1
 150 464 l 1,14,-1
 150 221 l 2,15,16
 150 136 150 136 176 99 c 0,17,18
 202 63 202 63 261 63 c 0,19,20
 279 63 279 63 288 64 c 128,-1,21
 297 65 297 65 313 67 c 0,22,23
 325 68 325 68 334 70 c 0,24,25
 336 70 336 70 339 70.5 c 128,-1,26
 342 71 342 71 343.5 71.5 c 128,-1,27
 345 72 345 72 346 72 c 1,28,-1
 346 464 l 1,29,-1
 429 464 l 1,0,-1
293 693 m 1,30,-1
 347 640 l 1,31,-1
 221 518 l 1,32,-1
 179 555 l 1,33,-1
 293 693 l 1,30,-1
EndSplineSet
EndChar

StartChar: ucircumflex
Encoding: 251 251 189
Width: 500
GlyphClass: 2
Flags: W
LayerCount: 2
Fore
SplineSet
429 464 m 1,0,-1
 429 13 l 1,1,2
 403 6 403 6 358 -2 c 0,3,4
 310 -10 310 -10 253 -10 c 0,5,6
 198 -10 198 -10 165 6 c 0,7,8
 131 21 131 21 108 50 c 0,9,10
 86 78 86 78 77 117 c 128,-1,11
 68 156 68 156 68 203 c 2,12,-1
 68 464 l 1,13,-1
 150 464 l 1,14,-1
 150 221 l 2,15,16
 150 136 150 136 176 99 c 0,17,18
 202 63 202 63 261 63 c 0,19,20
 279 63 279 63 288 64 c 128,-1,21
 297 65 297 65 313 67 c 0,22,23
 325 68 325 68 334 70 c 0,24,25
 336 70 336 70 339 70.5 c 128,-1,26
 342 71 342 71 343.5 71.5 c 128,-1,27
 345 72 345 72 346 72 c 1,28,-1
 346 464 l 1,29,-1
 429 464 l 1,0,-1
129 559 m 1,30,-1
 250 687 l 1,31,-1
 371 559 l 1,32,-1
 337 520 l 1,33,-1
 250 598 l 1,34,-1
 163 520 l 1,35,-1
 129 559 l 1,30,-1
EndSplineSet
EndChar

StartChar: udieresis
Encoding: 252 252 190
Width: 500
GlyphClass: 2
Flags: W
LayerCount: 2
Fore
SplineSet
429 464 m 1,0,-1
 429 13 l 1,1,2
 403 6 403 6 358 -2 c 0,3,4
 310 -10 310 -10 253 -10 c 0,5,6
 198 -10 198 -10 165 6 c 0,7,8
 131 21 131 21 108 50 c 0,9,10
 86 78 86 78 77 117 c 128,-1,11
 68 156 68 156 68 203 c 2,12,-1
 68 464 l 1,13,-1
 150 464 l 1,14,-1
 150 221 l 2,15,16
 150 136 150 136 176 99 c 0,17,18
 202 63 202 63 261 63 c 0,19,20
 279 63 279 63 288 64 c 128,-1,21
 297 65 297 65 313 67 c 0,22,23
 325 68 325 68 334 70 c 0,24,25
 336 70 336 70 339 70.5 c 128,-1,26
 342 71 342 71 343.5 71.5 c 128,-1,27
 345 72 345 72 346 72 c 1,28,-1
 346 464 l 1,29,-1
 429 464 l 1,0,-1
165 550 m 0,30,31
 146 550 146 550 129 565 c 0,32,33
 113 580 113 580 113 603 c 128,-1,34
 113 626 113 626 129 641 c 0,35,36
 146 655 146 655 165 655 c 0,37,38
 185 655 185 655 202 641 c 0,39,40
 217 626 217 626 217 603 c 128,-1,41
 217 580 217 580 202 565 c 0,42,43
 186 550 186 550 165 550 c 0,30,31
335 550 m 128,-1,45
 314 550 314 550 299 565 c 0,46,47
 283 580 283 580 283 603 c 128,-1,48
 283 626 283 626 299 641 c 0,49,50
 315 655 315 655 335 655 c 128,-1,51
 355 655 355 655 372 641 c 0,52,53
 387 626 387 626 387 603 c 128,-1,54
 387 580 387 580 372 565 c 0,55,44
 356 550 356 550 335 550 c 128,-1,45
EndSplineSet
EndChar

StartChar: yacute
Encoding: 253 253 191
Width: 500
GlyphClass: 2
Flags: W
LayerCount: 2
Fore
SplineSet
36 -154 m 1,0,-1
 51 -87 l 1,1,2
 61 -92 61 -92 77 -95 c 0,3,4
 94 -98 94 -98 107 -98 c 0,5,6
 156 -98 156 -98 184 -76 c 128,-1,7
 212 -54 212 -54 234 -6 c 1,8,9
 178 100 178 100 129 222 c 0,10,11
 79 345 79 345 48 464 c 1,12,-1
 138 464 l 1,13,14
 146 433 146 433 162 378 c 0,15,16
 176 332 176 332 192 282 c 0,17,18
 201 256 201 256 229 184 c 0,19,20
 253 123 253 123 270 89 c 1,21,22
 287 138 287 138 300 180 c 0,23,24
 318 240 318 240 326 271 c 0,25,26
 338 316 338 316 350 364 c 0,27,28
 354 379 354 379 362 412.5 c 128,-1,29
 370 446 370 446 375 464 c 1,30,-1
 461 464 l 1,31,32
 431 340 431 340 390 212 c 0,33,34
 346 81 346 81 305 -14 c 0,35,36
 288 -54 288 -54 269 -83 c 0,37,38
 251 -109 251 -109 226 -131 c 0,39,40
 205 -149 205 -149 174 -159 c 0,41,42
 146 -168 146 -168 108 -168 c 0,43,44
 92 -168 92 -168 67 -163 c 0,45,46
 43 -158 43 -158 36 -154 c 1,0,-1
299 693 m 1,47,-1
 353 640 l 1,48,-1
 227 518 l 1,49,-1
 185 555 l 1,50,-1
 299 693 l 1,47,-1
EndSplineSet
EndChar

StartChar: thorn
Encoding: 254 254 192
Width: 500
GlyphClass: 2
Flags: W
LayerCount: 2
Fore
SplineSet
460 231 m 0,0,1
 460 176 460 176 447 134 c 0,2,3
 433 88 433 88 408 57 c 0,4,5
 382 25 382 25 345 7 c 256,6,7
 308 -11 308 -11 261 -11 c 0,8,9
 224 -11 224 -11 196 -2 c 0,10,11
 169 7 169 7 154 18 c 1,12,-1
 154 -165 l 1,13,-1
 71 -165 l 1,14,-1
 71 679 l 1,15,-1
 154 693 l 1,16,-1
 154 447 l 1,17,18
 180 461 180 461 210 469 c 0,19,20
 237 475 237 475 263 475 c 0,21,22
 306 475 306 475 341 459 c 0,23,24
 377 442 377 442 404 411 c 0,25,26
 430 379 430 379 445 334 c 128,-1,27
 460 289 460 289 460 231 c 0,0,1
375 231 m 0,28,29
 375 274 375 274 366 307 c 0,30,31
 356 340 356 340 341 360 c 0,32,33
 324 382 324 382 302 392 c 0,34,35
 281 402 281 402 253 402 c 0,36,37
 226 402 226 402 204 393 c 0,38,39
 181 384 181 384 154 367 c 1,40,-1
 154 98 l 1,41,42
 167 85 167 85 195 74 c 128,-1,43
 223 63 223 63 251 63 c 0,44,45
 285 63 285 63 308 76 c 0,46,47
 331 90 331 90 346 112 c 128,-1,48
 361 134 361 134 368 165 c 0,49,50
 375 193 375 193 375 231 c 0,28,29
EndSplineSet
EndChar

StartChar: ydieresis
Encoding: 255 255 193
Width: 500
GlyphClass: 2
Flags: W
LayerCount: 2
Fore
SplineSet
36 -154 m 1,0,-1
 51 -87 l 1,1,2
 61 -92 61 -92 77 -95 c 0,3,4
 94 -98 94 -98 107 -98 c 0,5,6
 156 -98 156 -98 184 -76 c 128,-1,7
 212 -54 212 -54 234 -6 c 1,8,9
 178 100 178 100 129 222 c 0,10,11
 79 345 79 345 48 464 c 1,12,-1
 138 464 l 1,13,14
 146 433 146 433 162 378 c 0,15,16
 176 332 176 332 192 282 c 0,17,18
 201 256 201 256 229 184 c 0,19,20
 253 123 253 123 270 89 c 1,21,22
 287 138 287 138 300 180 c 0,23,24
 318 240 318 240 326 271 c 0,25,26
 338 316 338 316 350 364 c 0,27,28
 354 379 354 379 362 412.5 c 128,-1,29
 370 446 370 446 375 464 c 1,30,-1
 461 464 l 1,31,32
 431 340 431 340 390 212 c 0,33,34
 346 81 346 81 305 -14 c 0,35,36
 288 -54 288 -54 269 -83 c 0,37,38
 251 -109 251 -109 226 -131 c 0,39,40
 205 -149 205 -149 174 -159 c 0,41,42
 146 -168 146 -168 108 -168 c 0,43,44
 92 -168 92 -168 67 -163 c 0,45,46
 43 -158 43 -158 36 -154 c 1,0,-1
180 550 m 256,47,48
 160 550 160 550 144 565 c 256,49,50
 128 580 128 580 128 603 c 128,-1,51
 128 626 128 626 144 641 c 0,52,53
 161 655 161 655 180 655 c 0,54,55
 200 655 200 655 217 641 c 0,56,57
 232 626 232 626 232 603 c 128,-1,58
 232 580 232 580 217 565 c 0,59,60
 200 550 200 550 180 550 c 256,47,48
350 550 m 0,61,62
 329 550 329 550 314 565 c 0,63,64
 298 580 298 580 298 603 c 128,-1,65
 298 626 298 626 314 641 c 0,66,67
 330 655 330 655 350 655 c 128,-1,68
 370 655 370 655 387 641 c 0,69,70
 402 626 402 626 402 603 c 128,-1,71
 402 580 402 580 387 565 c 0,72,73
 370 550 370 550 350 550 c 0,61,62
EndSplineSet
EndChar

StartChar: Amacron
Encoding: 256 256 194
Width: 500
GlyphClass: 2
Flags: W
LayerCount: 2
Fore
SplineSet
491 0 m 1,0,-1
 404 0 l 1,1,-1
 367 162 l 1,2,-1
 129 162 l 1,3,-1
 93 0 l 1,4,-1
 9 0 l 1,5,6
 22 51 22 51 47 143 c 0,7,8
 72 236 72 236 93 301 c 0,9,10
 115 377 115 377 144 464 c 0,11,12
 172 548 172 548 201 619 c 1,13,-1
 303 619 l 1,14,15
 334 539 334 539 359 464 c 0,16,17
 400 331 400 331 409 301 c 0,18,19
 413 285 413 285 429 228.5 c 128,-1,20
 445 172 445 172 453 143 c 0,21,22
 478 51 478 51 491 0 c 1,0,-1
249 547 m 1,23,24
 222 473 222 473 199 401 c 0,25,26
 172 318 172 318 148 230 c 1,27,-1
 348 230 l 1,28,29
 330 301 330 301 299 404 c 0,30,31
 274 480 274 480 249 547 c 1,23,24
123 710 m 1,32,-1
 123 774 l 1,33,-1
 377 774 l 1,34,-1
 377 710 l 1,35,-1
 123 710 l 1,32,-1
EndSplineSet
EndChar

StartChar: amacron
Encoding: 257 257 195
Width: 500
GlyphClass: 2
Flags: W
LayerCount: 2
Fore
SplineSet
255 59 m 0,0,1
 277 59 277 59 311 61 c 0,2,3
 330 62 330 62 351 66 c 1,4,-1
 351 204 l 1,5,6
 330 210 330 210 313 212 c 0,7,8
 290 215 290 215 265 215 c 0,9,10
 242 215 242 215 220 212 c 0,11,12
 196 207 196 207 181 199 c 0,13,14
 163 189 163 189 153 176 c 0,15,16
 142 160 142 160 142 139 c 0,17,18
 142 93 142 93 173 77 c 0,19,20
 203 59 203 59 255 59 c 0,0,1
247 475 m 0,21,22
 300 475 300 475 335 462 c 0,23,24
 370 448 370 448 392 426 c 256,25,26
 414 404 414 404 423 370 c 0,27,28
 432 337 432 337 432 298 c 2,29,-1
 432 8 l 1,30,31
 426 7 426 7 412 5 c 128,-1,32
 398 3 398 3 384 0.5 c 128,-1,33
 370 -2 370 -2 356 -4 c 0,34,35
 311 -11 311 -11 258 -11 c 0,36,37
 218 -11 218 -11 184 -4 c 0,38,39
 150 2 150 2 120 19 c 0,40,41
 92 36 92 36 75 64 c 0,42,43
 58 93 58 93 58 138 c 0,44,45
 58 178 58 178 76 206 c 0,46,47
 93 234 93 234 121 250 c 0,48,49
 150 268 150 268 184 275 c 0,50,51
 216 282 216 282 255 282 c 0,52,53
 302 282 302 282 351 271 c 1,54,-1
 351 294 l 2,55,56
 351 318 351 318 347 335 c 128,-1,57
 343 352 343 352 330 370 c 0,58,59
 318 385 318 385 296 396 c 0,60,61
 273 405 273 405 240 405 c 0,62,63
 196 405 196 405 165 399 c 0,64,65
 131 393 131 393 116 387 c 1,66,-1
 106 455 l 1,67,68
 124 463 124 463 163 469 c 128,-1,69
 202 475 202 475 247 475 c 0,21,22
132 571 m 1,70,-1
 132 635 l 1,71,-1
 386 635 l 1,72,-1
 386 571 l 1,73,-1
 132 571 l 1,70,-1
EndSplineSet
EndChar

StartChar: Abreve
Encoding: 258 258 196
Width: 500
GlyphClass: 2
Flags: W
LayerCount: 2
Fore
SplineSet
491 0 m 1,0,-1
 404 0 l 1,1,-1
 367 162 l 1,2,-1
 129 162 l 1,3,-1
 93 0 l 1,4,-1
 9 0 l 1,5,6
 22 51 22 51 47 143 c 0,7,8
 72 236 72 236 93 301 c 0,9,10
 115 377 115 377 144 464 c 0,11,12
 172 548 172 548 201 619 c 1,13,-1
 303 619 l 1,14,15
 334 539 334 539 359 464 c 0,16,17
 400 331 400 331 409 301 c 0,18,19
 413 285 413 285 429 228.5 c 128,-1,20
 445 172 445 172 453 143 c 0,21,22
 478 51 478 51 491 0 c 1,0,-1
249 547 m 1,23,24
 222 473 222 473 199 401 c 0,25,26
 172 318 172 318 148 230 c 1,27,-1
 348 230 l 1,28,29
 330 301 330 301 299 404 c 0,30,31
 274 480 274 480 249 547 c 1,23,24
250 684 m 128,-1,33
 226 684 226 684 203 693 c 0,34,35
 182 700 182 700 165 717 c 0,36,37
 148 732 148 732 139 755 c 0,38,39
 130 779 130 779 131 808 c 1,40,-1
 185 808 l 1,41,42
 187 794 187 794 189 787 c 0,43,44
 192 776 192 776 200 766 c 0,45,46
 207 756 207 756 219 750 c 128,-1,47
 231 744 231 744 250 744 c 0,48,49
 268 744 268 744 282 750 c 0,50,51
 294 756 294 756 301 766 c 0,52,53
 308 774 308 774 311 787 c 0,54,55
 313 794 313 794 315 808 c 1,56,-1
 369 808 l 1,57,58
 370 779 370 779 361 755 c 0,59,60
 351 731 351 731 336 717 c 0,61,62
 320 700 320 700 297 693 c 0,63,32
 274 684 274 684 250 684 c 128,-1,33
EndSplineSet
EndChar

StartChar: abreve
Encoding: 259 259 197
Width: 500
GlyphClass: 2
Flags: W
LayerCount: 2
Fore
SplineSet
255 59 m 0,0,1
 277 59 277 59 311 61 c 0,2,3
 330 62 330 62 351 66 c 1,4,-1
 351 204 l 1,5,6
 330 210 330 210 313 212 c 0,7,8
 290 215 290 215 265 215 c 0,9,10
 242 215 242 215 220 212 c 0,11,12
 196 207 196 207 181 199 c 0,13,14
 163 189 163 189 153 176 c 0,15,16
 142 160 142 160 142 139 c 0,17,18
 142 93 142 93 173 77 c 0,19,20
 203 59 203 59 255 59 c 0,0,1
247 475 m 0,21,22
 300 475 300 475 335 462 c 0,23,24
 370 448 370 448 392 426 c 256,25,26
 414 404 414 404 423 370 c 0,27,28
 432 337 432 337 432 298 c 2,29,-1
 432 8 l 1,30,31
 426 7 426 7 412 5 c 128,-1,32
 398 3 398 3 384 0.5 c 128,-1,33
 370 -2 370 -2 356 -4 c 0,34,35
 311 -11 311 -11 258 -11 c 0,36,37
 218 -11 218 -11 184 -4 c 0,38,39
 150 2 150 2 120 19 c 0,40,41
 92 36 92 36 75 64 c 0,42,43
 58 93 58 93 58 138 c 0,44,45
 58 178 58 178 76 206 c 0,46,47
 93 234 93 234 121 250 c 0,48,49
 150 268 150 268 184 275 c 0,50,51
 216 282 216 282 255 282 c 0,52,53
 302 282 302 282 351 271 c 1,54,-1
 351 294 l 2,55,56
 351 318 351 318 347 335 c 128,-1,57
 343 352 343 352 330 370 c 0,58,59
 318 385 318 385 296 396 c 0,60,61
 273 405 273 405 240 405 c 0,62,63
 196 405 196 405 165 399 c 0,64,65
 131 393 131 393 116 387 c 1,66,-1
 106 455 l 1,67,68
 124 463 124 463 163 469 c 128,-1,69
 202 475 202 475 247 475 c 0,21,22
250 545 m 128,-1,71
 226 545 226 545 203 554 c 0,72,73
 182 561 182 561 165 578 c 0,74,75
 148 593 148 593 139 616 c 0,76,77
 130 640 130 640 131 669 c 1,78,-1
 185 669 l 1,79,80
 187 655 187 655 189 648 c 0,81,82
 192 637 192 637 200 627 c 0,83,84
 207 617 207 617 219 611 c 128,-1,85
 231 605 231 605 250 605 c 0,86,87
 268 605 268 605 282 611 c 0,88,89
 294 617 294 617 301 627 c 0,90,91
 308 635 308 635 311 648 c 0,92,93
 313 655 313 655 315 669 c 1,94,-1
 369 669 l 1,95,96
 370 640 370 640 361 616 c 0,97,98
 351 592 351 592 336 578 c 0,99,100
 320 562 320 562 297 554 c 0,101,70
 274 545 274 545 250 545 c 128,-1,71
EndSplineSet
EndChar

StartChar: Aogonek
Encoding: 260 260 198
Width: 500
GlyphClass: 2
Flags: W
LayerCount: 2
Fore
SplineSet
490 2 m 1,0,1
 478 -5 478 -5 466 -15 c 0,2,3
 452 -27 452 -27 444 -35 c 0,4,5
 434 -45 434 -45 424 -59 c 0,6,7
 417 -69 417 -69 417 -83 c 0,8,9
 417 -109 417 -109 453 -109 c 0,10,11
 455 -109 455 -109 469 -107 c 0,12,13
 481 -105 481 -105 489 -103 c 1,14,-1
 496 -157 l 1,15,16
 475 -167 475 -167 437 -167 c 0,17,18
 387 -167 387 -167 364 -150 c 0,19,20
 342 -134 342 -134 342 -101 c 0,21,22
 342 -73 342 -73 362 -47 c 0,23,24
 377 -27 377 -27 405 -3 c 1,25,-1
 367 162 l 1,26,-1
 129 162 l 1,27,-1
 93 0 l 1,28,-1
 9 0 l 1,29,30
 22 51 22 51 47 143 c 0,31,32
 72 236 72 236 93 301 c 0,33,34
 115 377 115 377 144 464 c 0,35,36
 172 548 172 548 201 619 c 1,37,-1
 303 619 l 1,38,39
 334 539 334 539 359 464 c 0,40,41
 393 356 393 356 409 302 c 0,42,43
 415 279 415 279 430 226 c 128,-1,44
 445 173 445 173 453 145 c 0,45,46
 459 123 459 123 471.5 74.5 c 128,-1,47
 484 26 484 26 490 2 c 1,0,1
249 547 m 1,48,49
 222 473 222 473 199 401 c 0,50,51
 172 318 172 318 148 230 c 1,52,-1
 348 230 l 1,53,54
 330 301 330 301 299 404 c 0,55,56
 274 480 274 480 249 547 c 1,48,49
EndSplineSet
EndChar

StartChar: aogonek
Encoding: 261 261 199
Width: 500
GlyphClass: 2
Flags: W
LayerCount: 2
Fore
SplineSet
247 475 m 0,0,1
 300 475 300 475 335 462 c 0,2,3
 370 448 370 448 392 426 c 256,4,5
 414 404 414 404 423 370 c 0,6,7
 432 337 432 337 432 298 c 2,8,-1
 432 8 l 1,9,10
 422 1 422 1 410 -8 c 0,11,12
 401 -15 401 -15 385 -31 c 0,13,14
 370 -47 370 -47 364 -57 c 0,15,16
 355 -70 355 -70 355 -83 c 0,17,18
 355 -109 355 -109 390 -109 c 0,19,20
 392 -109 392 -109 406 -107 c 128,-1,21
 420 -105 420 -105 427 -103 c 1,22,-1
 433 -157 l 1,23,24
 412 -167 412 -167 374 -167 c 0,25,26
 322 -167 322 -167 300 -149 c 0,27,28
 276 -131 276 -131 276 -99 c 0,29,30
 276 -79 276 -79 290 -57 c 0,31,32
 306 -33 306 -33 330 -7 c 1,33,34
 319 -8 319 -8 295 -10 c 0,35,36
 282 -11 282 -11 258 -11 c 0,37,38
 218 -11 218 -11 184 -4 c 0,39,40
 150 2 150 2 120 19 c 0,41,42
 92 36 92 36 75 64 c 0,43,44
 58 93 58 93 58 138 c 0,45,46
 58 178 58 178 76 206 c 0,47,48
 93 234 93 234 121 250 c 0,49,50
 150 268 150 268 184 275 c 0,51,52
 216 282 216 282 255 282 c 0,53,54
 302 282 302 282 351 271 c 1,55,-1
 351 294 l 2,56,57
 351 318 351 318 347 335 c 128,-1,58
 343 352 343 352 330 370 c 0,59,60
 318 385 318 385 296 396 c 0,61,62
 273 405 273 405 240 405 c 0,63,64
 196 405 196 405 165 399 c 0,65,66
 131 393 131 393 116 387 c 1,67,-1
 106 455 l 1,68,69
 124 463 124 463 163 469 c 128,-1,70
 202 475 202 475 247 475 c 0,0,1
255 59 m 0,71,72
 277 59 277 59 311 61 c 0,73,74
 330 62 330 62 351 66 c 1,75,-1
 351 204 l 1,76,77
 330 210 330 210 313 212 c 0,78,79
 290 215 290 215 265 215 c 0,80,81
 242 215 242 215 220 212 c 0,82,83
 196 207 196 207 181 199 c 0,84,85
 163 189 163 189 153 176 c 0,86,87
 142 160 142 160 142 139 c 0,88,89
 142 93 142 93 173 77 c 0,90,91
 203 59 203 59 255 59 c 0,71,72
EndSplineSet
EndChar

StartChar: Cacute
Encoding: 262 262 200
Width: 500
GlyphClass: 2
Flags: W
LayerCount: 2
Fore
SplineSet
438 94 m 1,0,-1
 460 26 l 1,1,2
 424 6 424 6 386 -3 c 0,3,4
 347 -13 347 -13 301 -13 c 0,5,6
 248 -13 248 -13 200 7 c 128,-1,7
 152 27 152 27 119 66 c 0,8,9
 86 104 86 104 66 166 c 0,10,11
 46 229 46 229 46 310 c 0,12,13
 46 389 46 389 67 449 c 0,14,15
 86 508 86 508 122 550 c 0,16,17
 157 591 157 591 204 612 c 0,18,19
 250 633 250 633 304 633 c 0,20,21
 343 633 343 633 380 623 c 0,22,23
 418 612 418 612 455 590 c 1,24,-1
 431 522 l 1,25,26
 364 560 364 560 307 560 c 0,27,28
 266 560 266 560 234 543 c 0,29,30
 200 525 200 525 178 492 c 0,31,32
 154 458 154 458 143 413 c 0,33,34
 130 368 130 368 130 310 c 0,35,36
 130 247 130 247 144 199 c 128,-1,37
 158 151 158 151 181 121 c 0,38,39
 205 90 205 90 239 75 c 0,40,41
 272 60 272 60 311 60 c 0,42,43
 338 60 338 60 372 68 c 0,44,45
 407 76 407 76 438 94 c 1,0,-1
338 830 m 1,46,-1
 392 777 l 1,47,-1
 266 655 l 1,48,-1
 224 692 l 1,49,-1
 338 830 l 1,46,-1
EndSplineSet
EndChar

StartChar: cacute
Encoding: 263 263 201
Width: 500
GlyphClass: 2
Flags: W
LayerCount: 2
Fore
SplineSet
49 231 m 128,-1,1
 49 292 49 292 69 340 c 0,2,3
 88 384 88 384 124 416 c 0,4,5
 158 445 158 445 206 461 c 0,6,7
 254 475 254 475 305 475 c 0,8,9
 342 475 342 475 373 471 c 128,-1,10
 404 467 404 467 444 454 c 1,11,-1
 425 383 l 1,12,13
 395 394 395 394 365 399 c 0,14,15
 337 402 337 402 309 402 c 0,16,17
 272 402 272 402 241 393 c 0,18,19
 208 382 208 382 186 363 c 0,20,21
 162 342 162 342 148 310 c 0,22,23
 134 276 134 276 134 231 c 128,-1,24
 134 186 134 186 147 156 c 0,25,26
 161 122 161 122 184 104 c 0,27,28
 205 84 205 84 240 73 c 0,29,30
 271 63 271 63 313 63 c 0,31,32
 348 63 348 63 375 67 c 0,33,34
 405 70 405 70 439 82 c 1,35,-1
 451 13 l 1,36,37
 417 0 417 0 380 -5 c 0,38,39
 344 -11 344 -11 302 -11 c 0,40,41
 245 -11 245 -11 200 5 c 0,42,43
 153 20 153 20 120 50 c 0,44,45
 86 80 86 80 68 126 c 0,46,0
 49 170 49 170 49 231 c 128,-1,1
329 693 m 1,47,-1
 383 640 l 1,48,-1
 257 518 l 1,49,-1
 215 555 l 1,50,-1
 329 693 l 1,47,-1
EndSplineSet
EndChar

StartChar: Ccircumflex
Encoding: 264 264 202
Width: 500
GlyphClass: 2
Flags: W
LayerCount: 2
Fore
SplineSet
438 94 m 1,0,-1
 460 26 l 1,1,2
 424 6 424 6 386 -3 c 0,3,4
 347 -13 347 -13 301 -13 c 0,5,6
 248 -13 248 -13 200 7 c 128,-1,7
 152 27 152 27 119 66 c 0,8,9
 86 104 86 104 66 166 c 0,10,11
 46 229 46 229 46 310 c 0,12,13
 46 389 46 389 67 449 c 0,14,15
 86 508 86 508 122 550 c 0,16,17
 157 591 157 591 204 612 c 0,18,19
 250 633 250 633 304 633 c 0,20,21
 343 633 343 633 380 623 c 0,22,23
 418 612 418 612 455 590 c 1,24,-1
 431 522 l 1,25,26
 364 560 364 560 307 560 c 0,27,28
 266 560 266 560 234 543 c 0,29,30
 200 525 200 525 178 492 c 0,31,32
 154 458 154 458 143 413 c 0,33,34
 130 368 130 368 130 310 c 0,35,36
 130 247 130 247 144 199 c 128,-1,37
 158 151 158 151 181 121 c 0,38,39
 205 90 205 90 239 75 c 0,40,41
 272 60 272 60 311 60 c 0,42,43
 338 60 338 60 372 68 c 0,44,45
 407 76 407 76 438 94 c 1,0,-1
183 698 m 1,46,-1
 304 826 l 1,47,-1
 425 698 l 1,48,-1
 391 659 l 1,49,-1
 304 737 l 1,50,-1
 217 659 l 1,51,-1
 183 698 l 1,46,-1
EndSplineSet
EndChar

StartChar: ccircumflex
Encoding: 265 265 203
Width: 500
GlyphClass: 2
Flags: W
LayerCount: 2
Fore
SplineSet
49 231 m 128,-1,1
 49 292 49 292 69 340 c 0,2,3
 88 384 88 384 124 416 c 0,4,5
 158 445 158 445 206 461 c 0,6,7
 254 475 254 475 305 475 c 0,8,9
 342 475 342 475 373 471 c 128,-1,10
 404 467 404 467 444 454 c 1,11,-1
 425 383 l 1,12,13
 395 394 395 394 365 399 c 0,14,15
 337 402 337 402 309 402 c 0,16,17
 272 402 272 402 241 393 c 0,18,19
 208 382 208 382 186 363 c 0,20,21
 162 342 162 342 148 310 c 0,22,23
 134 276 134 276 134 231 c 128,-1,24
 134 186 134 186 147 156 c 0,25,26
 161 122 161 122 184 104 c 0,27,28
 205 84 205 84 240 73 c 0,29,30
 271 63 271 63 313 63 c 0,31,32
 348 63 348 63 375 67 c 0,33,34
 405 70 405 70 439 82 c 1,35,-1
 451 13 l 1,36,37
 417 0 417 0 380 -5 c 0,38,39
 344 -11 344 -11 302 -11 c 0,40,41
 245 -11 245 -11 200 5 c 0,42,43
 153 20 153 20 120 50 c 0,44,45
 86 80 86 80 68 126 c 0,46,0
 49 170 49 170 49 231 c 128,-1,1
179 559 m 1,47,-1
 300 687 l 1,48,-1
 421 559 l 1,49,-1
 387 520 l 1,50,-1
 300 598 l 1,51,-1
 213 520 l 1,52,-1
 179 559 l 1,47,-1
EndSplineSet
EndChar

StartChar: Cdotaccent
Encoding: 266 266 204
Width: 500
GlyphClass: 2
Flags: W
LayerCount: 2
Fore
SplineSet
438 94 m 1,0,-1
 460 26 l 1,1,2
 424 6 424 6 386 -3 c 0,3,4
 347 -13 347 -13 301 -13 c 0,5,6
 248 -13 248 -13 200 7 c 128,-1,7
 152 27 152 27 119 66 c 0,8,9
 86 104 86 104 66 166 c 0,10,11
 46 229 46 229 46 310 c 0,12,13
 46 389 46 389 67 449 c 0,14,15
 86 508 86 508 122 550 c 0,16,17
 157 591 157 591 204 612 c 0,18,19
 250 633 250 633 304 633 c 0,20,21
 343 633 343 633 380 623 c 0,22,23
 418 612 418 612 455 590 c 1,24,-1
 431 522 l 1,25,26
 364 560 364 560 307 560 c 0,27,28
 266 560 266 560 234 543 c 0,29,30
 200 525 200 525 178 492 c 0,31,32
 154 458 154 458 143 413 c 0,33,34
 130 368 130 368 130 310 c 0,35,36
 130 247 130 247 144 199 c 128,-1,37
 158 151 158 151 181 121 c 0,38,39
 205 90 205 90 239 75 c 0,40,41
 272 60 272 60 311 60 c 0,42,43
 338 60 338 60 372 68 c 0,44,45
 407 76 407 76 438 94 c 1,0,-1
304 681 m 0,46,47
 279 681 279 681 262 698 c 0,48,49
 244 714 244 714 244 742 c 128,-1,50
 244 770 244 770 262 786 c 0,51,52
 278 802 278 802 304 802 c 128,-1,53
 330 802 330 802 347 786 c 0,54,55
 364 769 364 769 364 742 c 128,-1,56
 364 715 364 715 347 698 c 0,57,58
 328 681 328 681 304 681 c 0,46,47
EndSplineSet
EndChar

StartChar: cdotaccent
Encoding: 267 267 205
Width: 500
GlyphClass: 2
Flags: W
LayerCount: 2
Fore
SplineSet
49 231 m 128,-1,1
 49 292 49 292 69 340 c 0,2,3
 88 384 88 384 124 416 c 0,4,5
 158 445 158 445 206 461 c 0,6,7
 254 475 254 475 305 475 c 0,8,9
 342 475 342 475 373 471 c 128,-1,10
 404 467 404 467 444 454 c 1,11,-1
 425 383 l 1,12,13
 395 394 395 394 365 399 c 0,14,15
 337 402 337 402 309 402 c 0,16,17
 272 402 272 402 241 393 c 0,18,19
 208 382 208 382 186 363 c 0,20,21
 162 342 162 342 148 310 c 0,22,23
 134 276 134 276 134 231 c 128,-1,24
 134 186 134 186 147 156 c 0,25,26
 161 122 161 122 184 104 c 0,27,28
 205 84 205 84 240 73 c 0,29,30
 271 63 271 63 313 63 c 0,31,32
 348 63 348 63 375 67 c 0,33,34
 405 70 405 70 439 82 c 1,35,-1
 451 13 l 1,36,37
 417 0 417 0 380 -5 c 0,38,39
 344 -11 344 -11 302 -11 c 0,40,41
 245 -11 245 -11 200 5 c 0,42,43
 153 20 153 20 120 50 c 0,44,45
 86 80 86 80 68 126 c 0,46,0
 49 170 49 170 49 231 c 128,-1,1
304 542 m 0,47,48
 279 542 279 542 262 559 c 0,49,50
 244 576 244 576 244 603 c 128,-1,51
 244 630 244 630 262 647 c 0,52,53
 278 663 278 663 304 663 c 128,-1,54
 330 663 330 663 347 647 c 0,55,56
 364 630 364 630 364 603 c 128,-1,57
 364 576 364 576 347 559 c 0,58,59
 328 542 328 542 304 542 c 0,47,48
EndSplineSet
EndChar

StartChar: Ccaron
Encoding: 268 268 206
Width: 500
GlyphClass: 2
Flags: W
LayerCount: 2
Fore
SplineSet
438 94 m 1,0,-1
 460 26 l 1,1,2
 424 6 424 6 386 -3 c 0,3,4
 347 -13 347 -13 301 -13 c 0,5,6
 248 -13 248 -13 200 7 c 128,-1,7
 152 27 152 27 119 66 c 0,8,9
 86 104 86 104 66 166 c 0,10,11
 46 229 46 229 46 310 c 0,12,13
 46 389 46 389 67 449 c 0,14,15
 86 508 86 508 122 550 c 0,16,17
 157 591 157 591 204 612 c 0,18,19
 250 633 250 633 304 633 c 0,20,21
 343 633 343 633 380 623 c 0,22,23
 418 612 418 612 455 590 c 1,24,-1
 431 522 l 1,25,26
 364 560 364 560 307 560 c 0,27,28
 266 560 266 560 234 543 c 0,29,30
 200 525 200 525 178 492 c 0,31,32
 154 458 154 458 143 413 c 0,33,34
 130 368 130 368 130 310 c 0,35,36
 130 247 130 247 144 199 c 128,-1,37
 158 151 158 151 181 121 c 0,38,39
 205 90 205 90 239 75 c 0,40,41
 272 60 272 60 311 60 c 0,42,43
 338 60 338 60 372 68 c 0,44,45
 407 76 407 76 438 94 c 1,0,-1
304 662 m 1,46,-1
 183 790 l 1,47,-1
 217 829 l 1,48,-1
 304 751 l 1,49,-1
 391 829 l 1,50,-1
 425 790 l 1,51,-1
 304 662 l 1,46,-1
EndSplineSet
EndChar

StartChar: ccaron
Encoding: 269 269 207
Width: 500
GlyphClass: 2
Flags: W
LayerCount: 2
Fore
SplineSet
49 231 m 128,-1,1
 49 292 49 292 69 340 c 0,2,3
 88 384 88 384 124 416 c 0,4,5
 158 445 158 445 206 461 c 0,6,7
 254 475 254 475 305 475 c 0,8,9
 342 475 342 475 373 471 c 128,-1,10
 404 467 404 467 444 454 c 1,11,-1
 425 383 l 1,12,13
 395 394 395 394 365 399 c 0,14,15
 337 402 337 402 309 402 c 0,16,17
 272 402 272 402 241 393 c 0,18,19
 208 382 208 382 186 363 c 0,20,21
 162 342 162 342 148 310 c 0,22,23
 134 276 134 276 134 231 c 128,-1,24
 134 186 134 186 147 156 c 0,25,26
 161 122 161 122 184 104 c 0,27,28
 205 84 205 84 240 73 c 0,29,30
 271 63 271 63 313 63 c 0,31,32
 348 63 348 63 375 67 c 0,33,34
 405 70 405 70 439 82 c 1,35,-1
 451 13 l 1,36,37
 417 0 417 0 380 -5 c 0,38,39
 344 -11 344 -11 302 -11 c 0,40,41
 245 -11 245 -11 200 5 c 0,42,43
 153 20 153 20 120 50 c 0,44,45
 86 80 86 80 68 126 c 0,46,0
 49 170 49 170 49 231 c 128,-1,1
300 523 m 1,47,-1
 179 651 l 1,48,-1
 213 690 l 1,49,-1
 300 612 l 1,50,-1
 387 690 l 1,51,-1
 421 651 l 1,52,-1
 300 523 l 1,47,-1
EndSplineSet
EndChar

StartChar: Dcaron
Encoding: 270 270 208
Width: 500
GlyphClass: 2
Flags: W
LayerCount: 2
Fore
SplineSet
460 310 m 0,0,1
 460 224 460 224 439 164 c 0,2,3
 416 103 416 103 380 67 c 0,4,5
 341 28 341 28 291 12 c 0,6,7
 237 -5 237 -5 179 -5 c 0,8,9
 117 -5 117 -5 54 10 c 1,10,-1
 54 610 l 1,11,12
 117 625 117 625 179 625 c 0,13,14
 237 625 237 625 291 608 c 0,15,16
 341 592 341 592 380 553 c 0,17,18
 416 517 416 517 439 455 c 0,19,20
 460 395 460 395 460 310 c 0,0,1
136 551 m 1,21,-1
 136 69 l 1,22,23
 162 66 162 66 187 66 c 0,24,25
 231 66 231 66 267 80 c 128,-1,26
 303 94 303 94 326 123 c 0,27,28
 349 150 349 150 363 199 c 0,29,30
 376 244 376 244 376 310 c 0,31,32
 376 436 376 436 328 495 c 0,33,34
 278 554 278 554 184 554 c 2,35,-1
 159 554 l 2,36,37
 150 553 150 553 136 551 c 1,21,-1
215 662 m 1,38,-1
 94 790 l 1,39,-1
 128 829 l 1,40,-1
 215 751 l 1,41,-1
 302 829 l 1,42,-1
 336 790 l 1,43,-1
 215 662 l 1,38,-1
EndSplineSet
EndChar

StartChar: dcaron
Encoding: 271 271 209
Width: 500
GlyphClass: 2
Flags: W
LayerCount: 2
Fore
SplineSet
281 72 m 1,0,-1
 281 366 l 1,1,2
 271 379 271 379 248 391 c 0,3,4
 224 402 224 402 201 402 c 0,5,6
 174 402 174 402 157 389 c 0,7,8
 138 374 138 374 128 354 c 0,9,10
 115 330 115 330 111 300 c 0,11,12
 105 268 105 268 105 232 c 0,13,14
 105 150 105 150 135 107 c 0,15,16
 165 63 165 63 213 63 c 0,17,18
 238 63 238 63 256 66 c 128,-1,19
 274 69 274 69 281 72 c 1,0,-1
281 447 m 1,20,-1
 281 679 l 1,21,-1
 363 693 l 1,22,-1
 363 13 l 1,23,24
 329 2 329 2 302 -3 c 0,25,26
 262 -11 262 -11 213 -11 c 0,27,28
 170 -11 170 -11 134 6 c 0,29,30
 100 22 100 22 73 55 c 0,31,32
 47 87 47 87 34 131 c 0,33,34
 20 178 20 178 20 232 c 128,-1,35
 20 286 20 286 32 331 c 0,36,37
 43 376 43 376 65 407 c 0,38,39
 88 439 88 439 119 457 c 256,40,41
 150 475 150 475 191 475 c 0,42,43
 224 475 224 475 246 466 c 0,44,45
 270 456 270 456 281 447 c 1,20,-1
421 693 m 1,46,-1
 500 693 l 1,47,-1
 476 494 l 1,48,-1
 421 494 l 1,49,-1
 421 693 l 1,46,-1
EndSplineSet
EndChar

StartChar: Dcroat
Encoding: 272 272 210
Width: 500
GlyphClass: 2
Flags: W
LayerCount: 2
Fore
SplineSet
460 310 m 0,0,1
 460 226 460 226 440 164 c 0,2,3
 420 106 420 106 384 67 c 0,4,5
 346 28 346 28 299 12 c 0,6,7
 248 -5 248 -5 193 -5 c 0,8,9
 132 -5 132 -5 71 10 c 1,10,-1
 71 291 l 1,11,-1
 18 291 l 1,12,-1
 18 355 l 1,13,-1
 71 355 l 1,14,-1
 71 610 l 1,15,16
 133 625 133 625 193 625 c 0,17,18
 248 625 248 625 299 608 c 0,19,20
 346 592 346 592 384 553 c 0,21,22
 419 515 419 515 440 455 c 0,23,24
 460 393 460 393 460 310 c 0,0,1
154 291 m 1,25,-1
 154 69 l 1,26,27
 168 67 168 67 177 67 c 0,28,29
 185 66 185 66 200 66 c 0,30,31
 241 66 241 66 275 80 c 128,-1,32
 309 94 309 94 330 123 c 0,33,34
 351 150 351 150 364 199 c 0,35,36
 376 246 376 246 376 310 c 0,37,38
 376 436 376 436 331 495 c 0,39,40
 284 554 284 554 197 554 c 0,41,42
 172 554 172 554 154 551 c 1,43,-1
 154 355 l 1,44,-1
 252 355 l 1,45,-1
 252 291 l 1,46,-1
 154 291 l 1,25,-1
EndSplineSet
EndChar

StartChar: dcroat
Encoding: 273 273 211
Width: 500
GlyphClass: 2
Flags: W
LayerCount: 2
Fore
SplineSet
332 447 m 1,0,-1
 332 548 l 1,1,-1
 155 548 l 1,2,-1
 155 610 l 1,3,-1
 332 610 l 1,4,-1
 332 679 l 1,5,-1
 414 693 l 1,6,-1
 414 610 l 1,7,-1
 480 610 l 1,8,-1
 480 548 l 1,9,-1
 414 548 l 1,10,-1
 414 13 l 1,11,12
 379 3 379 3 348 -3 c 0,13,14
 305 -11 305 -11 254 -11 c 0,15,16
 207 -11 207 -11 167 6 c 0,17,18
 130 21 130 21 99 55 c 0,19,20
 71 86 71 86 56 131 c 0,21,22
 40 175 40 175 40 232 c 0,23,24
 40 288 40 288 53 331 c 0,25,26
 68 378 68 378 91 407 c 0,27,28
 118 440 118 440 152 457 c 0,29,30
 186 475 186 475 231 475 c 0,31,32
 266 475 266 475 292 466 c 0,33,34
 321 456 321 456 332 447 c 1,0,-1
332 72 m 1,35,-1
 332 366 l 1,36,37
 320 378 320 378 294 391 c 0,38,39
 267 402 267 402 241 402 c 0,40,41
 210 402 210 402 188 389 c 0,42,43
 165 375 165 375 152 354 c 0,44,45
 138 330 138 330 132 300 c 0,46,47
 125 271 125 271 125 232 c 0,48,49
 125 150 125 150 161 107 c 0,50,51
 197 63 197 63 254 63 c 0,52,53
 284 63 284 63 303 66 c 0,54,55
 323 69 323 69 332 72 c 1,35,-1
EndSplineSet
EndChar

StartChar: Emacron
Encoding: 274 274 212
Width: 500
GlyphClass: 2
Flags: W
LayerCount: 2
Fore
SplineSet
460 0 m 1,0,-1
 91 0 l 1,1,-1
 91 619 l 1,2,-1
 438 619 l 1,3,-1
 438 549 l 1,4,-1
 173 549 l 1,5,-1
 173 359 l 1,6,-1
 405 359 l 1,7,-1
 405 289 l 1,8,-1
 173 289 l 1,9,-1
 173 70 l 1,10,-1
 460 70 l 1,11,-1
 460 0 l 1,0,-1
141 710 m 1,12,-1
 141 774 l 1,13,-1
 395 774 l 1,14,-1
 395 710 l 1,15,-1
 141 710 l 1,12,-1
EndSplineSet
EndChar

